<?xml version="1.0" encoding="utf-8"?>
<!-- Generator: Adobe Illustrator 27.5.0, SVG Export Plug-In . SVG Version: 6.00 Build 0)  -->
<svg version="1.1" xmlns="http://www.w3.org/2000/svg" xmlns:xlink="http://www.w3.org/1999/xlink" x="0px" y="0px"
	 viewBox="0 0 500 500" style="enable-background:new 0 0 500 500;" xml:space="preserve">
<g id="BACKGROUND">
	<rect style="fill:#D9D9FF;" width="500" height="500"/>
</g>
<g id="OBJECTS">
	<g>
		<defs>
			<rect id="SVGID_1_" width="500" height="500"/>
		</defs>
		<clipPath id="SVGID_00000023984976786192936240000005890390348436745624_">
			<use xlink:href="#SVGID_1_"  style="overflow:visible;"/>
		</clipPath>
		<g style="clip-path:url(#SVGID_00000023984976786192936240000005890390348436745624_);">
			<g>
				<path style="fill:#C6C6F7;" d="M-42.553,516.711c-0.887-0.263-1.773-0.541-2.661-0.834l0.288-1.279
					c0.877,0.29,1.755,0.566,2.633,0.826L-42.553,516.711z"/>
				<path style="fill:#C6C6F7;" d="M-48.904,514.568c-1.731-0.655-3.478-1.379-5.197-2.149l0.38-1.243
					c1.7,0.763,3.431,1.479,5.144,2.126L-48.904,514.568z M-57.681,510.719c-1.678-0.839-3.367-1.747-5.021-2.697l0.47-1.199
					c1.635,0.943,3.307,1.84,4.967,2.671L-57.681,510.719z M-66.143,505.94c-1.625-1.029-3.239-2.12-4.799-3.243l0.56-1.139
					c1.541,1.111,3.139,2.189,4.745,3.207L-66.143,505.94z M-74.208,500.231c-1.538-1.212-3.058-2.489-4.518-3.795l0.649-1.067
					c1.442,1.291,2.944,2.552,4.464,3.751L-74.208,500.231z M-81.774,493.583c-1.431-1.402-2.832-2.868-4.162-4.357l0.741-0.974
					c1.313,1.468,2.695,2.916,4.109,4.3L-81.774,493.583z M-88.703,485.977c-1.295-1.596-2.544-3.253-3.712-4.924l0.834-0.857
					c1.152,1.646,2.382,3.278,3.658,4.852L-88.703,485.977z M-94.829,477.411c-1.124-1.788-2.187-3.628-3.159-5.468l0.921-0.715
					c0.957,1.809,2.003,3.619,3.108,5.38L-94.829,477.411z M-99.971,467.935c-0.904-1.962-1.734-3.97-2.47-5.973l1-0.539
					c0.722,1.965,1.537,3.939,2.425,5.864L-99.971,467.935z M500.996,464.436l-0.171-1.31c1.741-0.334,3.54-0.699,5.389-1.093
					l0.19,1.305C504.549,463.734,502.744,464.099,500.996,464.436z M510.178,462.507l-0.201-1.302
					c1.753-0.399,3.542-0.824,5.362-1.277l0.22,1.3C513.733,461.681,511.938,462.108,510.178,462.507z M519.312,460.265
					l-0.233-1.295c1.755-0.464,3.533-0.952,5.328-1.466l0.252,1.29C522.857,459.311,521.073,459.802,519.312,460.265z
					 M528.387,457.696l-0.267-1.287c1.751-0.532,3.515-1.088,5.285-1.669l0.286,1.279
					C531.914,456.604,530.144,457.162,528.387,457.696z M-103.895,457.629c-0.637-2.098-1.192-4.244-1.651-6.379l1.057-0.334
					c0.451,2.094,0.997,4.198,1.621,6.255L-103.895,457.629z M537.388,454.77l-0.303-1.274c1.741-0.607,3.486-1.239,5.23-1.897
					l0.325,1.266C540.889,453.526,539.136,454.16,537.388,454.77z M546.294,451.445l-0.342-1.258
					c1.726-0.691,3.449-1.408,5.163-2.153l0.37,1.248C549.763,450.03,548.031,450.751,546.294,451.445z M555.083,447.67
					l-0.389-1.239c1.714-0.791,3.416-1.612,5.057-2.441l0.421,1.225C558.521,446.047,556.808,446.873,555.083,447.67z
					 M-106.393,446.682c-0.341-2.18-0.596-4.407-0.761-6.621l1.09-0.119c0.161,2.171,0.412,4.357,0.746,6.495L-106.393,446.682z
					 M563.702,443.376l-0.444-1.212c1.686-0.909,3.348-1.848,4.939-2.792l0.481,1.191
					C567.073,441.514,565.4,442.461,563.702,443.376z M572.104,438.457l-0.509-1.173c1.633-1.041,3.235-2.118,4.759-3.202
					l0.553,1.145C575.368,436.321,573.752,437.407,572.104,438.457z M-107.372,435.389c-0.011-0.554-0.016-1.108-0.016-1.664
					c0-1.647,0.048-3.333,0.142-5.011l1.092,0.091c-0.093,1.648-0.14,3.303-0.14,4.92c0,0.545,0.005,1.089,0.016,1.633
					L-107.372,435.389z M580.192,432.795l-0.588-1.119c1.567-1.211,3.081-2.454,4.497-3.694l0.641,1.075
					C583.308,430.313,581.777,431.57,580.192,432.795z M587.813,426.236l-0.681-1.036c1.447-1.4,2.831-2.841,4.11-4.285l0.746,0.971
					C590.686,423.352,589.283,424.817,587.813,426.236z M-105.778,424.241l-1.085-0.171c0.234-2.168,0.55-4.379,0.94-6.571
					l1.069,0.28C-105.237,419.935-105.548,422.109-105.778,424.241z M594.729,418.599l-0.793-0.912
					c1.268-1.621,2.454-3.29,3.525-4.963l0.863,0.813C597.233,415.244,596.022,416.947,594.729,418.599z M-103.953,413.313
					l-1.055-0.35c0.474-2.102,1.029-4.242,1.647-6.364l1.032,0.443C-102.94,409.133-103.485,411.243-103.953,413.313z
					 M600.572,409.73l-0.914-0.728c1-1.845,1.898-3.751,2.671-5.661l0.983,0.583C602.519,405.884,601.597,407.838,600.572,409.73z
					 M-100.976,402.741l-1.013-0.502c0.684-2.025,1.439-4.072,2.244-6.084l0.985,0.58
					C-99.556,398.72-100.302,400.741-100.976,402.741z M604.844,399.632l-1.023-0.469c0.633-2.028,1.152-4.123,1.54-6.228
					l1.068,0.29C606.029,395.392,605.495,397.547,604.844,399.632z M-97.027,392.632l-0.964-0.629
					c0.858-1.93,1.782-3.871,2.747-5.77l0.931,0.694C-95.265,388.805-96.178,390.724-97.027,392.632z M607.088,388.608l-1.085-0.16
					c0.193-1.909,0.292-3.873,0.292-5.837l-0.001-0.664l1.094-0.008l0.001,0.672C607.388,384.629,607.287,386.647,607.088,388.608z
					 M-92.259,383.044l-0.91-0.735c1-1.815,2.064-3.643,3.163-5.434l0.878,0.792C-90.216,379.439-91.27,381.249-92.259,383.044z
					 M606.209,377.334c-0.073-2.235-0.193-4.442-0.359-6.561l1.09-0.124c0.168,2.142,0.289,4.374,0.363,6.633L606.209,377.334z
					 M-86.804,374.017l-0.855-0.826c1.132-1.719,2.318-3.435,3.526-5.098l0.82,0.875C-84.508,370.617-85.683,372.315-86.804,374.017
					z M605.415,366.206c-0.249-2.192-0.558-4.367-0.916-6.467l1.07-0.269c0.364,2.13,0.676,4.335,0.928,6.556L605.415,366.206z
					 M-80.754,365.553l-0.799-0.906c1.238-1.6,2.531-3.199,3.843-4.753l0.765,0.948C-78.245,362.382-79.527,363.967-80.754,365.553z
					 M-74.177,357.667l-0.739-0.976c1.341-1.493,2.729-2.971,4.128-4.396l0.703,1.015C-71.47,354.721-72.847,356.187-74.177,357.667
					z M603.637,355.265c-0.46-2.134-0.987-4.243-1.568-6.269l1.034-0.435c0.59,2.059,1.125,4.202,1.592,6.37L603.637,355.265z
					 M-67.127,350.386l-0.677-1.041c1.438-1.378,2.912-2.727,4.38-4.01l0.641,1.075C-64.239,347.683-65.701,349.02-67.127,350.386z
					 M600.726,344.708c-0.689-2.018-1.455-4.016-2.274-5.94l0.972-0.609c0.833,1.956,1.612,3.989,2.313,6.042L600.726,344.708z
					 M-59.662,343.767l-0.612-1.098c1.52-1.244,3.074-2.455,4.62-3.599l0.571,1.132C-56.615,341.336-58.155,342.536-59.662,343.767z
					 M-51.801,337.858l-0.538-1.152c1.602-1.101,3.231-2.157,4.844-3.14l0.491,1.184C-48.601,335.723-50.214,336.769-51.801,337.858
					z M596.617,334.755c-0.906-1.85-1.898-3.698-2.949-5.492l0.891-0.766c1.069,1.823,2.078,3.702,2.999,5.583L596.617,334.755z
					 M-43.575,332.751l-0.455-1.204c1.19-0.662,2.397-1.297,3.589-1.892l1.455-0.729l0.421,1.225l-1.46,0.732
					C-41.203,331.469-42.397,332.099-43.575,332.751z M-35.035,328.329l-0.436-1.216c1.765-0.93,3.39-1.818,4.968-2.714l0.464,1.202
					C-31.626,326.503-33.26,327.395-35.035,328.329z M591.391,325.591c-1.083-1.657-2.264-3.341-3.51-5.006l0.81-0.891
					c1.263,1.686,2.46,3.394,3.557,5.073L591.391,325.591z M-26.583,323.574l-0.489-1.186c1.678-1.018,3.296-2.055,4.808-3.082
					l0.534,1.158C-23.256,321.5-24.889,322.546-26.583,323.574z M-18.41,318.11l-0.57-1.132c1.589-1.177,3.115-2.393,4.538-3.611
					l0.632,1.082C-15.254,315.686-16.802,316.917-18.41,318.11z M585.273,317.246c-1.225-1.508-2.503-3.007-3.908-4.581l0.743-0.974
					c1.417,1.589,2.707,3.101,3.944,4.625L585.273,317.246z M-10.722,311.654l-0.677-1.041c1.441-1.38,2.821-2.82,4.101-4.282
					l0.75,0.966C-7.85,308.784-9.255,310.249-10.722,311.654z M578.533,309.571c-1.361-1.451-2.745-2.881-4.144-4.299l0.701-1.018
					c1.407,1.426,2.798,2.863,4.165,4.322L578.533,309.571z M-3.828,303.98l-0.801-0.901c1.238-1.617,2.406-3.306,3.47-5.021
					l0.874,0.798C-1.372,300.606-2.565,302.33-3.828,303.98z M571.44,302.314c-1.056-1.048-2.116-2.094-3.18-3.144l-1.053-1.04
					l0.69-1.028l1.053,1.04c1.065,1.05,2.127,2.098,3.182,3.146L571.44,302.314z M564.243,295.194
					c-1.403-1.397-2.805-2.81-4.203-4.248l0.709-1.01c1.391,1.433,2.789,2.841,4.188,4.235L564.243,295.194z M1.921,295.015
					L1,294.297c0.964-1.819,1.861-3.733,2.668-5.689l0.979,0.593C3.823,291.199,2.905,293.155,1.921,295.015z M557.141,287.905
					c-1.444-1.542-2.77-3.005-4.052-4.472l0.75-0.963c1.274,1.455,2.591,2.908,4.026,4.441L557.141,287.905z M6.245,284.943
					l-1.011-0.505c0.672-1.98,1.281-4.057,1.809-6.174l1.047,0.383C7.553,280.806,6.932,282.923,6.245,284.943z M550.333,280.192
					c-1.309-1.586-2.582-3.207-3.784-4.815l0.812-0.891c1.189,1.594,2.45,3.198,3.745,4.769L550.333,280.192z M9.081,274.118
					l-1.068-0.287c0.383-2.094,0.66-4.266,0.824-6.457l1.09,0.119C9.758,269.741,9.474,271.969,9.081,274.118z M544.026,271.863
					c-1.179-1.708-2.322-3.467-3.397-5.228l0.88-0.787c1.061,1.739,2.19,3.477,3.357,5.164L544.026,271.863z M538.413,262.829
					c-1.02-1.839-2.001-3.736-2.915-5.639l0.944-0.668c0.903,1.88,1.872,3.752,2.879,5.566L538.413,262.829z M10.115,262.808
					l-1.094-0.01l0.001-0.513c0-1.955-0.08-3.982-0.237-6.029l1.09-0.122c0.16,2.087,0.241,4.155,0.241,6.145L10.115,262.808z
					 M533.668,253.064c-0.79-1.965-1.506-4.044-2.13-6.176l1.032-0.443c0.609,2.086,1.31,4.117,2.081,6.039L533.668,253.064z
					 M8.317,251.698c-0.263-2.063-0.606-4.233-1.02-6.453l1.066-0.293c0.421,2.249,0.769,4.452,1.035,6.544L8.317,251.698z
					 M530.379,242.421c-0.476-2.096-0.886-4.288-1.217-6.515l1.077-0.236c0.325,2.188,0.727,4.341,1.195,6.399L530.379,242.421z
					 M6.381,240.773c-0.449-2.026-0.949-4.097-1.527-6.328l1.043-0.399c0.584,2.25,1.088,4.338,1.54,6.382L6.381,240.773z
					 M528.587,231.287c-0.04-0.386-0.077-0.772-0.111-1.159c-0.157-1.729-0.289-3.571-0.39-5.477l1.092-0.085
					c0.1,1.886,0.231,3.71,0.386,5.419c0.034,0.381,0.069,0.759,0.109,1.137L528.587,231.287z M3.671,230.05
					c-0.581-2.085-1.186-4.165-1.8-6.242l1.03-0.448c0.616,2.085,1.223,4.173,1.806,6.266L3.671,230.05z M527.896,220.003
					c-0.061-2.055-0.098-4.227-0.113-6.642l1.094-0.01c0.015,2.402,0.052,4.563,0.113,6.603L527.896,220.003z M0.566,219.451
					l-0.532-1.763c-0.451-1.492-0.902-2.981-1.345-4.467l1.028-0.451c0.444,1.484,0.894,2.971,1.344,4.462l0.533,1.764
					L0.566,219.451z M-2.602,208.848c-0.611-2.107-1.202-4.205-1.756-6.291l1.041-0.407c0.552,2.076,1.139,4.161,1.748,6.258
					L-2.602,208.848z M528.873,208.721l-1.094-0.008c0.01-2.193,0.031-4.405,0.056-6.628l1.094,0.018
					C528.904,204.322,528.883,206.531,528.873,208.721z M-5.489,198.107c-0.549-2.281-1.006-4.388-1.399-6.44l1.066-0.3
					c0.388,2.029,0.841,4.112,1.383,6.37L-5.489,198.107z M528.981,197.467l-1.094-0.018c0.025-2.2,0.046-4.409,0.056-6.618
					l1.094,0.008C529.027,193.051,529.005,195.264,528.981,197.467z M-7.66,187.089c-0.322-2.197-0.572-4.422-0.744-6.612
					l1.09-0.124c0.169,2.155,0.415,4.344,0.731,6.506L-7.66,187.089z M527.94,186.204c-0.011-2.206-0.042-4.41-0.101-6.603
					l1.094-0.044c0.059,2.206,0.09,4.42,0.101,6.64L527.94,186.204z M-8.654,175.812c-0.027-0.931-0.041-1.858-0.041-2.781
					c0-1.301,0.027-2.612,0.081-3.895l1.092,0.067c-0.052,1.261-0.079,2.548-0.079,3.827c0,0.908,0.014,1.819,0.041,2.734
					L-8.654,175.812z M280.922,175.521l-1.481-0.007l0.006-1.326l1.474,0.007c1.332,0,2.658-0.016,3.977-0.045l0.02,1.326
					C283.592,175.505,282.26,175.521,280.922,175.521z M275.604,175.444c-1.815-0.054-3.641-0.133-5.474-0.24l0.051-1.323
					c1.825,0.104,3.643,0.183,5.45,0.237L275.604,175.444z M288.753,175.344l-0.041-1.326c1.823-0.083,3.654-0.199,5.443-0.344
					l0.073,1.323C292.43,175.144,290.588,175.26,288.753,175.344z M527.673,174.983c-0.107-2.285-0.25-4.496-0.424-6.57l1.087-0.135
					c0.176,2.094,0.321,4.325,0.428,6.629L527.673,174.983z M266.3,174.948c-1.818-0.14-3.643-0.305-5.471-0.495l0.094-1.321
					c1.819,0.189,3.635,0.352,5.447,0.492L266.3,174.948z M298.053,174.635l-0.096-1.321c0.514-0.056,1.028-0.114,1.537-0.175
					c1.312-0.155,2.604-0.326,3.878-0.509l0.128,1.315c-1.28,0.185-2.579,0.356-3.899,0.514
					C299.088,174.521,298.572,174.579,298.053,174.635z M257.004,174.021c-1.815-0.223-3.632-0.467-5.448-0.737l0.132-1.316
					c1.81,0.267,3.618,0.512,5.427,0.734L257.004,174.021z M307.304,173.352l-0.152-1.313c1.807-0.307,3.616-0.649,5.377-1.018
					l0.186,1.308C310.943,172.699,309.123,173.044,307.304,173.352z M247.75,172.688c-1.81-0.3-3.616-0.624-5.419-0.969l0.171-1.31
					c1.795,0.344,3.595,0.665,5.398,0.966L247.75,172.688z M316.485,171.486l-0.211-1.3c1.778-0.423,3.567-0.889,5.319-1.384
					l0.248,1.292C320.076,170.591,318.275,171.06,316.485,171.486z M238.551,170.962c-1.801-0.378-3.596-0.778-5.384-1.199
					l0.209-1.302c1.78,0.421,3.568,0.818,5.361,1.194L238.551,170.962z M325.566,168.983l-0.276-1.283
					c1.748-0.551,3.51-1.148,5.238-1.775l0.314,1.271C329.101,167.827,327.326,168.428,325.566,168.983z M229.415,168.842
					c-1.791-0.456-3.572-0.931-5.342-1.429l0.248-1.292c1.762,0.496,3.536,0.971,5.319,1.424L229.415,168.842z M220.344,166.329
					c-1.782-0.537-3.55-1.095-5.303-1.674l0.288-1.279c1.745,0.576,3.504,1.132,5.279,1.666L220.344,166.329z M334.502,165.803
					l-0.342-1.26c1.692-0.673,3.419-1.404,5.136-2.17l0.378,1.243C337.946,164.389,336.206,165.125,334.502,165.803z
					 M-7.213,164.628L-8.3,164.48c0.205-2.213,0.495-4.431,0.858-6.593l1.072,0.264C-6.728,160.276-7.011,162.455-7.213,164.628z
					 M526.79,163.839c-0.262-2.24-0.578-4.419-0.939-6.477l1.07-0.277c0.366,2.089,0.687,4.299,0.952,6.567L526.79,163.839z
					 M211.35,163.396c-1.767-0.624-3.516-1.266-5.244-1.929l0.331-1.264c1.72,0.66,3.46,1.3,5.219,1.919L211.35,163.396z
					 M343.256,161.953l-0.405-1.233c1.66-0.801,3.349-1.657,5.018-2.544l0.439,1.214
					C346.629,160.282,344.928,161.145,343.256,161.953z M202.459,160.022c-1.731-0.704-3.47-1.448-5.172-2.205l0.378-1.244
					c1.691,0.753,3.422,1.492,5.142,2.193L202.459,160.022z M351.804,157.475l-0.462-1.202c1.592-0.896,3.241-1.861,4.904-2.867
					l0.489,1.186C355.063,155.604,353.404,156.574,351.804,157.475z M193.701,156.166c-1.711-0.809-3.418-1.656-5.076-2.516
					l0.432-1.22c1.646,0.854,3.343,1.696,5.042,2.5L193.701,156.166z M-5.501,153.682l-1.056-0.344
					c0.473-2.134,1.033-4.274,1.662-6.363l1.028,0.456C-4.485,149.482-5.036,151.585-5.501,153.682z M524.959,152.89
					c-0.486-2.153-1.048-4.249-1.67-6.228l1.022-0.471c0.635,2.019,1.207,4.155,1.703,6.35L524.959,152.89z M360.153,152.483
					l-0.504-1.176c1.614-1.018,3.216-2.053,4.809-3.107l0.523,1.163C363.382,150.421,361.774,151.462,360.153,152.483z
					 M185.116,151.769c-1.693-0.94-3.358-1.907-4.947-2.878l0.491-1.183c1.578,0.962,3.229,1.923,4.911,2.855L185.116,151.769z
					 M368.33,147.124l-0.533-1.158c1.581-1.07,3.161-2.153,4.744-3.251l0.543,1.152C371.497,144.965,369.914,146.051,368.33,147.124
					z M176.762,146.735c-1.65-1.084-3.254-2.196-4.765-3.307l0.566-1.134c1.498,1.101,3.086,2.202,4.721,3.276L176.762,146.735z
					 M-2.455,143.163l-1.002-0.531c0.725-2.015,1.538-4.033,2.415-6l0.961,0.632C-0.942,139.195-1.741,141.18-2.455,143.163z
					 M521.811,142.445c-0.773-1.99-1.643-3.919-2.586-5.733l0.925-0.707c0.967,1.859,1.859,3.836,2.65,5.876L521.811,142.445z
					 M376.401,141.564l-0.545-1.15l4.732-3.3l0.545,1.15L376.401,141.564z M168.745,140.937l-0.569-0.457
					c-1.348-1.097-2.672-2.175-3.972-3.24l0.611-1.098c1.3,1.062,2.624,2.14,3.97,3.236l0.561,0.451L168.745,140.937z
					 M384.451,135.961l-0.543-1.152c1.568-1.083,3.153-2.17,4.758-3.258l0.534,1.158
					C387.597,133.794,386.015,134.879,384.451,135.961z M161.035,134.647l-4.522-3.716l0.615-1.098l4.52,3.716L161.035,134.647z
					 M1.822,133.287l-0.929-0.697c0.955-1.872,1.991-3.732,3.08-5.526l0.882,0.785C3.783,129.617,2.763,131.446,1.822,133.287z
					 M517.074,132.953c-1.081-1.717-2.272-3.373-3.538-4.919l0.775-0.935c1.3,1.588,2.522,3.286,3.632,5.051L517.074,132.953z
					 M392.542,130.469l-0.526-1.163c1.579-1.048,3.184-2.096,4.815-3.14l0.511,1.173
					C395.715,128.38,394.117,129.424,392.542,130.469z M153.348,128.331c-1.537-1.264-3.044-2.499-4.523-3.704l0.611-1.101
					c1.48,1.208,2.988,2.443,4.525,3.707L153.348,128.331z M400.728,125.204l-0.499-1.181c1.6-0.993,3.23-1.982,4.894-2.964
					l0.479,1.191C403.945,123.229,402.321,124.214,400.728,125.204z M510.762,124.936c-0.958-0.98-1.975-1.933-3.023-2.833
					c-0.431-0.37-0.863-0.733-1.3-1.088l0.611-1.101c0.443,0.362,0.885,0.73,1.322,1.106c1.073,0.922,2.114,1.898,3.096,2.903
					L510.762,124.936z M7.182,124.223l-0.844-0.842c1.149-1.695,2.379-3.372,3.652-4.984l0.79,0.917
					C9.526,120.901,8.316,122.554,7.182,124.223z M145.65,122.049c-1.545-1.248-3.06-2.463-4.552-3.645l0.598-1.11
					c1.495,1.183,3.014,2.401,4.561,3.651L145.65,122.049z M409.044,120.254l-0.464-1.201c1.33-0.756,2.684-1.508,4.06-2.254
					l0.925-0.496l0.438,1.215l-0.917,0.491C411.717,118.751,410.37,119.501,409.044,120.254z M503.231,118.566
					c-1.543-1.102-3.149-2.147-4.774-3.106l0.479-1.191c1.651,0.974,3.283,2.035,4.851,3.155L503.231,118.566z M13.472,116.077
					l-0.75-0.963c1.315-1.505,2.705-2.983,4.131-4.396l0.692,1.027C16.14,113.138,14.769,114.595,13.472,116.077z M137.894,115.889
					c-1.559-1.209-3.096-2.381-4.615-3.514l0.573-1.129c1.525,1.136,3.067,2.313,4.632,3.527L137.894,115.889z M417.517,115.747
					l-0.402-1.233c1.676-0.803,3.409-1.576,5.15-2.297l0.355,1.253C420.894,114.187,419.177,114.952,417.517,115.747z M495,113.56
					c-1.648-0.842-3.355-1.626-5.072-2.331l0.35-1.256c1.742,0.715,3.474,1.51,5.147,2.364L495,113.56z M426.24,112.053l-0.32-1.269
					c1.739-0.645,3.517-1.251,5.284-1.8l0.271,1.285C429.724,110.813,427.963,111.413,426.24,112.053z M130.013,109.984
					c-1.61-1.158-3.197-2.263-4.72-3.287l0.53-1.16c1.532,1.031,3.13,2.143,4.747,3.308L130.013,109.984z M486.301,109.858
					c-1.714-0.593-3.485-1.13-5.266-1.596l0.231-1.295c1.804,0.471,3.599,1.015,5.336,1.617L486.301,109.858z M435.177,109.189
					l-0.239-1.295c1.773-0.48,3.584-0.919,5.382-1.305l0.19,1.305C438.728,108.276,436.934,108.712,435.177,109.189z M20.54,108.926
					l-0.65-1.067c1.458-1.307,2.983-2.577,4.527-3.774l0.59,1.116C23.483,106.383,21.98,107.636,20.54,108.926z M477.301,107.389
					c-1.755-0.366-3.565-0.676-5.379-0.922l0.122-1.318c1.835,0.249,3.666,0.563,5.443,0.932L477.301,107.389z M444.269,107.164
					l-0.156-1.313c1.819-0.318,3.652-0.588,5.45-0.8l0.106,1.321C447.888,106.58,446.072,106.847,444.269,107.164z M468.134,106.043
					c-1.787-0.158-3.615-0.259-5.43-0.303l0.021-1.326c1.835,0.044,3.681,0.148,5.488,0.305L468.134,106.043z M453.464,105.997
					l-0.07-1.323c1.832-0.144,3.679-0.233,5.487-0.267l0.017,1.326C457.106,105.767,455.279,105.855,453.464,105.997z
					 M121.941,104.506c-1.648-1.048-3.285-2.037-4.864-2.942l0.468-1.199c1.593,0.913,3.242,1.911,4.904,2.966L121.941,104.506z
					 M28.251,102.817l-0.545-1.15c1.568-1.094,3.2-2.148,4.85-3.131l0.483,1.189C31.41,100.696,29.799,101.738,28.251,102.817z
					 M113.614,99.658c-1.691-0.888-3.384-1.718-5.032-2.466l0.383-1.242c1.664,0.756,3.375,1.594,5.084,2.491L113.614,99.658z
					 M36.483,97.792l-0.438-1.215c1.673-0.884,3.391-1.714,5.106-2.465l0.372,1.248C39.83,96.101,38.133,96.92,36.483,97.792z
					 M104.998,95.657c-1.715-0.69-3.463-1.327-5.196-1.896l0.286-1.279c1.752,0.574,3.52,1.218,5.254,1.916L104.998,95.657z
					 M45.12,93.892l-0.325-1.266c1.74-0.657,3.523-1.253,5.298-1.774l0.256,1.29C48.597,92.655,46.839,93.244,45.12,93.892z
					 M96.118,92.647c-1.747-0.484-3.537-0.919-5.322-1.292l0.186-1.308c1.805,0.378,3.615,0.817,5.38,1.308L96.118,92.647z
					 M54.058,91.16l-0.209-1.303c1.797-0.423,3.622-0.779,5.428-1.057l0.137,1.315C57.632,90.391,55.831,90.742,54.058,91.16z
					 M87.038,90.653c-1.743-0.287-3.56-0.532-5.398-0.728l0.096-1.321c1.856,0.197,3.689,0.444,5.449,0.735L87.038,90.653z
					 M63.187,89.64L63.1,88.32c1.831-0.18,3.679-0.285,5.492-0.313l0.015,1.326C66.817,89.361,64.994,89.464,63.187,89.64z
					 M77.845,89.594c-1.758-0.122-3.586-0.203-5.433-0.243l0.019-1.326c1.861,0.04,3.704,0.123,5.476,0.246L77.845,89.594z"/>
				<path style="fill:#C6C6F7;" d="M493.887,465.707l-0.147-1.313c0.878-0.145,1.778-0.299,2.701-0.461l0.156,1.313
					C495.671,465.408,494.767,465.562,493.887,465.707z"/>
			</g>
			<rect x="32.876" y="70.907" style="fill:#FFFFFF;" width="18.91" height="1.326"/>
			<rect x="51.786" y="81.426" style="fill:#FFFFFF;" width="18.91" height="1.326"/>
			<rect x="459.402" y="153.381" style="fill:#FFFFFF;" width="18.91" height="1.326"/>
			<rect x="447.398" y="163.899" style="fill:#FFFFFF;" width="18.91" height="1.326"/>
			<rect x="476.217" y="158.881" style="fill:#FFFFFF;" width="25.698" height="1.326"/>
			<rect x="464.824" y="369.609" style="fill:#FFFFFF;" width="13.607" height="1.326"/>
			<rect x="452.486" y="359.21" style="fill:#FFFFFF;" width="18.91" height="1.326"/>
			<rect x="90.346" y="24.266" style="fill:#FFFFFF;" width="18.91" height="1.326"/>
			<rect x="28.182" y="334.928" style="fill:#FFFFFF;" width="31.094" height="1.326"/>
			<rect x="65.846" y="334.928" style="fill:#FFFFFF;" width="16.141" height="1.326"/>
			<path style="fill:#FFFFFF;" d="M378.494,280.089c-3.731,0-6.766-3.035-6.766-6.767c0-3.731,3.035-6.766,6.766-6.766
				c3.732,0,6.767,3.035,6.767,6.766C385.261,277.054,382.226,280.089,378.494,280.089z M378.494,267.882
				c-3,0-5.441,2.441-5.441,5.441c0,3,2.441,5.441,5.441,5.441s5.441-2.441,5.441-5.441
				C383.935,270.322,381.494,267.882,378.494,267.882z"/>
			<path style="fill:#FFFFFF;" d="M461.775,50.952c-3.73,0-6.765-3.035-6.765-6.767c0-3.731,3.035-6.766,6.765-6.766
				c3.732,0,6.767,3.035,6.767,6.766C468.542,47.917,465.507,50.952,461.775,50.952z M461.775,38.745
				c-2.999,0-5.439,2.441-5.439,5.441s2.441,5.441,5.439,5.441c3,0,5.441-2.441,5.441-5.441S464.775,38.745,461.775,38.745z"/>
			<path style="fill:#FFFFFF;" d="M390.327,100.6c-3.73,0-6.765-3.035-6.765-6.766c0-3.732,3.035-6.767,6.765-6.767
				c3.732,0,6.767,3.035,6.767,6.767C397.093,97.565,394.058,100.6,390.327,100.6z M390.327,88.393
				c-2.999,0-5.439,2.441-5.439,5.441s2.441,5.441,5.439,5.441c3,0,5.441-2.441,5.441-5.441S393.327,88.393,390.327,88.393z"/>
			<path style="fill:#FFFFFF;" d="M459.402,131.683c-2.04,0-3.7-1.66-3.7-3.699c0-2.039,1.66-3.699,3.7-3.699
				c2.039,0,3.699,1.66,3.699,3.699C463.102,130.023,461.442,131.683,459.402,131.683z M459.402,125.611
				c-1.309,0-2.375,1.064-2.375,2.373c0,1.309,1.066,2.373,2.375,2.373c1.309,0,2.373-1.064,2.373-2.373
				C461.776,126.675,460.712,125.611,459.402,125.611z"/>
			<path style="fill:#FFFFFF;" d="M329.877,358.385c-2.039,0-3.699-1.66-3.699-3.699c0-2.041,1.66-3.701,3.699-3.701
				c2.04,0,3.7,1.66,3.7,3.701C333.578,356.725,331.918,358.385,329.877,358.385z M329.877,352.311
				c-1.309,0-2.373,1.066-2.373,2.375s1.064,2.373,2.373,2.373c1.309,0,2.375-1.064,2.375-2.373S331.186,352.311,329.877,352.311z"
				/>
			<path style="fill:#FFFFFF;" d="M22.449,154.414c-2.039,0-3.699-1.66-3.699-3.699c0-2.039,1.66-3.699,3.699-3.699
				c2.039,0,3.699,1.66,3.699,3.699C26.148,152.755,24.488,154.414,22.449,154.414z M22.449,148.342
				c-1.309,0-2.373,1.064-2.373,2.373c0,1.309,1.064,2.373,2.373,2.373c1.309,0,2.373-1.064,2.373-2.373
				C24.822,149.406,23.758,148.342,22.449,148.342z"/>
			<path style="fill:#FFFFFF;" d="M51.787,374.755c-2.041,0-3.701-1.66-3.701-3.699c0-2.039,1.66-3.699,3.701-3.699
				c2.039,0,3.699,1.66,3.699,3.699C55.486,373.095,53.826,374.755,51.787,374.755z M51.787,368.682
				c-1.309,0-2.375,1.064-2.375,2.373c0,1.309,1.066,2.373,2.375,2.373c1.309,0,2.373-1.064,2.373-2.373
				C54.16,369.746,53.096,368.682,51.787,368.682z"/>
			<path style="fill:#FFFFFF;" d="M72.412,293.513c-2.039,0-3.699-1.66-3.699-3.699s1.66-3.699,3.699-3.699
				c2.039,0,3.699,1.66,3.699,3.699S74.451,293.513,72.412,293.513z M72.412,287.441c-1.309,0-2.373,1.064-2.373,2.373
				c0,1.309,1.064,2.373,2.373,2.373c1.309,0,2.373-1.064,2.373-2.373C74.785,288.505,73.721,287.441,72.412,287.441z"/>
			<g>
				<rect x="39.078" y="17.743" style="fill:#FFFFFF;" width="1.326" height="7.186"/>
				<rect x="36.148" y="20.673" style="fill:#FFFFFF;" width="7.186" height="1.326"/>
			</g>
			<g>
				<rect x="364.319" y="15.126" style="fill:#FFFFFF;" width="1.326" height="7.186"/>
				<rect x="361.389" y="18.056" style="fill:#FFFFFF;" width="7.186" height="1.326"/>
			</g>
			<g>
				<rect x="471.143" y="281.594" style="fill:#FFFFFF;" width="1.326" height="7.186"/>
				<rect x="468.213" y="284.525" style="fill:#FFFFFF;" width="7.186" height="1.326"/>
			</g>
			<g>
				<rect x="446.735" y="82.454" style="fill:#FFFFFF;" width="1.326" height="7.186"/>
				<rect x="443.805" y="85.384" style="fill:#FFFFFF;" width="7.186" height="1.326"/>
			</g>
			<g>
				<rect x="467.55" y="314.517" style="fill:#FFFFFF;" width="1.326" height="7.186"/>
				<rect x="464.62" y="317.447" style="fill:#FFFFFF;" width="7.186" height="1.326"/>
			</g>
			<g>
				<path style="fill:#C6C6F7;" d="M403.939,55.539c2.296-4.04,4.174-8.4,5.527-13.058c1.353-4.657,2.105-9.345,2.331-13.986
					l-12.771-1.768c0.105-4.308-0.385-8.552-1.404-12.636l12.093-4.516c-2.525-9.167-7.18-17.637-13.567-24.681l-10.294,7.789
					c-2.902-3.049-6.222-5.738-9.916-7.958l5.352-11.73c-4.04-2.296-8.4-4.174-13.058-5.527c-4.658-1.353-9.345-2.104-13.986-2.331
					l-1.769,12.771c-4.308-0.105-8.552,0.386-12.636,1.404l-4.516-12.093c-9.167,2.525-17.637,7.181-24.681,13.567l7.79,10.294
					c-3.049,2.902-5.738,6.222-7.958,9.916l-11.73-5.351c-2.296,4.04-4.174,8.4-5.527,13.058c-1.354,4.658-2.104,9.345-2.331,13.986
					l12.771,1.769c-0.105,4.308,0.386,8.552,1.405,12.636l-12.093,4.516c2.525,9.167,7.181,17.637,13.567,24.681l10.293-7.789
					c2.902,3.049,6.222,5.738,9.916,7.958l-5.351,11.73c4.04,2.296,8.4,4.174,13.057,5.528c4.658,1.353,9.345,2.104,13.987,2.331
					l1.768-12.771c4.309,0.105,8.552-0.385,12.636-1.405l4.516,12.093c9.167-2.525,17.637-7.181,24.681-13.567l-7.789-10.293
					c3.049-2.902,5.738-6.222,7.958-9.916L403.939,55.539z M342.819,54.924c-16.2-4.707-25.516-21.656-20.809-37.855
					c4.707-16.2,21.656-25.516,37.855-20.808c16.2,4.707,25.516,21.656,20.808,37.855C375.966,50.315,359.018,59.631,342.819,54.924
					z M345.057,47.222c-11.946-3.471-18.816-15.969-15.345-27.916c3.471-11.946,15.97-18.816,27.916-15.345
					c11.946,3.471,18.816,15.969,15.345,27.915S357.003,50.693,345.057,47.222z"/>
			</g>
			<g>
				<path style="fill:#C6C6F7;" d="M466.963,186.319c-0.2-2.286-0.659-4.584-1.415-6.857c-0.756-2.272-1.765-4.388-2.975-6.338
					l-5.686,2.863c-1.165-1.78-2.555-3.367-4.115-4.741l3.648-5.227c-3.597-3.017-7.864-5.154-12.435-6.226l-1.999,6.052
					c-2.034-0.425-4.138-0.587-6.261-0.453l-1.115-6.268c-2.286,0.2-4.584,0.659-6.857,1.415c-2.273,0.756-4.388,1.765-6.338,2.975
					l2.863,5.686c-1.78,1.165-3.367,2.555-4.742,4.114l-5.226-3.648c-3.017,3.597-5.154,7.864-6.226,12.435l6.052,1.999
					c-0.425,2.034-0.587,4.138-0.453,6.261l-6.268,1.115c0.2,2.286,0.659,4.584,1.415,6.857c0.756,2.272,1.765,4.388,2.975,6.338
					l5.686-2.863c1.165,1.78,2.555,3.367,4.114,4.741l-3.648,5.226c3.597,3.017,7.864,5.154,12.435,6.226l1.999-6.052
					c2.035,0.425,4.138,0.587,6.261,0.454l1.115,6.268c2.286-0.2,4.584-0.659,6.857-1.415c2.272-0.756,4.388-1.765,6.338-2.975
					l-2.863-5.686c1.781-1.165,3.368-2.555,4.742-4.114l5.226,3.648c3.017-3.597,5.154-7.864,6.226-12.435l-6.052-1.999
					c0.425-2.034,0.587-4.138,0.453-6.261L466.963,186.319z M441.197,200.941c-6.651,2.213-13.837-1.385-16.05-8.036
					c-2.213-6.651,1.385-13.837,8.036-16.05c6.651-2.213,13.837,1.385,16.05,8.036C451.445,191.542,447.848,198.728,441.197,200.941
					z"/>
			</g>
			<g>
				<path style="fill:#C6C6F7;" d="M130.878,166.198c-0.306-3.498-1.009-7.016-2.166-10.494c-1.157-3.478-2.702-6.716-4.553-9.7
					l-8.703,4.381c-1.784-2.725-3.91-5.154-6.297-7.257l5.583-7.999c-5.505-4.618-12.036-7.888-19.032-9.529l-3.059,9.263
					c-3.114-0.651-6.333-0.898-9.583-0.694l-1.706-9.593c-3.499,0.306-7.016,1.009-10.494,2.166c-3.478,1.157-6.716,2.702-9.7,4.553
					l4.381,8.703c-2.725,1.783-5.154,3.91-7.257,6.297l-7.999-5.583c-4.618,5.505-7.888,12.036-9.528,19.032l9.263,3.059
					c-0.651,3.114-0.899,6.333-0.694,9.583l-9.593,1.706c0.306,3.498,1.009,7.016,2.166,10.494c1.157,3.478,2.702,6.716,4.553,9.7
					l8.702-4.381c1.784,2.725,3.91,5.154,6.297,7.257l-5.583,7.999c5.505,4.618,12.036,7.888,19.031,9.529l3.059-9.263
					c3.114,0.651,6.333,0.898,9.583,0.694l1.706,9.593c3.498-0.306,7.016-1.009,10.494-2.166c3.478-1.157,6.716-2.702,9.7-4.553
					l-4.382-8.703c2.725-1.784,5.154-3.911,7.257-6.297l7.999,5.583c4.618-5.504,7.888-12.036,9.529-19.031l-9.263-3.059
					c0.651-3.114,0.898-6.333,0.694-9.583L130.878,166.198z M91.442,188.577c-10.179,3.387-21.177-2.119-24.564-12.299
					c-3.387-10.179,2.119-21.177,12.299-24.564c10.179-3.387,21.177,2.119,24.564,12.298
					C107.128,174.192,101.622,185.189,91.442,188.577z"/>
			</g>
			<g>
				<path style="fill:#C6C6F7;" d="M43.693,238.676c1.301-2.288,2.365-4.758,3.131-7.397c0.767-2.638,1.192-5.294,1.321-7.923
					l-7.235-1.002c0.06-2.441-0.219-4.845-0.796-7.158l6.85-2.558c-1.43-5.193-4.068-9.991-7.685-13.981l-5.831,4.412
					c-1.644-1.727-3.524-3.25-5.617-4.508l3.031-6.645c-2.289-1.301-4.758-2.364-7.397-3.131c-2.639-0.767-5.294-1.192-7.923-1.32
					l-1.002,7.235c-2.441-0.06-4.844,0.218-7.158,0.796l-2.558-6.85c-5.193,1.43-9.991,4.068-13.981,7.685l4.413,5.831
					c-1.727,1.644-3.25,3.525-4.508,5.617l-6.645-3.031c-1.301,2.289-2.365,4.758-3.131,7.397c-0.767,2.639-1.192,5.294-1.32,7.923
					l7.235,1.002c-0.06,2.44,0.218,4.844,0.796,7.158l-6.85,2.558c1.43,5.193,4.068,9.991,7.685,13.981l5.831-4.413
					c1.644,1.727,3.525,3.251,5.617,4.508l-3.031,6.645c2.289,1.301,4.758,2.365,7.397,3.131c2.638,0.767,5.294,1.192,7.923,1.321
					l1.002-7.235c2.441,0.06,4.845-0.218,7.158-0.796l2.558,6.85c5.193-1.43,9.991-4.068,13.981-7.685l-4.412-5.831
					c1.727-1.644,3.25-3.525,4.508-5.617L43.693,238.676z M9.07,238.327c-9.177-2.666-14.454-12.268-11.787-21.444
					c2.667-9.177,12.267-14.454,21.444-11.788c9.177,2.667,14.454,12.268,11.787,21.444C27.847,235.717,18.246,240.994,9.07,238.327
					z M10.338,233.964c-6.767-1.967-10.659-9.047-8.692-15.814c1.966-6.767,9.046-10.659,15.814-8.692
					c6.767,1.967,10.659,9.046,8.692,15.814C24.185,232.039,17.105,235.931,10.338,233.964z"/>
			</g>
		</g>
		<g style="clip-path:url(#SVGID_00000023984976786192936240000005890390348436745624_);">
			<g style="opacity:0.61;">
				<path style="fill:#FFFFFF;" d="M12.608,423.983c2.371-12.081,20.154-24.112,32.135-21.282
					c3.462-13.748,22.183-20.881,33.915-12.921c3.825-14.62,8.579-30.575,21.252-38.807c14.434-9.377,34.548-4.789,47.865,6.116
					c13.317,10.905,21.393,26.776,29.095,42.169c1.215-3.88,6.701-4.879,10.241-2.88c3.54,1.999,5.533,5.866,7.26,9.546
					c19.319-9.586,33.066-29.579,35.101-51.049l35.917-7.602c3.447,14.807,7.383,30.5,18.374,41.005
					c10.991,10.504,31.519,12.409,40.048-0.176c1.89-2.789,3.269-6.258,6.313-7.699c5.983-2.833,11.721,4.184,14.666,10.113
					c5.308-10.382,22.029-12.08,29.315-2.978c6.033-20.66,28.169-35.292,49.541-32.746c21.371,2.546,39.451,21.969,40.461,43.468
					c14.14-5.436,37.832,10.054,42.031,24.609"/>
			</g>
			<g style="opacity:0.79;">
				<path style="fill:#FFFFFF;" d="M231.909,363.748c-1.315,2.965-2.12,6.155-2.367,9.389c-0.037,0.489-0.059,0.998,0.123,1.453
					c0.428,1.07,1.86,1.425,2.951,1.053c1.091-0.372,1.913-1.26,2.686-2.115c0.576,11.012,5.829,21.702,14.195,28.886
					c0.416,0.358,0.905,0.728,1.451,0.672c0.453-0.047,0.818-0.377,1.142-0.695c7.896-7.764,12.114-19.12,11.2-30.156
					c1.949,1.269,4.655-0.864,4.836-3.182c0.181-2.318-1.216-4.431-2.552-6.335"/>
			</g>
			<g>
				<path style="fill:#1A004C;" d="M274.971,344.674l0-0.065v-17.564H223.83v17.564v-0.065c-6.699,4.349-9.947,11.946-9.947,20.528
					l0,0h71.036l0,0C284.919,356.49,281.671,349.022,274.971,344.674z"/>
				<path style="fill:#120036;" d="M240.504,331.26c11.197,4.577,34.467,13.349,34.467,13.349v-17.564h-44.814
					C233.573,328.522,237.065,329.854,240.504,331.26z"/>
				<g>
					<path style="fill:#552D7F;" d="M295.971,261.353l19.336,22.628c4.702,5.503,6.858,12.738,5.934,19.917l-5.261,40.872
						c-0.37,2.873-3.065,4.855-5.917,4.352l0,0c-2.527-0.446-4.324-2.707-4.187-5.27l0.984-18.444
						c0.604-11.33-7.166-21.399-18.279-23.687l0,0L295.971,261.353z"/>
					<path style="fill:#552D7F;" d="M204.029,261.353l-19.336,22.628c-4.702,5.503-6.858,12.738-5.934,19.917l5.261,40.872
						c0.37,2.873,3.065,4.855,5.917,4.352l0,0c2.527-0.446,4.324-2.707,4.187-5.27l-0.984-18.444
						c-0.604-11.33,7.166-21.399,18.279-23.687l0,0L204.029,261.353z"/>
				</g>
				<g style="opacity:0.6;">
					<path style="fill:#552D7F;" d="M308.331,275.817l-12.36-14.464l-7.391,40.366l0,0c2.187,0.45,4.237,1.211,6.127,2.214
						C299.071,294.475,303.566,285.081,308.331,275.817z"/>
					<path style="fill:#552D7F;" d="M193.677,287.234c4.203,5.424,8.503,10.771,12.784,16.134c1.562-0.718,3.213-1.29,4.959-1.649
						l0,0l-7.391-40.366l-15.615,18.273C190.353,282.312,192.082,285.175,193.677,287.234z"/>
				</g>
				<path style="fill:#FFFFFF;" d="M213.533,321.049c0,0-11.939-30.701-11.371-63.108c0.569-32.407-7.391-104.042,15.351-150.662
					c13.567-27.812,22.075-39.235,26.732-43.925c2.107-2.122,5.602-1.867,7.391,0.53c7.146,9.576,25.567,34.738,30.122,45.669
					c5.685,13.645,18.762,39.798,14.213,151.799c0,0-2.274,41.503-10.234,59.696H213.533z"/>
				<path style="opacity:0.23;fill:#9994FF;" d="M214.23,144.143c3.312-22.261,8.72-45.337,22.134-63.863
					c0.563-0.777,1.222-1.353,1.932-1.761c3.394-5.517,6.909-10.965,10.265-16.506c-1.512-0.268-3.131,0.148-4.315,1.34
					c-4.657,4.69-13.165,16.112-26.732,43.925c-22.742,46.62-14.782,118.256-15.351,150.662
					c-0.568,32.406,11.371,63.108,11.371,63.108l72.803-0.332c-70.9-0.775-76.633-64.363-77.567-99.554
					C208.086,195.451,210.448,169.563,214.23,144.143z"/>
				<path style="fill:#552D7F;" d="M272.55,107.872c3.08,0.486,6.154,1.058,9.216,1.7c-0.003-0.006-0.005-0.013-0.008-0.019
					c-4.555-10.931-22.975-36.093-30.122-45.669c-1.789-2.397-5.284-2.652-7.391-0.53c-4.657,4.69-13.165,16.112-26.732,43.925
					c-0.291,0.596-0.555,1.213-0.836,1.817C234.855,104.564,254.118,104.966,272.55,107.872z"/>
				<path style="opacity:0.6;fill:#552D7F;" d="M236.833,86.786c5.381-7.111,10.399-14.476,15.787-21.581
					c-0.345-0.464-0.678-0.912-0.984-1.321c-1.789-2.397-5.284-2.652-7.391-0.53c-4.657,4.69-13.165,16.112-26.732,43.925
					c-0.291,0.596-0.555,1.213-0.836,1.817c2.566-0.64,5.154-1.171,7.758-1.621C227.301,99.946,231.96,93.227,236.833,86.786z"/>
				<path style="fill:#1A004C;" d="M283.236,330.403h-66.638c-2.996,0-5.424-2.428-5.424-5.424l0,0c0-2.996,2.428-5.424,5.424-5.424
					h66.638c2.996,0,5.424,2.428,5.424,5.424l0,0C288.66,327.975,286.232,330.403,283.236,330.403z"/>
				<path style="fill:#1A004C;" d="M248.367,132.813c-15.834,0-28.67,12.836-28.67,28.67c0,15.834,12.836,28.67,28.67,28.67
					s28.67-12.836,28.67-28.67C277.038,145.648,264.201,132.813,248.367,132.813z M248.367,181.801
					c-11.222,0-20.319-9.097-20.319-20.319c0-11.222,9.097-20.319,20.319-20.319c11.222,0,20.319,9.097,20.319,20.319
					C268.687,172.704,259.589,181.801,248.367,181.801z"/>
				
					<ellipse transform="matrix(0.9869 -0.1612 0.1612 0.9869 -22.783 42.1493)" style="opacity:0.37;fill:#969FE2;" cx="248.367" cy="161.483" rx="20.319" ry="20.319"/>
				<g style="opacity:0.6;">
					<path style="fill:#FAF9F4;" d="M228.12,162.899c0.73,10.558,9.504,18.903,20.247,18.903c1.678,0,3.299-0.226,4.859-0.609
						C244.776,175.21,236.408,169.109,228.12,162.899z"/>
					<path style="fill:#FAF9F4;" d="M263.903,174.565c2.981-3.536,4.784-8.096,4.784-13.083c0-11.222-9.097-20.319-20.319-20.319
						c-7.266,0-13.623,3.826-17.215,9.561C241.928,158.867,252.837,166.828,263.903,174.565z"/>
				</g>
				<g>
					<g>
						<path style="fill:#7768FF;" d="M248.367,139.157c-1.148,0-2.082-0.934-2.082-2.083c0-1.148,0.934-2.083,2.082-2.083
							c1.148,0,2.082,0.934,2.082,2.083C250.45,138.223,249.516,139.157,248.367,139.157z M248.367,135.283
							c-0.988,0-1.791,0.804-1.791,1.792c0,0.988,0.803,1.792,1.791,1.792s1.791-0.804,1.791-1.792
							C250.159,136.086,249.355,135.283,248.367,135.283z"/>
						<path style="fill:#7768FF;" d="M248.367,187.973c-1.148,0-2.082-0.934-2.082-2.082s0.934-2.083,2.082-2.083
							c1.148,0,2.082,0.935,2.082,2.083S249.516,187.973,248.367,187.973z M248.367,184.099c-0.988,0-1.791,0.804-1.791,1.792
							c0,0.988,0.803,1.791,1.791,1.791s1.791-0.804,1.791-1.791C250.159,184.903,249.355,184.099,248.367,184.099z"/>
					</g>
					<g>
						<path style="fill:#7768FF;" d="M265.627,146.306c-0.556,0-1.08-0.217-1.473-0.61c-0.812-0.812-0.812-2.133,0-2.946
							c0.393-0.393,0.917-0.61,1.473-0.61c0.556,0,1.079,0.217,1.472,0.61c0.812,0.812,0.812,2.133,0,2.946l0,0l0,0l0,0
							C266.706,146.089,266.183,146.306,265.627,146.306z M265.627,142.432c-0.479,0-0.928,0.186-1.267,0.525
							c-0.698,0.699-0.698,1.835,0,2.534c0.339,0.339,0.788,0.525,1.267,0.525c0.478,0,0.928-0.186,1.266-0.525l0,0
							c0.699-0.699,0.699-1.835,0-2.534C266.555,142.618,266.105,142.432,265.627,142.432z"/>
						<path style="fill:#7768FF;" d="M231.109,180.824c-0.534,0-1.067-0.203-1.473-0.609c-0.812-0.812-0.812-2.133,0-2.946
							c0.811-0.812,2.133-0.813,2.945,0c0.812,0.812,0.812,2.133,0,2.946C232.175,180.621,231.642,180.824,231.109,180.824z
							 M231.108,176.951c-0.458,0-0.917,0.175-1.266,0.524c-0.699,0.699-0.699,1.835,0,2.534c0.699,0.699,1.835,0.698,2.533,0
							c0.699-0.699,0.699-1.835,0-2.534C232.026,177.126,231.567,176.951,231.108,176.951z"/>
					</g>
					<g>
						<path style="fill:#7768FF;" d="M272.775,163.565c-1.148,0-2.082-0.934-2.082-2.083c0-1.148,0.934-2.083,2.082-2.083
							c1.148,0,2.083,0.934,2.083,2.083C274.859,162.631,273.924,163.565,272.775,163.565z M272.775,159.691
							c-0.988,0-1.791,0.804-1.791,1.792c0,0.988,0.803,1.792,1.791,1.792s1.792-0.804,1.792-1.792
							C274.567,160.495,273.763,159.691,272.775,159.691z"/>
						<path style="fill:#7768FF;" d="M223.959,163.565c-1.148,0-2.083-0.934-2.083-2.083c0-1.148,0.935-2.083,2.083-2.083
							c1.148,0,2.082,0.934,2.082,2.083C226.042,162.631,225.108,163.565,223.959,163.565z M223.959,159.691
							c-0.988,0-1.792,0.804-1.792,1.792c0,0.988,0.804,1.792,1.792,1.792c0.988,0,1.791-0.804,1.791-1.792
							C225.751,160.495,224.947,159.691,223.959,159.691z"/>
					</g>
					<g>
						<path style="fill:#7768FF;" d="M265.627,180.825c-0.556,0-1.08-0.217-1.473-0.61c-0.812-0.812-0.812-2.133,0-2.946
							c0.393-0.393,0.917-0.61,1.473-0.61c0.556,0,1.079,0.217,1.472,0.61c0.812,0.812,0.812,2.133,0,2.946
							C266.706,180.608,266.183,180.825,265.627,180.825z M265.627,176.95c-0.479,0-0.928,0.186-1.267,0.525
							c-0.698,0.699-0.698,1.835,0,2.534c0.339,0.339,0.788,0.525,1.267,0.525c0.478,0,0.928-0.186,1.266-0.525
							c0.699-0.699,0.699-1.835,0-2.534C266.555,177.137,266.105,176.95,265.627,176.95z"/>
						<path style="fill:#7768FF;" d="M231.109,146.305c-0.534,0-1.067-0.203-1.473-0.609c-0.812-0.812-0.812-2.133,0-2.946
							c0.811-0.811,2.133-0.813,2.945,0c0.812,0.812,0.812,2.133,0,2.946C232.175,146.102,231.642,146.305,231.109,146.305z
							 M231.108,142.433c-0.458,0-0.917,0.175-1.266,0.524c-0.699,0.699-0.699,1.835,0,2.534c0.699,0.699,1.835,0.698,2.533,0
							c0.699-0.699,0.699-1.835,0-2.534C232.026,142.607,231.567,142.433,231.108,142.433z"/>
					</g>
				</g>
				<path style="fill:#7768FF;" d="M201.969,202.827l-0.186-0.552c0.015-0.005,1.636-0.552,4.493-1.335l0.154,0.562
					C203.591,202.279,201.985,202.821,201.969,202.827z M294.765,202.051c-0.382-0.131-0.764-0.26-1.146-0.388l0.183-0.553
					c0.385,0.128,0.769,0.258,1.152,0.39L294.765,202.051z M210.938,200.341l-0.137-0.566c1.479-0.357,3.012-0.705,4.556-1.033
					l0.121,0.57C213.94,199.64,212.412,199.986,210.938,200.341z M289.182,200.29c-1.469-0.422-2.98-0.823-4.491-1.192l0.137-0.566
					c1.519,0.371,3.038,0.774,4.514,1.197L289.182,200.29z M220.044,198.403l-0.106-0.573c1.528-0.284,3.076-0.551,4.602-0.795
					l0.092,0.575C223.11,197.854,221.567,198.121,220.044,198.403z M280.155,198.083c-1.498-0.306-3.036-0.59-4.57-0.844
					l0.095-0.575c1.542,0.256,3.087,0.541,4.592,0.848L280.155,198.083z M229.237,196.935l-0.077-0.577
					c1.536-0.206,3.096-0.394,4.636-0.56l0.062,0.579C232.323,196.542,230.768,196.73,229.237,196.935z M270.988,196.56
					c-1.521-0.197-3.075-0.372-4.62-0.52l0.056-0.58c1.552,0.148,3.112,0.324,4.639,0.522L270.988,196.56z M238.492,195.938
					l-0.048-0.581c1.544-0.126,3.111-0.232,4.66-0.317l0.031,0.582C241.594,195.706,240.03,195.813,238.492,195.938z
					 M261.733,195.673c-1.532-0.096-3.095-0.171-4.646-0.22l0.018-0.582c1.557,0.05,3.126,0.124,4.664,0.221L261.733,195.673z
					 M247.784,195.433l-0.015-0.582c1.449-0.038,2.912-0.058,4.346-0.058l0.321,0l-0.002,0.582l-0.32-0.001
					C250.686,195.375,249.229,195.394,247.784,195.433z"/>
				<path style="fill:#7768FF;" d="M207.823,132.939l-0.149-0.563c1.464-0.385,2.989-0.763,4.534-1.121l0.132,0.568
					C210.801,132.179,209.281,132.555,207.823,132.939z M286.084,131.259c-1.48-0.381-3.003-0.741-4.523-1.069l0.123-0.569
					c1.529,0.33,3.057,0.692,4.546,1.074L286.084,131.259z M216.887,130.831l-0.116-0.571c1.508-0.308,3.052-0.602,4.586-0.875
					l0.101,0.573C219.929,130.23,218.391,130.523,216.887,130.831z M276.998,129.293c-1.504-0.267-3.048-0.512-4.592-0.73
					l0.082-0.577c1.549,0.218,3.101,0.465,4.611,0.733L276.998,129.293z M226.05,129.202l-0.087-0.576
					c1.533-0.233,3.089-0.449,4.624-0.642l0.074,0.578C229.129,128.755,227.579,128.97,226.05,129.202z M235.284,128.041
					l-0.057-0.58c1.542-0.154,3.107-0.289,4.651-0.402l0.043,0.581C238.382,127.752,236.822,127.887,235.284,128.041z
					 M267.793,127.995c-1.524-0.161-3.082-0.3-4.633-0.413l0.042-0.581c1.557,0.113,3.122,0.253,4.651,0.415L267.793,127.995z
					 M244.564,127.362l-0.026-0.581c1.558-0.072,3.128-0.122,4.666-0.15l0.01,0.582C247.681,127.24,246.117,127.291,244.564,127.362
					z M258.517,127.317c-1.53-0.063-3.094-0.104-4.649-0.121l0.007-0.582c1.561,0.017,3.13,0.058,4.667,0.121L258.517,127.317z"/>
				<path style="fill:#7768FF;" d="M201.969,214.449l-0.186-0.552c0.015-0.005,1.636-0.552,4.493-1.335l0.154,0.562
					C203.591,213.902,201.985,214.444,201.969,214.449z M294.765,213.674c-0.381-0.131-0.763-0.261-1.145-0.388l0.183-0.553
					c0.385,0.128,0.769,0.258,1.152,0.39L294.765,213.674z M210.938,211.965l-0.137-0.566c1.479-0.357,3.012-0.705,4.556-1.033
					l0.121,0.57C213.94,211.263,212.412,211.609,210.938,211.965z M289.181,211.912c-1.469-0.422-2.98-0.823-4.491-1.192
					l0.137-0.566c1.519,0.371,3.038,0.774,4.514,1.197L289.181,211.912z M220.044,210.027l-0.106-0.573
					c1.528-0.284,3.076-0.551,4.602-0.795l0.092,0.575C223.11,209.477,221.567,209.744,220.044,210.027z M280.156,209.706
					c-1.498-0.305-3.036-0.59-4.57-0.844l0.095-0.575c1.542,0.256,3.087,0.541,4.592,0.848L280.156,209.706z M229.237,208.558
					l-0.077-0.577c1.536-0.206,3.096-0.394,4.636-0.56l0.062,0.579C232.323,208.165,230.768,208.353,229.237,208.558z
					 M270.988,208.182c-1.521-0.197-3.074-0.372-4.62-0.52l0.056-0.58c1.552,0.148,3.112,0.324,4.639,0.522L270.988,208.182z
					 M238.491,207.561l-0.047-0.581c1.559-0.127,3.127-0.234,4.66-0.317l0.031,0.582
					C241.607,207.328,240.044,207.434,238.491,207.561z M261.734,207.296c-1.532-0.096-3.095-0.171-4.646-0.22l0.018-0.582
					c1.557,0.05,3.126,0.124,4.664,0.221L261.734,207.296z M247.784,207.055l-0.015-0.582c1.45-0.038,2.913-0.058,4.349-0.058
					l0.32,0l-0.002,0.582l-0.318,0C250.688,206.997,249.23,207.017,247.784,207.055z"/>
			</g>
			<g>
				<path style="opacity:0.79;fill:#FFFFFF;" d="M267.886,377.719c1.121,3.941,2.743,7.675,4.861,11.09
					c2.125,3.404,4.716,6.505,7.744,9.105c3.008,2.622,6.448,4.743,10.121,6.358c3.682,1.606,7.61,2.677,11.67,3.225
					c-4.101,0.151-8.257-0.579-12.156-2.012c-3.909-1.422-7.56-3.58-10.73-6.306c-3.15-2.748-5.808-6.053-7.775-9.718
					C269.644,385.806,268.326,381.798,267.886,377.719z"/>
				<path style="opacity:0.79;fill:#FFFFFF;" d="M232.682,381.658c-0.422,3.651-1.485,7.241-3.01,10.62
					c-1.516,3.389-3.525,6.557-5.88,9.436c-2.379,2.859-5.109,5.433-8.148,7.564c-3.029,2.138-6.353,3.862-9.859,4.966
					c3.229-1.746,6.268-3.737,9.071-6.009c2.793-2.279,5.37-4.808,7.646-7.587c2.299-2.76,4.294-5.77,6.003-8.944
					C230.203,388.522,231.581,385.16,232.682,381.658z"/>
				<path style="opacity:0.79;fill:#FFFFFF;" d="M235.985,401.148c-0.247,1.269-0.642,2.464-1.089,3.633
					c-0.447,1.169-0.946,2.312-1.505,3.426c-0.553,1.116-1.17,2.2-1.835,3.26c-0.667,1.059-1.387,2.092-2.256,3.05
					c0.245-1.27,0.639-2.466,1.087-3.634c0.448-1.168,0.946-2.312,1.507-3.424c0.556-1.115,1.171-2.2,1.838-3.259
					C234.399,403.14,235.118,402.107,235.985,401.148z"/>
				<path style="opacity:0.79;fill:#FFFFFF;" d="M251.014,409.501c0.437,0.5,0.701,1.029,0.925,1.564
					c0.214,0.537,0.363,1.085,0.456,1.642c0.094,0.557,0.13,1.123,0.101,1.701c-0.038,0.579-0.118,1.165-0.372,1.779
					c-0.439-0.5-0.704-1.028-0.927-1.563c-0.214-0.537-0.363-1.085-0.454-1.642c-0.092-0.557-0.128-1.124-0.099-1.701
					C250.684,410.701,250.762,410.115,251.014,409.501z"/>
				<path style="opacity:0.79;fill:#FFFFFF;" d="M262.238,400.561l2.236,3.602c0.747,1.168,1.528,2.297,2.34,3.403
					c0.817,1.102,1.66,2.185,2.554,3.245l2.771,3.208c-1.353-0.545-2.58-1.348-3.693-2.281c-1.113-0.935-2.121-2.003-2.981-3.18
					c-0.865-1.173-1.586-2.453-2.146-3.794C262.759,403.424,262.358,402.014,262.238,400.561z"/>
			</g>
		</g>
		<g style="clip-path:url(#SVGID_00000023984976786192936240000005890390348436745624_);">
			<g>
				<path style="fill:#FF9783;" d="M166.837,246.12l-6.066,11.52c0,0-4.138,0-9.848-2.819c-5.669-2.799-7.32-6.654-7.32-6.654
					l10.255-13.567"/>
				<path style="fill:#FF9783;" d="M179.734,224.361c5.641,3.324-3.676,24.375-8.768,25.708
					c-5.091,1.332-15.199-8.615-18.212-17.042c-3.013-8.428,6.681-13.036,12.38-14.749
					C170.834,216.565,179.734,224.361,179.734,224.361z"/>
				<path style="fill:#182B6D;" d="M175.55,234.565c-0.096,0.168-0.188,0.337-0.277,0.509c-0.089,0.172-0.181,0.342-0.259,0.52
					c-0.042,0.095-0.066,0.182-0.037,0.287c0.024,0.086,0.09,0.18,0.171,0.222c0.169,0.089,0.415,0.052,0.509-0.133
					c0.089-0.177,0.162-0.361,0.239-0.543c0.086-0.203,0.169-0.406,0.246-0.612c0.027-0.072,0.008-0.186-0.033-0.25
					c-0.039-0.06-0.089-0.105-0.155-0.133C175.808,234.371,175.63,234.424,175.55,234.565L175.55,234.565z"/>
				<path style="fill:#182B6D;" d="M178.675,232.984c-0.151,0-0.299-0.072-0.39-0.207c-0.052-0.072-1.144-1.586-4.013-1.006
					c-0.25,0.049-0.503-0.115-0.555-0.371c-0.05-0.255,0.115-0.503,0.371-0.555c3.518-0.701,4.921,1.319,4.979,1.406
					c0.145,0.216,0.087,0.509-0.13,0.653C178.856,232.958,178.765,232.984,178.675,232.984z"/>
				<path style="fill:#FFFFFF;" d="M170.59,242.756l3.59,2.563c0,0-1.404,2.714-2.685,1.658
					C170.213,245.922,170.59,242.756,170.59,242.756z"/>
				<g>
					<path style="fill:#262739;" d="M184.801,228.973c-2.562-0.825-5.378-2.385-7.319-3.359c-2.592,0.536-5.286,2.968-5.356,5.723
						c-0.016,0.62-0.078,1.463-0.693,1.549c-0.424,0.059-0.773-0.355-0.892-0.766c-0.119-0.411-0.103-0.859-0.272-1.252
						c-0.342-0.798-1.393-1.118-2.214-0.836c-0.821,0.282-1.411,1.025-1.746,1.825c-0.857,2.047-1.622,4.524,0.333,6.241
						c0.304,0.267,0.66,0.497,0.855,0.852c0.424,0.769-0.077,1.704-0.578,2.426c-1.554,2.234-3.891,4.744-8.477,4.744
						c-3.223,0-8.578-4.251-8.932-6.375c-0.032-0.189-3.117-13.203,2.608-21.48c3.071-4.44,8.477-7.674,14.115-7.202
						c3.482,0.292,6.521,2.343,8.228,3.671C183.864,216.462,185.88,226.151,184.801,228.973z"/>
				</g>
				<path style="fill:#FF9783;" d="M179.371,236.657c0,0,0.831,6.311-0.413,7.002c-1.244,0.69-3.869-1.107-3.869-1.107"/>
			</g>
			<g>
				<g>
					<g>
						<g>
							<path style="fill:#FF9783;" d="M181.96,407.533l-4.601,29.712l-0.24,8.947l35.081-0.179c0.856-0.004,1.547-0.703,1.542-1.559
								l0,0c-0.003-0.642-0.401-1.215-1.001-1.442l-15.13-6.957l5.984-30.864"/>
							<path style="fill:#7768FF;" d="M215.278,445.636c-0.358-1.124-1.017-2.386-1.68-2.672l-16.042-6.909
								c-8.842,3.584-20.288,0.845-20.288,0.845l-2.042,12.078c0.002,0.4,0.328,0.722,0.728,0.72l39.056-0.2
								C215.795,449.494,215.289,445.671,215.278,445.636z"/>
							<path style="fill:#2F3470;" d="M199.196,440.738l-0.861-0.385c0.617-1.381,1.398-2.691,2.318-3.893l0.749,0.574
								C200.525,438.176,199.783,439.422,199.196,440.738z"/>
							<path style="fill:#2F3470;" d="M201.615,441.382l-0.854-0.398c0.542-1.167,0.925-1.951,1.905-3.306l0.763,0.552
								C202.5,439.515,202.134,440.265,201.615,441.382z"/>
							<path style="fill:#2F3470;" d="M203.428,442.018l-0.834-0.437c0.441-0.842,1.106-2.115,1.783-3.026l0.756,0.562
								C204.499,439.968,203.855,441.202,203.428,442.018z"/>
						</g>
						
							<rect x="175.431" y="446.517" transform="matrix(1 -0.0052 0.0052 1 -2.3212 1.0221)" style="fill:#2F3470;" width="40.012" height="0.943"/>
						<path style="fill:#2F3470;" d="M186.285,447.103c-0.744-5.206-9.661-5.448-9.752-5.449l0.02-0.942
							c0.4,0.008,9.809,0.269,10.665,6.259L186.285,447.103z"/>
						<path style="fill:#2F3470;" d="M207.658,447.065l-0.903-0.273c0.528-1.751,3.061-5.362,3.169-5.515l0.771,0.542
							C210.669,441.856,208.142,445.459,207.658,447.065z"/>
					</g>
				</g>
				<g>
					<g>
						<g>
							<path style="fill:#FF9783;" d="M73.066,415.319l-29.27-3.487l-8.947-0.24l0.179,35.081c0.005,0.856,0.703,1.547,1.559,1.542
								l0,0c0.642-0.004,1.215-0.401,1.442-1.001l6.957-15.13l30.334,3.416"/>
							<path style="fill:#7768FF;" d="M35.406,449.751c1.124-0.358,2.386-1.017,2.672-1.68l6.909-16.042
								c-3.584-8.842-0.845-20.288-0.845-20.288l-12.078-2.042c-0.4,0.002-0.722,0.328-0.72,0.728l0.2,39.056
								C31.547,450.268,35.37,449.762,35.406,449.751z"/>
							<path style="fill:#2F3470;" d="M44.007,435.875c-1.143-0.876-2.388-1.619-3.702-2.205l0.385-0.862
								c1.381,0.619,2.69,1.398,3.892,2.318L44.007,435.875z"/>
							<path style="fill:#2F3470;" d="M42.811,437.903c-1.285-0.929-2.035-1.295-3.152-1.814l0.398-0.854
								c1.167,0.542,1.951,0.925,3.306,1.905L42.811,437.903z"/>
							<path style="fill:#2F3470;" d="M41.925,439.606c-0.848-0.631-2.084-1.276-2.901-1.705l0.437-0.835
								c0.844,0.441,2.12,1.108,3.026,1.783L41.925,439.606z"/>
						</g>
						
							<rect x="33.581" y="409.904" transform="matrix(1 -0.0051 0.0051 1 -2.2011 0.18)" style="fill:#2F3470;" width="0.943" height="40.012"/>
						<path style="fill:#2F3470;" d="M34.07,421.691l-0.132-0.933c5.206-0.744,5.448-9.661,5.449-9.752l0.942,0.02
							C40.321,411.426,40.06,420.836,34.07,421.691z"/>
						<path style="fill:#2F3470;" d="M39.221,445.168c-0.036-0.026-3.639-2.553-5.245-3.036l0.272-0.903
							c1.751,0.528,5.362,3.061,5.515,3.169L39.221,445.168z"/>
					</g>
				</g>
				<path style="fill:#242645;" d="M90.477,333.762c-6.29,16.817,3.976,41.231,3.976,41.231l5.41,39.325l-51.325-2.26l0.508,34.135
					c0,0,55.054,3.917,68.37,3.917c13.316,0,18.463-2.98,22.372-10.782c5.823-11.625-2.546-75.89-2.546-76.955l-9.137-41.281"/>
				
					<rect x="54.42" y="412.327" transform="matrix(0.9999 -0.0113 0.0113 0.9999 -4.8389 0.6462)" style="fill:#2F3470;" width="0.943" height="34.287"/>
				<path style="fill:#242645;" d="M108.28,342.854c0,0-5.826,29.775,23.751,36.173c13.218,2.859,46.828,3.798,46.828,3.798
					l-5.74,46h33.561c0,0,6.953-34.659,9.046-57.841c1.392-15.422-5.241-22.319-17.711-23.865
					c-10.555-1.309-42.299-3.374-42.299-3.374l-5.336-6.699"/>
				<path style="fill:#2F3470;" d="M138.662,380.563c-0.322,0-25.351-0.285-31.308-28.191l0.923-0.196
					c3.031,14.205,11.119,20.906,17.368,24.027c6.778,3.385,12.929,3.418,13.016,3.418l0,0l0.002,0.943
					C138.663,380.563,138.663,380.563,138.662,380.563z"/>
				<path style="fill:#2F3470;" d="M131.935,350.975c-6.44,0-11.018-0.859-11.073-0.87l0.177-0.925
					c0.066,0.011,6.787,1.269,15.388,0.708l0.061,0.94C134.898,350.932,133.37,350.975,131.935,350.975z"/>
				<path style="fill:#2F3470;" d="M99.245,348.03c-4.328,0-10.66-1.802-10.931-1.879l0.26-0.906
					c0.065,0.018,6.622,1.902,10.812,1.841l0.01,0.943C99.346,348.028,99.296,348.03,99.245,348.03z"/>
				<rect x="175.338" y="422.365" style="fill:#2F3470;" width="32.584" height="0.942"/>
			</g>
			<g>
				<g>
					<g>
						<rect x="242.348" y="291.756" style="fill:#9994FF;" width="2.671" height="29.199"/>
					</g>
					<path style="fill:#9994FF;" d="M248.608,288.799c0,2.72-2.205,4.925-4.925,4.925c-2.72,0-4.925-2.205-4.925-4.925
						c0-2.72,2.205-4.925,4.925-4.925C246.403,283.874,248.608,286.079,248.608,288.799z"/>
				</g>
				<path style="fill:#FF9783;" d="M218.968,301.291l9.908,0.731c0,0,7.616-2.57,10.65-2.635c1.859-0.04,2.822,0.941,2.822,0.941
					s0,1,0,2.994c0,1.994,2.671,2.872,2.671,1.518v-1.647c0.031,0.11,5.486,2.702,2.29,5.17c1.5,0.31,2.297,2.419-0.55,3.865
					c0.904,0.617,1.949,2.327-0.139,3.698c0.926,1.409-0.957,2.961-2.455,3.285c-2.833,0.613-25.499,0.137-25.499,0.137"/>
				<path style="fill:#7768FF;" d="M161.151,256.558c16.276,22.514,7.533,29.811-4.164,87.244c-39.069,0-68.971-6.756-68.971-6.756
					s9.304-30.14,26.549-63.683c8.223-15.995,21.893-23.959,29.63-25.991"/>
				<path style="fill:#7768FF;" d="M136.458,281.871c0,0,25.15,39.39,37.102,41.137c18.977,2.774,50.36,1.995,50.36,1.995
					l1.872-27.711c0,0-40.339-2.04-42.004-2.986c-5.404-3.073-22.637-37.749-22.637-37.749"/>
				<path style="fill:#2F3470;" d="M162.938,316.183c-0.148-0.123-14.942-12.525-24.695-31.411l0.837-0.432
					c9.666,18.717,24.313,30.996,24.459,31.119L162.938,316.183z"/>
				
					<rect x="204.677" y="310.573" transform="matrix(0.0832 -0.9965 0.9965 0.0832 -109.3875 503.1868)" style="fill:#2F3470;" width="28.218" height="0.943"/>
			</g>
			<ellipse style="opacity:0.4;fill:#D9D9FF;" cx="129.052" cy="447.562" rx="109.787" ry="8.933"/>
		</g>
		<g style="clip-path:url(#SVGID_00000023984976786192936240000005890390348436745624_);">
			<ellipse style="opacity:0.4;fill:#D9D9FF;" cx="390.154" cy="463.051" rx="87.579" ry="8.933"/>
			<polygon style="fill:#FFFFFF;" points="407.518,297.104 416.896,330.219 438.843,323.491 429.071,290.811 			"/>
			<polygon style="fill:#7768FF;" points="306.046,157.123 298.978,188.423 304.394,189.523 311.448,158.591 310.223,152.271 			"/>
			<g>
				<g>
					<path style="fill:#FF9783;" d="M420.533,279.977c-0.569,5.032-4.612,19.34-3.765,19.939c0.847,0.599,2.335-4.416,2.939-3.795
						c0.603,0.621-1.164,8.492-0.159,8.864c1.363,0.504,2.742-7.653,2.742-7.653s-1.065,9.01,0.244,9.105
						c0.927,0.068,2.056-6.771,2.815-9.331c-0.47,2.878-0.678,7.632,0.286,7.683c0.956,0.049,1.824-4.59,2.677-8.109
						c-0.328,2.246-0.704,6.365,0.185,6.453c0.886,0.088,3.782-11.048,6.096-21.638"/>
				</g>
				<path style="fill:#FF9783;" d="M436.914,210.942c0,0,8.143,14.465,9.319,23.344c2.897,21.872-15.25,58.921-15.25,58.921
					s-13.188-3.598-13.188-5.253c0-1.655,9.191-40.584,9.191-40.584l-13.182-30.428"/>
			</g>
			<g>
				<path style="fill:#FF9783;" d="M397.316,163.441l1.769,16.31c0,0-9.779,8.292-18.432-0.998l1.058-10.735L397.316,163.441z"/>
				<path style="fill:#FF9783;" d="M383.673,147.101c0,0-10.586,14.579-6.262,20.043c3.19,4.032,11.561,4.49,14.148,2.905
					c0.556-2.986,7.418-12.854,6.317-15.05C393.672,146.609,383.673,147.101,383.673,147.101z"/>
				<g>
					<path style="fill:#262739;" d="M400.151,149.623c-0.342-5.512-5.777-7.125-16.208-6.503c-1.396,0.083-3.881-0.865-4.527,0.376
						c-0.849,1.631-0.999,4.932,0.64,6.418c1.093,0.992,1.825,1.206,3.263,1.542c1.89,0.442,3.816,2.242,2.811,4.221
						c-0.263,0.518-0.887,1.398-0.493,1.825c0.2,0.216,0.873,0.455,1.133,0.594c0.751,0.402,0.703,1.543,0.236,2.255
						c-0.468,0.712-0.258,1.501-0.729,2.21c-1.115,1.68,0.207,4.777,1.942,5.805c1.535,0.909,6.569,2.427,10.254,0.516
						c3.196-1.657,5.116-6.167,5.142-14.275C403.623,151.498,401.312,149.412,400.151,149.623z"/>
				</g>
				<path style="fill:#FF9783;" d="M384.825,157.949c1.719-2.179,3.111-1.833,3.871-0.636c1.013,1.596-1.018,4.913-1.965,5.479
					c-1.917,1.147-3.47,1.027-3.617-0.531"/>
				<g>
					<g>
						<path style="fill:#30394D;" d="M380.584,154.612c-0.492,0.41-0.952,1.153-0.681,1.698c0.077,0.154,0.226,0.228,0.395,0.212
							C381.401,156.413,381.611,153.756,380.584,154.612z"/>
					</g>
				</g>
				<path style="fill:#30394D;" d="M382.535,154.516c-0.313-0.67-1.237-1.253-1.961-1.51l0.294-0.831
					c0.855,0.303,2.012,1.001,2.466,1.967L382.535,154.516z"/>
				<path style="fill:#FFFFFF;" d="M380.703,162.386l-2.418-1.293c0,0-1.588,2.97-0.462,3.596
					C379.067,165.383,380.703,162.386,380.703,162.386z"/>
			</g>
			<g>
				<g>
					
						<rect x="344.235" y="462.063" transform="matrix(-1 7.697925e-04 -7.697925e-04 -1 727.0184 925.5563)" style="fill:#273DAC;" width="38.192" height="1.711"/>
					<path style="fill:#242645;" d="M376.992,447.949l3.305,0.779c0,0,1.264,4.316,1.75,7.322s0.38,5.999,0.38,5.999l-38.192,0.029
						c0,0,0.998-3.31,10.111-8.648c3.592-2.104,5.419-4.51,5.419-4.51L376.992,447.949z"/>
					<path style="fill:#E0AE8E;" d="M380.924,434.208l-0.627,14.52c0,0-1.603,1.939-8.089,1.944
						c-6.486,0.005-12.443-1.752-12.443-1.752l-1.281-19.59"/>
				</g>
				<g>
					
						<rect x="398.632" y="462.063" transform="matrix(-1 7.697904e-04 -7.697904e-04 -1 835.8127 925.5144)" style="fill:#273DAC;" width="38.192" height="1.711"/>
					<path style="fill:#242645;" d="M431.389,447.949l3.305,0.779c0,0,1.264,4.316,1.75,7.322c0.486,3.005,0.38,5.999,0.38,5.999
						l-38.192,0.029c0,0,0.998-3.31,10.111-8.648c3.591-2.104,5.419-4.51,5.419-4.51L431.389,447.949z"/>
					<path style="fill:#E0AE8E;" d="M433.406,433.615l1.288,15.113c0,0-1.603,1.939-8.089,1.944
						c-6.486,0.005-12.443-1.752-12.443-1.752l-2.943-19.59"/>
				</g>
				<path style="fill:#7768FF;" d="M427.246,283.353c0,0,5.957,12.405,1.17,36.139c2.436,52.993,8.774,124.235,8.774,124.235
					l-36.387-0.128c0,0-7.419-76.579-11.83-114.742c-4.913-42.51-7.986-94.57-7.986-94.57"/>
				<path style="fill:#203269;" d="M406.239,443.641c-0.075-0.765-7.47-77.013-11.829-114.734l0.874-0.101
					c4.361,37.73,11.758,113.984,11.832,114.75L406.239,443.641z"/>
				<path style="fill:#7768FF;" d="M357.763,285.726c0,0-3.866,55.867-3.866,82.678c0,26.811-1.722,75.322-1.722,75.322h36.78
					l13.685-126.809c11.208-13.424,10.389-42.554,7.689-53.897l-36.47-9.959L357.763,285.726z"/>
				<path style="fill:#203269;" d="M395.564,386.597l-0.877-0.094l7.529-69.773l0.095-0.106c9.181-10.237,9.288-23.286,9.288-23.416
					h0.881c0,0.133-0.108,13.43-9.417,23.898L395.564,386.597z"/>
				
					<rect x="279.166" y="361.481" transform="matrix(0.0522 -0.9986 0.9986 0.0522 -19.1729 703.6424)" style="fill:#203269;" width="163.843" height="0.88"/>
				
					<rect x="398.088" y="286.103" transform="matrix(0.02 -0.9998 0.9998 0.02 95.5927 687.5957)" style="fill:#203269;" width="0.881" height="17.869"/>
				
					<rect x="420.194" y="293.784" transform="matrix(0.9998 -0.0209 0.0209 0.9998 -6.0499 8.907)" style="fill:#203269;" width="6.793" height="0.881"/>
			</g>
			<g>
				<g>
					<path style="fill:#FF9783;" d="M326.756,200.628c-4.987-5.642-18.368-27.094-19.873-26.756
						c-1.504,0.339,2.548,6.977,1.26,7.024c-1.286,0.047-8.212-9.745-9.625-9.006c-1.914,1.002,5.716,10.651,5.716,10.651
						s-2.988-4.099-4.397-2.75c-0.998,0.956-0.471,2.963,1.597,6.351c-1.388-1.734-2.697-2.041-3.714-1.027
						c-1.007,1.006-0.009,2.854,1.232,4.723c-0.979-1.224-2.409-1.84-2.776-0.564c-0.48,1.669,3.568,10.328,13.145,24.449"/>
				</g>
				<path style="fill:#552D7F;" d="M398.905,178.09c0,0,21.074,0.884,27.394,24.869c2.849,10.814,4.684,84.969,4.684,84.969
					l-77.006-0.515c0,0,1.026-67.04,2.748-81.555c3.147-26.527,24.034-28.181,24.034-28.181s0.951,2.346,9.114,2.346
					C398.036,180.023,398.905,178.09,398.905,178.09z"/>
				<path style="fill:#552D7F;" d="M398.905,178.09c25.013,0,40.414,34.358,40.414,34.358l-15.728,7.899"/>
				<path style="fill:#FF9783;" d="M365.863,226.839c0,0-13.348,19.207-24.124,20.25c-14.486,1.402-40.255-46.823-40.255-46.823
					l16.255-10.98l22.264,28.003l7.594-11.35"/>
				<path style="fill:#552D7F;" d="M380.759,177.677c-21.535,1.184-37.298,33.266-37.298,33.266l25.217,18.1l14.312-18.669"/>
				
					<rect x="363.883" y="220.032" transform="matrix(0.61 -0.7924 0.7924 0.61 -28.8794 382.2696)" style="fill:#301947;" width="20.012" height="0.88"/>
				<path style="fill:#301947;" d="M427.98,217.985c-1.373-9.921-4.765-18.517-4.799-18.603l0.819-0.326
					c0.034,0.086,3.465,8.777,4.852,18.808L427.98,217.985z"/>
			</g>
			<path style="fill:#FF9783;" d="M379.674,155.837c0,0-3.468,1.666-3.295,2.302c0.173,0.636,1.214,2.174,1.214,2.174"/>
			<rect x="352.175" y="435.313" style="fill:#203269;" width="37.421" height="0.881"/>
			<rect x="400.037" y="435.629" style="fill:#203269;" width="36.396" height="0.881"/>
		</g>
	</g>
</g>
</svg>
