<?xml version="1.0" encoding="utf-8"?>
<!-- Generator: Adobe Illustrator 27.5.0, SVG Export Plug-In . SVG Version: 6.00 Build 0)  -->
<svg version="1.1" xmlns="http://www.w3.org/2000/svg" xmlns:xlink="http://www.w3.org/1999/xlink" x="0px" y="0px"
	 viewBox="0 0 499.999 500" style="enable-background:new 0 0 499.999 500;" xml:space="preserve">
<g id="BACKGROUND">
</g>
<g id="OBJECTS">
	<g>
		<defs>
			<rect id="SVGID_1_" x="0" y="0" width="500" height="500"/>
		</defs>
		<clipPath id="SVGID_00000021810730857479697560000003809978273886419587_">
			<use xlink:href="#SVGID_1_"  style="overflow:visible;"/>
		</clipPath>
		
			<ellipse style="clip-path:url(#SVGID_00000021810730857479697560000003809978273886419587_);fill:#E9F0F6;" cx="256.821" cy="327.213" rx="196.872" ry="113.664"/>
		<path style="clip-path:url(#SVGID_00000021810730857479697560000003809978273886419587_);fill:#C4DFF8;" d="M154.372,376.362
			c-6.29-0.692-23.388,2.081-25.787,6.543c-2.399,4.463-2.383,14.09,19.199,17.313C169.368,403.442,177.515,378.909,154.372,376.362
			z"/>
		<path style="clip-path:url(#SVGID_00000021810730857479697560000003809978273886419587_);fill:#C4DFF8;" d="M224.011,395.185
			c-11.19,5.331-22.81,15.176-15.245,22.59s31.633,19.392,34.885,18.131c3.252-1.261,41.974-24.88,44.204-29.145
			C290.085,402.496,250.603,382.516,224.011,395.185z"/>
		<path style="clip-path:url(#SVGID_00000021810730857479697560000003809978273886419587_);fill:#C4DFF8;" d="M289.605,301.81
			c-17.31-1.629-68.999-6.998-90.033,8.078c-5.869,4.206,6.778,16.444-0.905,33.701c-7.557,16.974-41.082,68.193,80.775,69.716
			c121.857,1.524,149.022-15.245,154.842-36.943c5.82-21.698-32.306-70.329-43.737-72.783
			C350.006,294.875,289.605,301.81,289.605,301.81z"/>
		<g style="clip-path:url(#SVGID_00000021810730857479697560000003809978273886419587_);">
			<path style="fill:#4B84CF;" d="M437.931,332.122v1.037c-0.008,0-0.017-0.001-0.025-0.001l-2.419,0
				c-0.317-0.712-0.81-1.405-1.473-2.056l1.71-0.987c0.706-0.408,1.011-0.958,0.917-1.49v-2.857h-3.098v1.01
				c-0.956-0.077-1.961,0.095-2.697,0.52l-1.71,0.987c-1.127-0.383-2.327-0.667-3.561-0.851l0-1.397c0-1.017-1.429-1.842-3.19-1.842
				h-0.517c-1.761,0-3.19,0.825-3.19,1.842v1.397c-1.234,0.183-2.434,0.467-3.561,0.851l-1.71-0.987
				c-1.199-0.692-3.112-0.716-4.366-0.076v-1.477h-1.432v2.887h0c-0.09,0.53,0.216,1.078,0.919,1.483l1.71,0.987
				c-0.663,0.65-1.156,1.343-1.473,2.056h-2.419c-0.452,0-0.881,0.055-1.271,0.153v-1.253h-1.919v3.145l0,0v0.095
				c0,1.017,1.429,1.842,3.19,1.842l2.419,0c0.317,0.712,0.81,1.405,1.473,2.056l-0.728,0.42v-1.175h-1.924v3.262h0.033
				c0.081,0.396,0.383,0.78,0.91,1.084l0.366,0.211c1.246,0.72,3.266,0.72,4.512,0l1.71-0.987c1.127,0.383,2.327,0.667,3.561,0.85
				l0,1.397c0,1.017,1.429,1.842,3.19,1.842h0.517c1.761,0,3.19-0.825,3.19-1.842v-1.397c1.234-0.183,2.434-0.467,3.561-0.85
				l1.71,0.987c1.246,0.72,3.266,0.72,4.512,0l0.366-0.211c0.706-0.408,1.011-0.958,0.917-1.49v-2.622h-2.141
				c0.423-0.495,0.754-1.01,0.988-1.536h2.419c1.707,0,3.098-0.776,3.182-1.75h0.008v-0.092V335v-2.878H437.931z M426.952,335.179
				c-0.015,0.696-0.473,1.388-1.378,1.922l-0.068,0.039c-0.924,0.522-2.124,0.787-3.329,0.796h-0.102
				c-1.205-0.008-2.405-0.273-3.329-0.796l-0.068-0.039c-0.905-0.534-1.363-1.226-1.378-1.922v-0.059
				c0.015-0.696,0.473-1.388,1.378-1.922l0.068-0.04c0.924-0.522,2.124-0.787,3.329-0.796c0.034,0,0.068,0,0.103,0
				c1.205,0.009,2.405,0.273,3.329,0.796l0.068,0.04c0.905,0.534,1.363,1.226,1.378,1.922
				C426.952,335.14,426.952,335.16,426.952,335.179z"/>
			<path style="fill:#83D3FC;" d="M435.723,337.156l-1.71-0.987c0.663-0.651,1.156-1.343,1.473-2.056h2.419
				c1.761,0,3.19-0.825,3.19-1.842v-0.299c0-1.017-1.429-1.842-3.19-1.842l-2.419,0l0,0c-0.317-0.712-0.81-1.405-1.473-2.056
				l1.71-0.987c1.246-0.72,1.246-1.885,0-2.605l-0.366-0.211c-1.246-0.719-3.266-0.719-4.512,0l-1.71,0.987
				c-1.127-0.383-2.327-0.668-3.561-0.85l0,0l0-1.397c0-1.017-1.429-1.842-3.19-1.842h-0.517c-1.761,0-3.19,0.825-3.19,1.842v1.397
				c-1.234,0.183-2.434,0.467-3.561,0.85l-1.71-0.987c-1.246-0.719-3.266-0.719-4.512,0l-0.366,0.211
				c-1.246,0.72-1.246,1.885,0,2.605l1.71,0.987c-0.663,0.651-1.156,1.343-1.473,2.056h-2.419c-1.761,0-3.19,0.825-3.19,1.842
				l0,0.298c0,1.017,1.429,1.842,3.19,1.842h2.419l0,0c0.317,0.712,0.81,1.405,1.473,2.056l-1.71,0.987
				c-1.246,0.719-1.246,1.885,0,2.605l0.366,0.211c1.246,0.719,3.266,0.72,4.512,0l1.71-0.987c1.127,0.383,2.327,0.667,3.561,0.85
				l0,0l0,1.397c0,1.017,1.429,1.842,3.19,1.842h0.517c1.761,0,3.19-0.825,3.19-1.842v-1.397c1.234-0.183,2.434-0.467,3.561-0.85
				l1.71,0.987c1.246,0.72,3.266,0.72,4.512,0l0.366-0.211C436.969,339.042,436.969,337.876,435.723,337.156z M422.075,334.909
				c-1.205-0.008-2.405-0.273-3.329-0.796l-0.068-0.039c-0.905-0.534-1.363-1.227-1.378-1.922v-0.059
				c0.015-0.696,0.473-1.388,1.378-1.922l0.068-0.039c0.924-0.522,2.124-0.787,3.329-0.796c0.034,0,0.068,0,0.102,0
				c1.205,0.009,2.405,0.273,3.329,0.796l0.068,0.04c0.905,0.534,1.363,1.226,1.378,1.922c0,0.02,0,0.039,0,0.059
				c-0.015,0.695-0.473,1.388-1.378,1.922l-0.068,0.039c-0.924,0.522-2.124,0.787-3.329,0.796H422.075z"/>
		</g>
		<g style="clip-path:url(#SVGID_00000021810730857479697560000003809978273886419587_);">
			<path style="fill:#4B84CF;" d="M336.834,393.379v0.882c0,0-0.014-0.001-0.021-0.001l-2.058,0
				c-0.27-0.606-0.689-1.195-1.253-1.749l1.454-0.84c0.6-0.347,0.86-0.815,0.78-1.267v-2.43h-2.635v0.859
				c-0.814-0.065-1.668,0.081-2.294,0.442l-1.454,0.839c-0.958-0.326-1.979-0.568-3.029-0.723l0-1.188
				c0-0.865-1.216-1.567-2.713-1.567h-0.44c-1.498,0-2.713,0.702-2.713,1.567v1.188c-1.05,0.156-2.07,0.398-3.029,0.723l-1.454-0.84
				c-1.02-0.589-2.647-0.609-3.713-0.065v-1.257h-1.218v2.455h0c-0.077,0.451,0.184,0.916,0.782,1.262l1.454,0.84
				c-0.564,0.553-0.983,1.143-1.253,1.749h-2.058c-0.385,0-0.75,0.047-1.081,0.13v-1.066h-1.632V396l0,0v0.081
				c0,0.865,1.216,1.567,2.713,1.566l2.058,0c0.27,0.606,0.689,1.195,1.253,1.749l-0.619,0.357v-0.999h-1.637v2.775h0.028
				c0.069,0.337,0.326,0.664,0.774,0.922l0.311,0.18c1.06,0.612,2.778,0.612,3.838,0l1.454-0.84
				c0.958,0.326,1.979,0.568,3.029,0.723l0,1.188c0,0.865,1.216,1.567,2.713,1.567h0.44c1.498,0,2.714-0.702,2.713-1.567v-1.188
				c1.05-0.156,2.07-0.398,3.029-0.723l1.454,0.84c1.06,0.612,2.778,0.612,3.838,0l0.311-0.18c0.601-0.347,0.86-0.815,0.78-1.268
				v-2.23h-1.821c0.36-0.421,0.641-0.859,0.84-1.306h2.058c1.452,0,2.635-0.66,2.707-1.488h0.007v-0.078v-0.254v-2.448H336.834z
				 M327.496,395.979c-0.012,0.592-0.402,1.181-1.172,1.635l-0.058,0.034c-0.786,0.444-1.807,0.669-2.832,0.677h-0.087
				c-1.025-0.007-2.045-0.232-2.832-0.677l-0.058-0.034c-0.77-0.454-1.16-1.043-1.172-1.635v-0.05
				c0.012-0.592,0.402-1.181,1.172-1.635l0.058-0.034c0.786-0.444,1.807-0.669,2.832-0.677c0.029,0,0.058,0,0.087,0
				c1.025,0.007,2.045,0.232,2.832,0.677l0.058,0.034c0.77,0.454,1.16,1.043,1.172,1.635
				C327.496,395.946,327.496,395.962,327.496,395.979z"/>
			<path style="fill:#83D3FC;" d="M334.956,397.661l-1.454-0.84c0.564-0.553,0.983-1.143,1.253-1.749h2.058
				c1.498,0,2.714-0.702,2.713-1.567v-0.254c0-0.865-1.216-1.567-2.713-1.567h-2.058l0,0c-0.27-0.606-0.689-1.195-1.253-1.749
				l1.454-0.84c1.06-0.612,1.06-1.604,0-2.216l-0.311-0.18c-1.06-0.612-2.778-0.612-3.838,0l-1.454,0.84
				c-0.958-0.326-1.979-0.568-3.029-0.723l0,0l0-1.188c0-0.865-1.216-1.567-2.713-1.567h-0.44c-1.498,0-2.714,0.702-2.713,1.567
				v1.188c-1.05,0.156-2.07,0.398-3.029,0.723l-1.454-0.84c-1.06-0.612-2.778-0.612-3.838,0l-0.311,0.18
				c-1.06,0.612-1.06,1.604,0,2.216l1.454,0.84c-0.564,0.553-0.983,1.143-1.253,1.749h-2.058c-1.498,0-2.713,0.702-2.713,1.567
				v0.254c0,0.865,1.216,1.566,2.713,1.566l2.058,0l0,0c0.27,0.606,0.689,1.195,1.253,1.749l-1.454,0.84
				c-1.06,0.612-1.06,1.604,0,2.216l0.311,0.18c1.06,0.612,2.778,0.612,3.838,0l1.454-0.839c0.958,0.326,1.979,0.568,3.029,0.723
				l0,0l0,1.188c0,0.865,1.216,1.567,2.713,1.566h0.44c1.498,0,2.714-0.702,2.713-1.566v-1.188c1.05-0.156,2.07-0.398,3.029-0.723
				l1.454,0.84c1.06,0.612,2.778,0.612,3.838,0l0.311-0.18C336.016,399.264,336.016,398.273,334.956,397.661z M323.347,395.749
				c-1.025-0.007-2.045-0.232-2.832-0.677l-0.058-0.034c-0.77-0.454-1.16-1.043-1.172-1.635v-0.05
				c0.013-0.592,0.402-1.181,1.172-1.635l0.058-0.034c0.786-0.444,1.807-0.669,2.832-0.677c0.029,0,0.058,0,0.087,0
				c1.025,0.007,2.045,0.232,2.832,0.677l0.058,0.034c0.77,0.454,1.16,1.043,1.172,1.635c0,0.017,0,0.033,0,0.05
				c-0.013,0.592-0.402,1.181-1.172,1.635l-0.058,0.034c-0.786,0.444-1.807,0.669-2.832,0.677H323.347z"/>
		</g>
		<g style="clip-path:url(#SVGID_00000021810730857479697560000003809978273886419587_);">
			<path style="fill:#4B84CF;" d="M103.961,340.081v0.882c-0.007,0-0.014-0.001-0.021-0.001l-2.058,0
				c-0.27-0.606-0.689-1.195-1.253-1.749l1.454-0.84c0.601-0.347,0.86-0.815,0.78-1.267v-2.43h-2.635v0.859
				c-0.814-0.065-1.668,0.081-2.294,0.442l-1.454,0.84c-0.958-0.326-1.979-0.568-3.029-0.723v-1.188
				c0-0.865-1.216-1.566-2.713-1.566h-0.44c-1.498,0-2.713,0.702-2.713,1.567v1.188c-1.05,0.156-2.07,0.398-3.029,0.723
				l-1.454-0.839c-1.02-0.589-2.647-0.609-3.713-0.065v-1.257h-1.218v2.455h0c-0.076,0.45,0.184,0.916,0.782,1.262l1.454,0.84
				c-0.564,0.553-0.983,1.143-1.253,1.749h-2.058c-0.384,0-0.75,0.047-1.081,0.13v-1.066h-1.632v2.675l0,0v0.081
				c0,0.865,1.216,1.567,2.713,1.566l2.058,0c0.27,0.606,0.689,1.195,1.253,1.749l-0.619,0.358v-0.999h-1.637v2.775h0.028
				c0.069,0.337,0.326,0.664,0.774,0.922l0.311,0.18c1.06,0.612,2.778,0.612,3.838,0l1.454-0.84
				c0.958,0.326,1.979,0.568,3.029,0.723l0,1.188c0,0.865,1.215,1.567,2.713,1.567h0.44c1.498,0,2.713-0.702,2.713-1.567v-1.188
				c1.05-0.156,2.07-0.398,3.029-0.723l1.454,0.84c1.06,0.612,2.778,0.612,3.838,0l0.311-0.18c0.6-0.347,0.86-0.815,0.78-1.268
				v-2.23h-1.822c0.36-0.421,0.641-0.859,0.84-1.306h2.058c1.452,0,2.635-0.66,2.706-1.488h0.007v-0.078v-0.254v-2.448H103.961z
				 M94.623,342.681c-0.013,0.592-0.403,1.181-1.172,1.635l-0.058,0.034c-0.786,0.444-1.807,0.669-2.832,0.677h-0.087
				c-1.025-0.007-2.045-0.232-2.832-0.677l-0.058-0.034c-0.77-0.454-1.16-1.043-1.172-1.635v-0.05
				c0.012-0.592,0.402-1.181,1.172-1.635l0.058-0.034c0.786-0.444,1.807-0.669,2.832-0.677c0.029,0,0.058,0,0.087,0
				c1.025,0.007,2.045,0.232,2.832,0.677l0.058,0.034c0.77,0.454,1.16,1.043,1.172,1.635
				C94.623,342.648,94.623,342.665,94.623,342.681z"/>
			<path style="fill:#83D3FC;" d="M102.083,344.363l-1.454-0.84c0.564-0.553,0.983-1.143,1.253-1.749h2.058
				c1.498,0,2.713-0.702,2.713-1.567v-0.254c0-0.865-1.216-1.566-2.713-1.566l-2.058,0l0,0c-0.27-0.606-0.689-1.195-1.253-1.749
				l1.454-0.84c1.06-0.612,1.06-1.604,0-2.216l-0.311-0.18c-1.06-0.612-2.778-0.612-3.838,0l-1.454,0.84
				c-0.958-0.326-1.979-0.568-3.029-0.723l0,0l0-1.188c0-0.865-1.216-1.567-2.713-1.567h-0.44c-1.498,0-2.713,0.702-2.713,1.567
				v1.188c-1.05,0.156-2.07,0.398-3.029,0.723l-1.454-0.84c-1.06-0.612-2.778-0.612-3.838,0l-0.311,0.18
				c-1.06,0.612-1.06,1.604,0,2.216l1.454,0.84c-0.564,0.553-0.983,1.143-1.253,1.749h-2.058c-1.498,0-2.714,0.702-2.713,1.567
				v0.254c0,0.865,1.216,1.567,2.713,1.566l2.058,0l0,0c0.27,0.606,0.689,1.195,1.253,1.749l-1.454,0.84
				c-1.06,0.612-1.06,1.604,0,2.216l0.311,0.18c1.06,0.612,2.778,0.612,3.838,0l1.454-0.84c0.958,0.326,1.979,0.568,3.029,0.723l0,0
				l0,1.188c0,0.865,1.215,1.567,2.713,1.567h0.44c1.498,0,2.713-0.702,2.713-1.567v-1.188c1.05-0.156,2.07-0.398,3.029-0.723
				l1.454,0.84c1.06,0.612,2.778,0.612,3.838,0l0.311-0.18C103.143,345.967,103.143,344.975,102.083,344.363z M90.474,342.452
				c-1.025-0.007-2.045-0.232-2.832-0.677l-0.058-0.034c-0.77-0.454-1.16-1.043-1.172-1.635v-0.05
				c0.012-0.592,0.402-1.181,1.172-1.635l0.058-0.034c0.786-0.444,1.807-0.669,2.832-0.677c0.029,0,0.058,0,0.087,0
				c1.025,0.007,2.045,0.232,2.832,0.677l0.058,0.034c0.77,0.454,1.16,1.043,1.172,1.635c0,0.017,0,0.034,0,0.05
				c-0.013,0.592-0.402,1.181-1.172,1.635l-0.058,0.034c-0.786,0.444-1.807,0.669-2.832,0.677H90.474z"/>
		</g>
		<g style="clip-path:url(#SVGID_00000021810730857479697560000003809978273886419587_);">
			<path style="fill:#EBA76C;" d="M133.939,324.018c0.245-0.036,0.489-0.077,0.729-0.123c1.962-0.38,3.954-0.65,5.809-1.436
				c0.832-0.352,1.624-0.8,2.481-1.082c0.857-0.283,1.816-0.389,2.652-0.048c-0.77,0.605-1.698,1.008-2.665,1.159
				c2.122-0.034,4.242-0.216,6.34-0.543c0.11,0.156,0.04,0.371-0.039,0.544c-0.394,0.859-0.951,1.642-1.634,2.295
				c-0.328,0.314-0.693,0.603-1.116,0.768c-0.455,0.177-0.955,0.202-1.443,0.188c-1.362-0.039-2.929-0.596-4.204-0.115
				c-0.608,0.229-0.979,0.206-1.999,0.764c-1.532,0.838-3.07,1.665-4.607,2.495c-1.728,0.933-5.814,3.111-7.912,2.236
				c-1.164-0.486-1.742-1.222-1.599-2.476c0.144-1.262,1.23-1.934,2.354-2.525C128.765,325.235,132.1,324.29,133.939,324.018z"/>
			<path style="fill:#E8BF98;" d="M132.592,307.469c0.149,0.635,0.121,1.294,0.088,1.944c-0.32,6.343-1.018,12.738-3.238,18.777
				c-0.239,0.651-0.506,1.313-0.993,1.841c-0.488,0.528-1.245,0.905-1.994,0.8c-0.745-0.103-1.331-0.66-1.616-1.288
				c-0.285-0.628-0.32-1.324-0.342-2.004c-0.183-5.839,0.401-11.722,2.046-17.385c0.386-1.328,0.881-2.718,2.029-3.624
				c0.639-0.505,1.71-0.973,2.583-0.79C131.986,305.913,132.427,306.763,132.592,307.469z"/>
			<path style="fill:#D1A37E;" d="M128.405,331.099c0.309-0.138,0.627-0.198,0.946-0.189c-0.105-0.599-0.248-1.18-0.248-1.793
				c-0.001-0.698,0.408-1.363,0.617-2.016c0.43-1.344,0.571-2.675,0.868-4.07c0.129-0.603,0.234-1.163,0.237-1.786
				c0.003-0.638,0.137-1.779-0.172-2.347c-0.301-0.551-1.281-0.375-1.842-0.175c0.004,0.006,0.007,0.011,0.011,0.017
				c-0.004,0.011-0.009,0.025-0.013,0.05c0.48,1.209,0.413,3.082,0.352,4.397c-0.08,1.721-0.56,3.345-0.969,5.011
				c-0.179,0.728-0.548,1.542-0.573,2.287C127.953,330.371,128.209,330.627,128.405,331.099z"/>
			<path style="fill:#E8BF98;" d="M153.579,319.829c0.077-0.236,0.151-0.471,0.217-0.707c0.54-1.924,1.191-3.826,1.321-5.836
				c0.058-0.901,0.013-1.81,0.145-2.703c0.132-0.893,0.466-1.797,1.145-2.392c0.195,0.96,0.14,1.969-0.159,2.902
				c0.921-1.913,1.709-3.889,2.357-5.911c0.189-0.029,0.349,0.13,0.469,0.279c0.591,0.737,1.041,1.586,1.319,2.489
				c0.134,0.434,0.228,0.889,0.186,1.342c-0.046,0.486-0.247,0.944-0.479,1.375c-0.645,1.2-1.846,2.351-1.988,3.707
				c-0.068,0.646-0.255,0.968-0.213,2.13c0.063,1.745,0.113,3.491,0.165,5.236c0.059,1.963,0.174,6.592-1.548,8.074
				c-0.956,0.823-1.874,1.009-2.93,0.32c-1.063-0.694-1.177-1.967-1.202-3.236C152.348,325,152.999,321.595,153.579,319.829z"/>
			<path style="fill:#CCBAF8;" d="M133.52,308.635c0.169,0.801,0.169,1.626,0.168,2.444c-0.001,0.647-0.001,1.294-0.002,1.94
				c-0.001,0.586-0.001,1.173-0.053,1.756c-0.051,0.575-0.15,1.144-0.25,1.712c-0.17,0.972-0.341,1.944-0.511,2.916
				c-3.557,0.246-7.187-0.727-10.143-2.72c0.356-1.521,0.821-3.016,1.39-4.47c0.557-1.424,1.226-2.829,2.238-3.975
				c0.993-1.124,2.552-2.077,4.035-2.405C132.027,305.471,133.231,307.269,133.52,308.635z"/>
			<path style="fill:#D1A37E;" d="M141.617,304.445c-1.748,1.884-4.54,2.731-7.04,2.134c-0.713-0.171-1.409-0.449-2.143-0.482
				c1.014-0.654,1.531-1.865,1.762-3.05c0.26-1.323,0.226-2.709-0.129-4.011c-0.071-0.26-0.665-1.38-0.391-1.584
				c0.232-0.172,1.54,0.394,1.915,0.386c0.417-0.009,0.808-0.134,1.194-0.296c0.064-0.028,0.127-0.055,0.191-0.084l0.002-0.002
				c0.431-0.195,0.853-0.419,1.297-0.561c0.093-0.031,0.193-0.057,0.288-0.031c0.079,0.022,0.145,0.079,0.207,0.134
				c0.575,0.52,1.152,1.038,1.729,1.557c-0.191,0.568-0.338,1.154-0.434,1.746c-0.009,0.046-0.016,0.093-0.022,0.141
				c-0.084,0.561-0.126,1.13-0.124,1.698c0,0.162,0.005,0.326,0.022,0.487c0.019,0.208,0.059,0.413,0.131,0.61
				C140.31,303.882,140.931,304.369,141.617,304.445z"/>
			<path style="fill:#E8BF98;" d="M143.756,298.992c-0.319,0.718-0.806,1.474-1.577,1.629c-0.25,0.05-0.916,0-1.624-0.102
				c-0.171-0.022-0.344-0.05-0.513-0.079c-0.713-0.122-1.371-0.282-1.581-0.431c-0.468-0.329-1.302-1.703-1.378-1.894
				c-0.021-0.05-0.047-0.107-0.077-0.167c-0.059-0.121-0.138-0.26-0.22-0.408c-0.257-0.453-0.563-0.987-0.563-1.319
				c0-2.411,1.02-3.045,1.915-4.223c0.897-1.176,2.197-2.005,3.592-2.495c0.754-0.265,1.671-0.474,2.461-0.243
				c0.706,0.205,0.615,0.718,0.651,1.352C145.004,293.488,144.937,296.325,143.756,298.992z"/>
			<path style="fill:#7759BB;" d="M138.161,299.737c0.465-0.388,0.919-0.799,1.277-1.288c0.864-1.177,1.108-2.699,1.832-3.967
				c0.466-0.817,1.132-1.52,1.922-2.03c0.657-0.424,1.402-0.72,1.988-1.238c0.892-0.79,1.813-2.136,1.809-3.327
				s-1.69-3.009-2.797-3.45c-8.05-3.207-10.804,1.518-12.016,2.938c-1.285,1.505-1.421,3.183-1.458,5.161
				c-0.019,0.999,0.422,3.05,0.788,3.979c0.54,1.369,1.164,2.309,1.984,3.317C134.854,301.507,136.678,300.974,138.161,299.737z"/>
			<path style="fill:#E8BF98;" d="M141.715,294.048c-0.15-0.241-0.342-0.469-0.599-0.588c-0.258-0.119-0.592-0.105-0.794,0.094
				c-0.157,0.155-0.208,0.392-0.187,0.611c0.021,0.219,0.107,0.426,0.192,0.629c0.295,0.709,0.597,1.431,1.088,2.022
				c0.085,0.103,0.208,0.211,0.336,0.172c0.076-0.023,0.127-0.092,0.169-0.159c0-0.176,0.247-0.499,0.297-0.691
				c0.069-0.266,0.092-0.541,0.074-0.815c-0.018,0.005,0.026,0.052-0.031,0.046C141.987,295.056,141.956,294.435,141.715,294.048z"
				/>
			<path style="fill:#CCBAF8;" d="M130.907,389.671c-0.071,0.527-0.14,1.075,0.024,1.58c0.328,1.016,1.524,1.539,2.588,1.446
				c1.063-0.093,2.021-0.654,2.933-1.208c1.492-0.907,2.982-1.841,4.261-3.029c0.482-0.448,0.94-0.942,1.206-1.544
				c0.266-0.602,0.313-1.331-0.014-1.901c-0.507-0.887-1.729-1.107-2.719-0.853c-0.989,0.254-1.844,0.861-2.771,1.292
				c-1.261,0.586-2.002,1.028-3.294,1.527C131.578,387.577,131.115,388.117,130.907,389.671z"/>
			<path style="fill:#7759BB;" d="M129.203,340.405c-0.269,3.3,0.319,6.601,0.8,9.877c0.506,3.442,0.896,6.901,1.169,10.37
				c0.084,1.068,0.158,2.144,0.047,3.21c-0.179,1.723-0.831,3.359-1.18,5.056c-0.593,2.88-0.303,5.859-0.011,8.785
				c0.193,1.938,0.387,3.875,0.58,5.813c0.183,1.837,0.37,3.689,0.928,5.449c1.641,0.599,2.561-0.066,3.139-0.626
				c0.302-5.086,1.124-10.142,2.447-15.062c0.415-1.541,0.879-3.073,1.147-4.647c0.302-1.777,0.35-3.585,0.47-5.384
				c0.459-6.867,1.984-13.713,1.369-20.568c-0.238-2.651-0.793-5.261-1.348-7.864c-0.05-0.236-0.108-0.486-0.277-0.657
				c-0.19-0.192-0.477-0.242-0.745-0.283c-1.408-0.214-2.817-0.428-4.225-0.642c-0.854-0.13-1.98-0.542-2.66,0.18
				c-0.668,0.709-0.801,2.298-1.018,3.209C129.54,337.865,129.306,339.128,129.203,340.405z"/>
			<path style="fill:#CCBAF8;" d="M144.911,392.469c-0.093,0.554-0.186,1.129-0.036,1.67c0.307,1.109,1.57,1.727,2.72,1.681
				c1.15-0.047,2.211-0.598,3.227-1.137c1.587-0.842,3.177-1.685,4.687-2.66c0.88-0.568,1.767-1.222,2.21-2.171
				c0.442-0.949,0.267-2.263-0.64-2.786c-0.983-0.567-2.195,0.012-3.255,0.417c-1.142,0.437-2.351,0.665-3.552,0.891
				c-1.217,0.229-3.304,0.21-4.367,0.826C144.983,389.735,145.083,391.451,144.911,392.469z"/>
			<path style="fill:#7759BB;" d="M137.411,346.519c0.694,1.04,1.531,1.982,2.186,3.046c0.896,1.454,1.431,3.096,1.958,4.72
				c1.443,4.447,2.9,8.976,2.976,13.65c0.053,3.273-0.576,6.522-0.66,9.795c-0.056,2.177,0.13,4.353,0.315,6.523
				c0.19,2.227,0.38,4.453,0.571,6.68c1.812,0.172,3.673-0.216,5.266-1.097c-0.306-5.509,0.28-11.034,1.228-16.469
				c0.458-2.625,1.001-5.24,1.237-7.894c0.435-4.87-0.169-9.767-0.771-14.619c-0.747-6.021-1.509-12.104-3.612-17.795
				c0.142,0.385-10.108,1.375-10.991,1.464c-3.269,0.327-2.377,4.27-1.889,6.638C135.618,343.061,136.331,344.902,137.411,346.519z"
				/>
			<path style="fill:#AFA1E4;" d="M130.323,319.299c-0.346-0.266-1.202-0.184-1.636-0.268c-0.241-0.047-0.565-0.123-0.752-0.301
				c-0.286-0.273-0.148-0.596-0.076-0.992c0.301-1.642,0.299-3.42,0.225-5.114c-0.025-0.574-0.13-1.13-0.129-1.711
				c0-0.399,0.11-0.666,0.205-1.025c0.603,0.65,0.451,2.194,0.687,3.035c0.248,0.883,0.524,1.774,0.697,2.671
				c0.125,0.651,0.044,1.339,0.184,1.996C129.808,317.962,130.005,318.888,130.323,319.299z"/>
			<path style="fill:#5E45A5;" d="M135.067,360.422c0.326,1.103,0.7,2.199,0.857,3.339c0.18,1.314,0.066,2.648-0.048,3.969
				c-0.13,1.5-0.26,3-0.39,4.5c-0.336,3.879-0.624,7.769-1.253,11.612c-0.252,1.541,0.275,2.785,0.439,4.516
				c1.509-4.891,2.198-9.485,3.132-14.518c1.052-5.669,1.358-11.447,1.663-17.205c0.088-1.663,0.176-3.325,0.264-4.988
				c0.045-0.843,0.077-1.739-0.339-2.473c-0.415-0.732-1.196-1.161-1.909-1.608c-1.843-1.154-3.027-2.815-4.64-4.155
				c-0.575,0.766-0.045,2.765,0.03,3.686c0.122,1.501,0.264,3.001,0.447,4.496C133.686,354.574,134.216,357.54,135.067,360.422z"/>
			<g>
				<path style="fill:#4B84CF;" d="M152.19,314.74l-12.133-1.394c-0.62-0.071-0.775-0.598-0.346-1.177l11.469-15.468
					c0.429-0.579,1.28-0.99,1.9-0.919l12.133,1.394c0.62,0.071,0.775,0.598,0.346,1.177l-11.469,15.468
					C153.661,314.4,152.81,314.811,152.19,314.74z"/>
				<path style="fill:#B7EBFD;" d="M141.254,311.807l10.734-14.477c0.244-0.329,0.726-0.562,1.078-0.522l10.756,1.236
					c0.352,0.04,0.44,0.339,0.196,0.668l-10.734,14.477c-0.244,0.328-0.726,0.562-1.078,0.522l-10.756-1.236
					C141.098,312.435,141.01,312.136,141.254,311.807z"/>
			</g>
			<path style="fill:#CCBAF8;" d="M148.68,322.961c0.11-1.024,0.269-2.048,0.263-3.078c-0.01-1.862-0.554-3.674-1.093-5.456
				c-0.725-2.396-1.45-4.793-2.175-7.189c-0.266-0.877-0.534-1.762-0.978-2.564c-1.167,0.197-2.38,0.119-3.513-0.224l0.166,0.115
				c-1.567,1.322-3.646,2.014-5.692,1.915l0.003-0.011c-0.224-0.109-0.603-0.075-0.883-0.199c-0.244-0.108-0.51-0.256-0.737-0.399
				c-0.352-0.222-0.765-0.712-0.579-1.154c-0.656,0.479-1.127,0.638-1.934,0.676c-0.571,0.027-1.27,0.075-1.724,0.465
				c-0.777,0.668-1.203,1.69-1.376,2.703c-0.016,0.047-0.033,0.094-0.047,0.141c-0.252,0.872-0.178,1.802-0.092,2.706
				c0.18,1.892,0.405,3.787,0.867,5.631c0.29,1.155,0.672,2.289,0.885,3.461c0.86,4.721-1.076,9.627-0.17,14.34
				c0.574-0.042,1.049,0.404,1.5,0.762c1.531,1.212,3.551,1.636,5.503,1.684c1.952,0.047,3.896-0.244,5.848-0.293
				c2.223-0.056,4.706,0.121,6.382-1.341C148.585,331.44,148.226,327.178,148.68,322.961z"/>
			<path style="fill:#AFA1E4;" d="M144.411,306.305c-0.612-0.361-1.448-0.013-1.846,0.576c-0.398,0.589-0.463,1.336-0.478,2.046
				c-0.089,4.268,1.178,8.444,1.528,12.698c0.074,0.899,0.106,1.818-0.119,2.691c-0.218,0.846-0.667,1.613-0.946,2.441
				c-0.549,1.625-0.418,3.401-0.113,5.09c0.305,1.688,0.779,3.352,0.903,5.063c2.11-0.115,4.203-0.547,6.185-1.278
				c0.124-0.046,0.257-0.1,0.321-0.216c0.066-0.118,0.04-0.264,0.013-0.397c-0.81-4.009-0.761-8.143-0.492-12.224
				c0.068-1.036,0.151-2.077,0.072-3.112c-0.073-0.953-0.282-1.89-0.492-2.823c-0.508-2.255-1.076-4.609-2.601-6.346
				c-0.559-0.636-1.234-1.174-1.708-1.876c-0.473-0.702-0.713-1.655-0.297-2.393c0.192,0.29,0.383,0.579,0.575,0.868"/>
			<path style="fill:#E8BF98;" d="M153.154,330.095c-0.089-0.041-0.176-0.09-0.258-0.142c-0.58-0.372-0.988-0.938-1.376-1.496
				c-2.287-3.302-4.283-6.817-5.858-10.527c-0.715-1.686-1.345-3.413-1.875-5.178c-0.398-1.325-0.739-2.76-0.267-4.144
				c0.261-0.772,0.906-1.747,1.739-2.068c0.791-0.305,1.623,0.168,2.146,0.671c0.47,0.452,0.804,1.02,1.13,1.583
				c3.179,5.498,6.07,11.245,7.49,17.52c0.154,0.678,0.289,1.377,0.167,2.085c-0.122,0.708-0.553,1.437-1.238,1.756
				C154.369,330.427,153.7,330.357,153.154,330.095z"/>
			<path style="fill:#D1A37E;" d="M154.372,330.018c-0.402,0.007-0.812,0.097-1.218,0.076c-0.089-0.041-0.176-0.09-0.258-0.142
				c-0.58-0.372-0.988-0.938-1.376-1.496c-2.287-3.302-4.283-6.817-5.858-10.527c0.356-0.096,0.762-0.217,1.006-0.054
				c0.398,0.264,0.512,1.005,0.748,1.396c0.57,0.942,1.164,1.758,1.567,2.781c0.381,0.97,0.752,1.748,1.278,2.636
				c0.543,0.918,1.022,1.978,1.702,2.848C152.665,328.431,153.559,329.252,154.372,330.018z"/>
			<path style="fill:#CCBAF8;" d="M147.809,305.665c0.616,0.539,1.111,1.199,1.602,1.854c0.388,0.518,0.775,1.035,1.163,1.553
				c0.351,0.469,0.703,0.939,1.012,1.436c0.304,0.49,0.566,1.005,0.827,1.519c0.447,0.88,0.894,1.759,1.342,2.639
				c-2.697,2.332-6.185,3.733-9.745,3.913c-0.628-1.43-1.154-2.905-1.572-4.41c-0.41-1.473-0.718-2.999-0.596-4.523
				c0.12-1.495,0.794-3.193,1.783-4.346C144.716,304.03,146.758,304.745,147.809,305.665z"/>
			<path style="fill:#E27D26;" d="M140.161,302.68c0.1,0.103,0.041,0.065-0.027,0.002
				C140.143,302.681,140.153,302.681,140.161,302.68z"/>
		</g>
		<g style="clip-path:url(#SVGID_00000021810730857479697560000003809978273886419587_);">
			<polygon style="fill:#5B448E;" points="383.968,316.271 378.058,312.607 350.991,274.903 358.91,274.194 385.859,313.671 			"/>
			<path style="fill:#C6BAE4;" d="M391.613,312.317l-34.676-50.692l-16.938-2.206v16.075l0,0
				c10.269,0.899,19.621,6.277,25.565,14.699l18.404,26.078L391.613,312.317z"/>
			<polygon style="fill:#5B448E;" points="207.217,316.271 213.127,312.607 240.194,274.903 232.275,274.194 205.326,313.671 			"/>
			<path style="fill:#725E8C;" d="M199.572,312.317l34.676-50.692l16.939-2.206v16.075h0c-10.269,0.899-19.621,6.277-25.565,14.699
				l-18.404,26.078L199.572,312.317z"/>
			<path style="fill:#D0BEFC;" d="M297.068,373.364c28.367,0,41.037-16.244,50.493-45.556c9.456-29.313,7.66-60.352-9.361-153.963
				c-17.02-93.611-33.095-119.974-41.132-119.974c-8.037,0-24.112,26.363-41.132,119.974c-17.02,93.611-18.816,124.65-9.361,153.963
				C256.031,357.121,268.702,373.364,297.068,373.364z"/>
			<path style="fill:#7759BF;" d="M266.888,298.925c-0.416,4.822-1.626,9.437-3.659,13.238c-0.407,0.757-0.832,1.456-1.286,2.109
				c-3.678,5.39-8.642,7.044-13.238,4.926c-4.586-3.754-7.716-7.914-9.389-12.236c-0.416-1.182-0.775-2.411-1.068-3.678
				c-1.456-6.099-1.551-12.898-0.246-18.959c0.634-2.941,1.598-5.702,2.893-8.132c0.284-0.529,0.577-1.031,0.889-1.513
				c0.407,2.865,1.466,5.692,3.206,8.415c2.685,4.236,6.969,8.207,12.85,11.602C260.647,296.315,263.682,297.733,266.888,298.925z"
				/>
			<path style="fill:#7759BF;" d="M327.977,298.925c0.416,4.822,1.626,9.437,3.659,13.238c0.407,0.757,0.832,1.456,1.286,2.109
				c3.678,5.39,8.642,7.044,13.238,4.926c4.586-3.754,7.716-7.914,9.389-12.236c0.416-1.182,0.775-2.411,1.068-3.678
				c1.456-6.099,1.551-12.898,0.246-18.959c-0.634-2.941-1.598-5.702-2.893-8.132c-0.284-0.529-0.577-1.031-0.889-1.513
				c-0.407,2.865-1.466,5.692-3.206,8.415c-2.685,4.236-6.969,8.207-12.85,11.602C334.217,296.315,331.182,297.733,327.977,298.925z
				"/>
			<path style="fill:#7759BF;" d="M339.498,323.727c-23.251,13.427-60.951,13.427-84.193,0c-2.458-1.418-4.661-2.931-6.6-4.529
				c-4.586-3.754-7.716-7.914-9.389-12.236c-0.473-1.22-0.832-2.44-1.068-3.678c-0.662-3.404-0.445-6.865,0.652-10.241
				c1.116-3.432,3.149-6.799,6.089-9.947c2.685,4.236,6.969,8.207,12.85,11.602c2.809,1.617,5.844,3.035,9.049,4.227
				c21.502,8.075,50.559,6.666,69.424-4.227c6.07-3.508,10.439-7.621,13.115-12.009c3.149,3.272,5.314,6.77,6.477,10.354
				C359.411,303.823,353.946,315.387,339.498,323.727z"/>
			<path style="fill:#523972;" d="M351.034,314.357c-0.898,4.661-2.061,9.077-3.47,13.455
				c-9.456,29.313-22.126,45.548-50.493,45.548c-28.367,0-41.038-16.235-50.493-45.548c-1.522-4.709-2.752-9.465-3.669-14.524
				c1.57,2.052,3.499,4.028,5.796,5.91c1.938,1.598,4.142,3.111,6.6,4.529c23.242,13.427,60.942,13.427,84.193,0
				C344.358,320.919,348.206,317.741,351.034,314.357z"/>
			<path style="fill:#D0BEFC;" d="M353.246,287.502c0.076,10.316-0.69,18.93-2.213,26.854c-2.827,3.385-6.676,6.562-11.536,9.37
				c-23.251,13.427-60.951,13.427-84.193,0c-2.458-1.418-4.661-2.931-6.6-4.529c-2.298-1.882-4.227-3.858-5.796-5.91
				c-1.343-7.338-2.033-15.309-2.024-24.679c0.019-24.311,4.747-58.058,15.053-114.763c17.02-93.611,33.095-119.973,41.132-119.973
				c8.037,0,24.112,26.362,41.132,119.973C348.358,229.691,353.095,263.268,353.246,287.502z"/>
			<path style="fill:#7759BF;" d="M351.034,314.357c-2.827,3.385-6.676,6.562-11.536,9.37c-23.251,13.427-60.951,13.427-84.193,0
				c-2.458-1.418-4.661-2.931-6.6-4.529c-2.298-1.882-4.227-3.858-5.796-5.91c-1.551-2.052-2.761-4.17-3.593-6.326
				c-0.473-1.22-0.832-2.44-1.068-3.678c-0.662-3.404-0.445-6.865,0.652-10.241c0.482-1.503,1.144-2.979,1.986-4.435
				c1.078-1.891,2.44-3.735,4.104-5.513c2.685,4.236,6.969,8.207,12.85,11.602c2.809,1.617,5.844,3.035,9.049,4.227
				c21.502,8.075,50.559,6.666,69.424-4.227c6.07-3.508,10.439-7.621,13.115-12.009c1.504,1.56,2.78,3.168,3.82,4.813
				c1.163,1.806,2.052,3.659,2.657,5.541C358.229,300.192,356.612,307.69,351.034,314.357z"/>
			<path style="fill:#E2D7FD;" d="M355.903,293.043c-2.137,6.562-7.612,12.841-16.406,17.918
				c-21.152,12.217-54.256,13.313-77.555,3.309c-2.317-0.993-4.539-2.099-6.638-3.309c-8.794-5.078-14.268-11.356-16.405-17.918
				c-0.936-2.875-1.239-5.806-0.898-8.718c0.397-3.366,1.646-6.704,3.745-9.9c0.009,0.085,0.019,0.17,0.038,0.255
				c0.407,2.865,1.466,5.692,3.206,8.415c2.685,4.236,6.969,8.207,12.85,11.602c2.809,1.617,5.844,3.035,9.049,4.227
				c21.502,8.075,50.559,6.666,69.424-4.227c6.07-3.508,10.439-7.621,13.115-12.009c1.787-2.95,2.808-6.014,3.064-9.087
				C356.887,279.787,358.021,286.557,355.903,293.043z"/>
			<path style="fill:#7759BF;" d="M323.308,106.568c-11.063-39.799-20.613-52.696-26.24-52.696
				c-5.598,0-15.091,12.784-26.088,52.167c-1.645,5.881-3.319,12.349-5.021,19.46c1.626,2.298,4.047,4.435,7.271,6.298
				c13.001,7.508,34.097,7.508,47.108,0c3.518-2.023,6.08-4.397,7.688-6.922C326.428,118.218,324.849,112.128,323.308,106.568z"/>
			
				<ellipse transform="matrix(0.9814 -0.1922 0.1922 0.9814 -39.862 58.0518)" style="fill:#ECE4FD;" cx="279.255" cy="234.466" rx="18.053" ry="31.268"/>
			
				<ellipse transform="matrix(0.9814 -0.1922 0.1922 0.9814 -28.2466 56.9265)" style="fill:#ECE4FD;" cx="279.255" cy="174.036" rx="11.024" ry="19.094"/>
			
				<ellipse transform="matrix(0.9814 -0.1922 0.1922 0.9814 -39.5288 58.0196)" style="fill:#7759BF;" cx="279.255" cy="232.732" rx="18.053" ry="31.268"/>
			<path style="fill:#7759BF;" d="M289.5,184.054c-2.792,8.145-9.641,9.487-15.3,2.997c-5.658-6.49-7.982-18.355-5.191-26.5
				c2.792-8.145,9.642-9.487,15.3-2.997C289.968,164.044,292.292,175.909,289.5,184.054z"/>
			<path style="fill:#7759BF;" d="M296.03,251.977c-1.787,5.219-4.595,8.737-7.905,10.439c-3.849-0.17-7.952-2.373-11.735-6.713
				c-9.267-10.628-13.068-30.059-8.501-43.392c1.797-5.219,4.595-8.737,7.914-10.439c3.849,0.18,7.943,2.383,11.725,6.714
				C296.796,219.214,300.607,238.636,296.03,251.977z"/>
			<path style="fill:#7759BF;" d="M289.496,184.058c-0.908,2.657-2.25,4.595-3.848,5.758c-2.005-0.416-4.085-1.721-6.033-3.943
				c-5.655-6.496-7.981-18.363-5.191-26.504c0.908-2.657,2.251-4.595,3.849-5.758c2.014,0.416,4.094,1.721,6.033,3.943
				C289.969,164.04,292.295,175.907,289.496,184.058z"/>
			<path style="fill:#D4E4E9;" d="M296.03,251.977c-1.787,5.219-4.595,8.737-7.905,10.439c-3.849-0.17-7.952-2.373-11.735-6.713
				c-9.267-10.628-13.068-30.059-8.501-43.392c1.797-5.219,4.595-8.737,7.914-10.439c3.849,0.18,7.943,2.383,11.725,6.714
				C296.796,219.214,300.607,238.636,296.03,251.977z"/>
			<path style="fill:#D4E4E9;" d="M289.496,184.058c-0.908,2.657-2.25,4.595-3.848,5.758c-2.005-0.416-4.085-1.721-6.033-3.943
				c-5.655-6.496-7.981-18.363-5.191-26.504c0.908-2.657,2.251-4.595,3.849-5.758c2.014,0.416,4.094,1.721,6.033,3.943
				C289.969,164.04,292.295,175.907,289.496,184.058z"/>
			<path style="fill:#7759BF;" d="M326.525,280.537l40.423,39.95l19.148,76.039l-6.619-3.841l-10.157-36.292
				c-5.827-20.819-18.434-39.097-35.826-51.94l-7.205-5.321L326.525,280.537z"/>
			<polygon style="fill:#C6BAE4;" points="333.065,276.912 373.488,316.862 392.635,392.901 386.016,389.06 366.869,320.645 
				332.828,286.604 			"/>
			<polygon style="fill:#C6BAE4;" points="386.095,396.526 392.635,392.901 373.488,316.862 366.869,320.645 			"/>
			<polygon style="fill:#E2DCF1;" points="326.525,280.537 333.065,276.912 373.488,316.862 366.869,320.645 			"/>
			<path style="fill:#725E8C;" d="M265.723,280.537l-40.423,39.95l-19.148,76.039l6.619-3.841l10.157-36.292
				c5.827-20.819,18.434-39.097,35.826-51.94l7.205-5.321L265.723,280.537z"/>
			<polygon style="fill:#C6BAE4;" points="259.183,276.912 218.76,316.862 199.612,392.901 206.231,389.06 225.379,320.645 
				259.419,286.604 			"/>
			<polygon style="fill:#C6BAE4;" points="206.152,396.526 199.612,392.901 218.76,316.862 225.379,320.645 			"/>
			<polygon style="fill:#E2DCF1;" points="265.723,280.537 259.183,276.912 218.76,316.862 225.379,320.645 			"/>
		</g>
		<g style="clip-path:url(#SVGID_00000021810730857479697560000003809978273886419587_);">
			<polygon style="fill:#83D3FC;" points="265.762,242.769 217.222,419.97 211.335,416.507 259.832,239.462 			"/>
			<polygon style="fill:#4B84CF;" points="270.084,240.269 221.47,417.748 217.219,420.062 265.77,242.81 			"/>
			<polygon style="fill:#B7EBFD;" points="264.293,236.892 259.832,239.462 265.77,242.81 270.084,240.269 			"/>
			<polygon style="fill:#83D3FC;" points="238.628,417.776 220.525,407.303 225.013,404.689 243.116,415.161 			"/>
			<polygon style="fill:#B7EBFD;" points="239.888,413.305 221.785,402.833 226.273,400.218 244.376,410.69 			"/>
			<polygon style="fill:#83D3FC;" points="221.785,402.833 220.525,407.303 238.628,417.776 239.888,413.305 			"/>
			<polygon style="fill:#83D3FC;" points="242.963,402.657 224.86,392.185 229.348,389.57 247.451,400.042 			"/>
			<polygon style="fill:#B7EBFD;" points="244.223,398.186 226.12,387.714 230.608,385.1 248.711,395.572 			"/>
			<polygon style="fill:#83D3FC;" points="226.12,387.714 224.86,392.185 242.963,402.657 244.223,398.186 			"/>
			<polygon style="fill:#83D3FC;" points="247.054,387.375 228.951,376.903 233.439,374.289 251.543,384.761 			"/>
			<polygon style="fill:#B7EBFD;" points="248.314,382.905 230.211,372.433 234.699,369.818 252.802,380.29 			"/>
			<polygon style="fill:#83D3FC;" points="230.211,372.433 228.951,376.903 247.054,387.375 248.314,382.905 			"/>
			<polygon style="fill:#83D3FC;" points="251.308,372.148 233.205,361.676 237.693,359.062 255.796,369.534 			"/>
			<polygon style="fill:#B7EBFD;" points="252.568,367.678 234.465,357.206 238.953,354.591 257.056,365.063 			"/>
			<polygon style="fill:#83D3FC;" points="234.465,357.206 233.205,361.676 251.308,372.148 252.568,367.678 			"/>
			<polygon style="fill:#83D3FC;" points="255.454,356.732 237.351,346.259 241.839,343.645 259.942,354.117 			"/>
			<polygon style="fill:#B7EBFD;" points="256.714,352.261 238.611,341.789 243.099,339.174 261.202,349.646 			"/>
			<polygon style="fill:#83D3FC;" points="238.611,341.789 237.351,346.259 255.454,356.732 256.714,352.261 			"/>
			<polygon style="fill:#83D3FC;" points="259.626,341.369 241.523,330.897 246.011,328.282 264.115,338.754 			"/>
			<polygon style="fill:#B7EBFD;" points="260.886,336.898 242.783,326.426 247.271,323.812 265.374,334.284 			"/>
			<polygon style="fill:#83D3FC;" points="242.783,326.426 241.523,330.897 259.626,341.369 260.886,336.898 			"/>
			<polygon style="fill:#83D3FC;" points="263.826,325.871 245.723,315.399 250.211,312.784 268.314,323.256 			"/>
			<polygon style="fill:#B7EBFD;" points="265.086,321.4 246.983,310.928 251.471,308.314 269.574,318.786 			"/>
			<polygon style="fill:#83D3FC;" points="246.983,310.928 245.723,315.399 263.826,325.871 265.086,321.4 			"/>
			<polygon style="fill:#83D3FC;" points="267.89,311.05 249.787,300.578 254.275,297.964 272.378,308.435 			"/>
			<polygon style="fill:#B7EBFD;" points="269.15,306.579 251.047,296.107 255.535,293.493 273.638,303.965 			"/>
			<polygon style="fill:#83D3FC;" points="251.047,296.107 249.787,300.578 267.89,311.05 269.15,306.579 			"/>
			<polygon style="fill:#83D3FC;" points="272.117,295.525 254.014,285.053 258.502,282.438 276.605,292.91 			"/>
			<polygon style="fill:#B7EBFD;" points="273.377,291.054 255.274,280.582 259.762,277.968 277.865,288.44 			"/>
			<polygon style="fill:#83D3FC;" points="255.274,280.582 254.014,285.053 272.117,295.525 273.377,291.054 			"/>
			<polygon style="fill:#83D3FC;" points="276.317,280.054 258.214,269.582 262.702,266.967 280.805,277.439 			"/>
			<polygon style="fill:#B7EBFD;" points="277.576,275.583 259.473,265.111 263.961,262.497 282.065,272.969 			"/>
			<polygon style="fill:#83D3FC;" points="259.473,265.111 258.214,269.582 276.317,280.054 277.576,275.583 			"/>
			<polygon style="fill:#83D3FC;" points="280.495,265.071 262.392,254.599 266.88,251.984 284.983,262.456 			"/>
			<polygon style="fill:#B7EBFD;" points="281.755,260.6 263.652,250.128 268.14,247.513 286.243,257.985 			"/>
			<polygon style="fill:#83D3FC;" points="263.652,250.128 262.392,254.599 280.495,265.071 281.755,260.6 			"/>
			<polygon style="fill:#83D3FC;" points="289.605,256.641 241.066,433.842 235.178,430.38 283.675,253.334 			"/>
			<polygon style="fill:#4B84CF;" points="293.927,254.141 245.314,431.621 241.062,433.934 289.613,256.682 			"/>
			<polygon style="fill:#B7EBFD;" points="288.137,250.765 283.675,253.334 289.613,256.682 293.927,254.141 			"/>
		</g>
		<g style="clip-path:url(#SVGID_00000021810730857479697560000003809978273886419587_);">
			<path style="fill:none;stroke:#523972;stroke-linecap:round;stroke-miterlimit:10;" d="M361.313,97.872
				c-6.942,1.339-11.985-5.656-12.615-12.56c-0.63-6.904-2.837-117.535-2.837-117.535"/>
			<g>
				<path style="fill:#523972;" d="M310.39,111.477c1.147,0.157,2.109,0.915,3.007,1.645c0.898,0.73,1.859,1.489,3.006,1.647
					c1.147,0.158,2.497-0.557,2.579-1.712c0.081-1.143-1.002-1.97-1.792-2.8c-1.012-1.064-1.68-2.516-1.569-3.981
					c0.181-2.389,2.235-4.121,3.887-5.855c1.395-1.464,2.628-3.187,3.003-5.174c0.375-1.987-0.29-4.271-2.002-5.348
					c-1.4-0.881-3.165-0.82-4.817-0.909c-1.651-0.09-3.493-0.483-4.391-1.872c-0.457-0.707-0.593-1.567-0.87-2.362
					c-0.277-0.795-0.789-1.606-1.605-1.815c-0.809-0.208-1.675,0.271-2.15,0.959c-0.474,0.688-0.632,1.542-0.725,2.372
					c-0.274,2.466-0.097,5.081-1.232,7.288c-1.196,2.326-3.753,3.974-4.158,6.559c-0.276,1.76,0.494,3.483,0.416,5.245
					c-0.068,1.547-0.678,3.098,0.179,4.554c0.739,1.254,2.413,1.942,3.791,2.171C306.839,112.4,308.531,111.223,310.39,111.477z"/>
				<path style="fill:#E8BF98;" d="M316.558,95.881c-1.175-0.405-2.322-1.021-3.565-1.009c-1.081,0.01-2.092,0.496-3.062,0.972
					c-0.502,0.246-1.019,0.505-1.374,0.937c-0.354,0.432-0.498,1.09-0.184,1.552c0.372,0.547,1.178,0.577,1.809,0.38
					c0.631-0.197,1.22-0.561,1.879-0.611c1.088-0.083,2.038,0.692,3.089,0.985c0.905,0.252,1.866,0.139,2.798,0.024
					c0.677-0.084,1.371-0.172,1.977-0.486c0.902-0.467,1.863-2.432,0.309-2.777c-0.45-0.1-1.1,0.31-1.558,0.355
					C317.964,96.271,317.229,96.113,316.558,95.881z"/>
				<path style="fill:#523972;" d="M382.87,56.742c0.513-0.328,1.163-0.324,1.772-0.31c1.829,0.043,3.657,0.087,5.486,0.13
					c0.347,0.084,0.505,0.537,0.37,0.867c-0.135,0.33-0.477,0.534-0.824,0.619c-0.347,0.085-0.708,0.072-1.064,0.099
					c-1.208,0.093-2.349,0.707-3.15,1.606c-0.973,1.092-0.921,2.755-2.78,2.609c-1.319-0.104-1.087-0.987-0.944-2.042
					C381.892,59.171,381.749,57.458,382.87,56.742z"/>
				<path style="fill:#523972;" d="M375.33,54.412c0.025-0.289,0.054-0.59,0.209-0.835c0.267-0.421,0.813-0.548,1.304-0.639
					c1.303-0.24,2.605-0.481,3.908-0.721c0.233-0.043,0.475-0.086,0.706-0.032c0.231,0.054,0.451,0.232,0.476,0.467
					c-0.062,0.541-0.473,0.981-0.928,1.278c-0.455,0.298-0.971,0.494-1.423,0.797c-0.811,0.542-1.373,1.398-1.727,2.307
					c-0.355,0.909-0.521,1.878-0.684,2.84c0-0.001-1.652-0.002-1.777-0.078c-0.478-0.288-0.399-0.48-0.436-1.021
					C374.861,57.379,375.21,55.81,375.33,54.412z"/>
				<path style="fill:#7759BB;" d="M370.299,71.537c-0.399-3.914,0.555-7.953,2.664-11.274c0.289-0.456,0.611-0.91,1.063-1.206
					c1.173-0.769,2.727-0.236,4.017,0.313c0.056,3.29,0.11,6.609-0.529,9.837c-0.638,3.228-2.031,6.401-4.462,8.617
					c-1.926,1.756-4.396,2.818-6.919,3.471c-1.836,0.476-3.717,0.75-5.594,1.023c-2.094,0.305-3.943-0.391-3.811-2.824
					c0.08-1.467,1.099-2.03,2.228-2.754c1.737-1.115,3.431-2.241,5.307-3.119C364.737,73.399,370.285,71.394,370.299,71.537z"/>
				<path style="fill:#7759BB;" d="M364.345,78.879c4.24-1.672,8.782-2.577,13.339-2.658c-0.315-5.762,0.866-11.6,3.398-16.787
					c1.563,0.339,3.126,0.677,4.689,1.016c-0.212,5.481-0.424,10.962-0.635,16.443c-0.048,1.244-0.106,2.53-0.647,3.652
					c-0.493,1.021-1.347,1.82-2.233,2.529c-5.041,4.034-11.465,5.82-17.696,7.511c-1.461,0.396-3.089,0.777-4.428,0.071
					c-2.005-1.058-3.143-4.903-2.311-6.967C358.748,81.383,362.222,79.716,364.345,78.879z"/>
				<path style="fill:#9177C5;" d="M328.408,91.746c-3.522,1.774-7.417,3.09-11.348,2.775c-0.227,1.949,0.204,3.968,1.206,5.655
					c8.285-0.851,16.286-4.278,22.618-9.689c1.203-1.028,2.643-2.871,1.121-4.276c-0.99-0.914-2.511-1.113-3.683-0.53
					c-1.295,0.643-2.385,1.765-3.629,2.514C332.633,89.434,330.555,90.665,328.408,91.746z"/>
				<path style="fill:#CCBAF8;" d="M334.562,81.653c2.864-1.302,8.259-0.814,11.458-0.998c3.199-0.184,11.82-4.921,11.82-4.921
					s5.325,3.083,7.689,6.156c2.364,3.073,3.782,8.746,3.782,8.746s-9.349,4.473-11.766,5.014c-2.417,0.541-5.372,1.96-11.164,1.132
					c-5.792-0.827-13.829-4.019-14.302-6.146C331.607,88.508,330.661,83.426,334.562,81.653z"/>
				<path style="fill:#D1A37E;" d="M332.612,85.021c1.273,0.735,3.871,1.773,3.871,1.773s0.798,2.807-0.414,4.344
					c-1.212,1.537-2.437,0.829-2.437,0.829s-1.493-2.75-2.616-2.927C329.893,88.863,332.612,85.021,332.612,85.021z"/>
				<path style="fill:#E8BF98;" d="M326.51,74.814c-1.923,0.039-3.62,1.534-4.284,3.34c-0.664,1.806-0.434,3.84,0.214,5.651
					c1.089,3.041,3.359,5.642,6.225,7.132c0.604,0.314,1.293,0.586,1.95,0.409c1.016-0.273,1.462-1.443,1.706-2.466
					c0.527-2.204,0.825-4.495,0.515-6.74c-0.31-2.245-1.274-4.452-2.961-5.965c-0.87-0.779-1.96-1.373-3.127-1.416
					c-1.167-0.043-2.396,0.559-2.873,1.624"/>
				<path style="fill:#7759BB;" d="M322.157,83.054c-2.112-0.543-4.111-2.118-4.478-4.268c-0.404-2.363,1.231-4.622,3.147-6.062
					c3.302-2.481,8.024-3.363,11.636-1.362c2.524,1.398,4.229,4.04,4.844,6.858c0.615,2.819,0.215,5.792-0.749,8.511
					c-0.338,0.952-0.985,2.042-1.994,1.992c-0.65-0.033-1.176-0.564-1.469-1.146c-0.293-0.581-0.422-1.232-0.687-1.826
					C330.541,81.582,325.492,83.913,322.157,83.054z"/>
				<path style="fill:#E8BF98;" d="M329.242,83.469c-0.054-0.508-0.107-1.034,0.057-1.518c0.164-0.484,0.608-0.913,1.118-0.885
					c0.365,0.02,0.688,0.268,0.882,0.577c0.195,0.309,0.28,0.673,0.343,1.033c0.165,0.944,0.196,1.91,0.094,2.863
					c-0.13,1.212-1,1.46-1.786,0.55C329.305,85.34,329.344,84.417,329.242,83.469z"/>
				<path style="fill:#E8BF98;" d="M329.219,115.058c-1.462,0.314-3.028,0.395-4.301,1.181c-1.107,0.683-1.846,1.815-2.549,2.909
					c-0.363,0.566-0.736,1.155-0.831,1.821c-0.096,0.666,0.166,1.433,0.777,1.713c0.724,0.331,1.573-0.14,2.1-0.736
					c0.528-0.596,0.907-1.338,1.555-1.8c1.069-0.763,2.53-0.556,3.795-0.91c1.089-0.304,2.008-1.02,2.897-1.719
					c0.646-0.508,1.305-1.031,1.734-1.732c0.638-1.043,0.404-3.666-1.412-3.053c-0.526,0.177-0.94,1.005-1.384,1.336
					C330.91,114.583,330.054,114.878,329.219,115.058z"/>
				<path style="fill:#CCBAF8;" d="M340.977,99.808c-0.166,1.366-0.276,2.801-1.012,3.963c-0.43,0.679-1.045,1.216-1.651,1.743
					c-2.614,2.271-5.229,4.543-7.843,6.814c0.874,2.042,2.114,3.926,3.644,5.537c4.13-3.611,9.582-5.806,12.74-10.291
					c1.241-1.762,2.053-3.787,2.773-5.818c0.97-2.739,1.793-5.531,2.463-8.358c0.318-1.343,0.604-2.725,0.429-4.094
					c-0.174-1.369-0.888-2.741-2.12-3.364c-2.861-1.448-5.658,1.461-6.787,3.833C342.156,92.832,341.384,96.469,340.977,99.808z"/>
			</g>
			<path style="fill:none;stroke:#523972;stroke-linecap:round;stroke-miterlimit:10;" d="M360.99-35.059
				c-0.315,73.754,7.265,131.593,0.323,132.932"/>
		</g>
		<g style="clip-path:url(#SVGID_00000021810730857479697560000003809978273886419587_);">
			<path style="fill:#523972;" d="M285.783,234.675c0.081-0.765,0.564-1.419,1.031-2.031c0.467-0.612,0.951-1.265,1.033-2.03
				c0.082-0.765-0.421-1.647-1.19-1.678c-0.761-0.03-1.288,0.706-1.823,1.247c-0.686,0.694-1.637,1.168-2.612,1.124
				c-1.59-0.071-2.783-1.4-3.969-2.462c-1.001-0.896-2.17-1.68-3.498-1.889c-1.328-0.209-2.831,0.28-3.511,1.439
				c-0.556,0.948-0.48,2.119-0.505,3.218c-0.026,1.099-0.249,2.33-1.153,2.955c-0.46,0.318-1.029,0.426-1.551,0.626
				c-0.522,0.201-1.05,0.557-1.173,1.103c-0.122,0.542,0.214,1.107,0.681,1.408c0.467,0.301,1.037,0.389,1.591,0.433
				c1.644,0.132,3.377-0.04,4.866,0.669c1.57,0.747,2.717,2.411,4.441,2.627c1.175,0.147,2.303-0.399,3.475-0.384
				c1.029,0.014,2.072,0.387,3.021-0.212c0.818-0.516,1.241-1.643,1.364-2.562C286.469,237.015,285.652,235.915,285.783,234.675z"/>
			<path style="fill:#E8BF98;" d="M235.676,280.926c-0.039,0.224-0.074,0.447-0.103,0.669c-0.235,1.815-0.572,3.625-0.424,5.464
				c0.067,0.824,0.228,1.642,0.227,2.469c-0.001,0.827-0.184,1.69-0.721,2.319c-0.304-0.844-0.388-1.766-0.24-2.651
				c-0.581,1.855-1.033,3.75-1.353,5.668c-0.167,0.051-0.334-0.072-0.462-0.191c-0.633-0.589-1.154-1.299-1.525-2.081
				c-0.179-0.376-0.325-0.776-0.346-1.191c-0.023-0.447,0.099-0.888,0.252-1.309c0.426-1.173,1.361-2.375,1.31-3.622
				c-0.024-0.595,0.103-0.911-0.089-1.958c-0.288-1.573-0.564-3.148-0.843-4.723c-0.313-1.771-1.031-5.95,0.333-7.522
				c0.757-0.872,1.564-1.163,2.613-0.678c1.056,0.488,1.327,1.626,1.518,2.773C236.106,276.078,235.968,279.249,235.676,280.926z"/>
			<path style="fill:#E8BF98;" d="M238.503,253.656c0.136,0.582,0.111,1.185,0.081,1.78c-0.293,5.808-0.933,11.665-2.965,17.195
				c-0.219,0.596-0.463,1.202-0.91,1.686s-1.14,0.828-1.826,0.733c-0.682-0.095-1.219-0.605-1.48-1.18
				c-0.261-0.575-0.293-1.212-0.313-1.835c-0.168-5.347,0.367-10.735,1.874-15.92c0.353-1.216,0.807-2.489,1.858-3.319
				c0.586-0.463,1.566-0.891,2.365-0.724C237.948,252.232,238.351,253.01,238.503,253.656z"/>
			<path style="fill:#D1A37E;" d="M235.15,264.016c-0.068-0.003-0.087-0.127-0.112,0.007c0.44,1.107,0.378,2.822,0.322,4.026
				c-0.073,1.576-0.513,3.063-0.887,4.589c-0.164,0.667-0.502,1.412-0.524,2.094c1.317-0.447,1.306,5.359,1.306,6.3
				c0,0.646,0,1.467,0,2.023c0.004-1.313,0.287-2.514,0.476-3.738c0.208-1.347,0.046-2.724-0.173-4.065
				c-0.097-0.594-0.249-1.166-0.25-1.77c-0.001-0.639,0.374-1.248,0.565-1.846c0.394-1.231,0.523-2.45,0.795-3.727
				c0.118-0.552,0.214-1.065,0.217-1.636c0.003-0.584,0.126-1.629-0.158-2.149c-0.275-0.505-1.173-0.343-1.687-0.16
				C235.153,264.143,235.291,264.312,235.15,264.016z"/>
			<path style="fill:#E8BF98;" d="M271.096,243.322c0.113-0.197,0.223-0.395,0.326-0.594c0.843-1.625,1.781-3.209,2.272-4.987
				c0.22-0.797,0.349-1.62,0.633-2.397c0.285-0.776,0.753-1.524,1.473-1.931c-0.004,0.897-0.241,1.792-0.683,2.572
				c1.182-1.543,2.257-3.169,3.214-4.86c0.174,0.01,0.289,0.182,0.368,0.337c0.393,0.771,0.638,1.616,0.719,2.478
				c0.039,0.414,0.039,0.84-0.083,1.238c-0.132,0.428-0.398,0.801-0.685,1.143c-0.802,0.956-2.093,1.764-2.473,2.953
				c-0.181,0.567-0.409,0.82-0.588,1.87c-0.269,1.576-0.549,3.151-0.828,4.726c-0.313,1.771-1.072,5.943-2.892,6.951
				c-1.01,0.56-1.868,0.556-2.687-0.259c-0.824-0.82-0.69-1.983-0.475-3.126C269.029,247.729,270.246,244.797,271.096,243.322z"/>
			<path style="fill:#E8BF98;" d="M271.922,252.757c-0.058,0.068-0.123,0.133-0.189,0.192c-0.472,0.42-1.071,0.64-1.659,0.844
				c-3.476,1.202-7.069,2.094-10.729,2.568c-1.664,0.214-3.342,0.344-5.029,0.375c-1.266,0.024-2.617-0.03-3.721-0.787
				c-0.617-0.421-1.317-1.23-1.394-2.044c-0.074-0.773,0.549-1.389,1.121-1.727c0.514-0.303,1.098-0.457,1.675-0.606
				c5.633-1.446,11.415-2.577,17.3-2.281c0.636,0.031,1.285,0.085,1.88,0.367c0.595,0.282,1.131,0.842,1.243,1.525
				C272.516,251.768,272.288,252.341,271.922,252.757z"/>
			<path style="fill:#D1A37E;" d="M246.767,250.887c-1.601,1.725-4.157,2.501-6.447,1.954c-0.653-0.156-1.29-0.412-1.962-0.442
				c0.929-0.599,1.402-1.708,1.613-2.793c0.238-1.211,0.207-2.481-0.118-3.673c-0.065-0.238-0.609-1.263-0.358-1.451
				c0.213-0.158,1.41,0.361,1.754,0.353c0.382-0.008,0.74-0.123,1.093-0.271c0.058-0.025,0.117-0.05,0.175-0.077l0.002-0.002
				c0.394-0.178,0.781-0.383,1.188-0.514c0.085-0.028,0.177-0.052,0.263-0.028c0.073,0.021,0.132,0.073,0.189,0.123
				c0.527,0.476,1.055,0.951,1.583,1.426c-0.175,0.52-0.309,1.057-0.397,1.599c-0.008,0.043-0.014,0.085-0.02,0.129
				c-0.077,0.514-0.115,1.035-0.114,1.555c0,0.148,0.005,0.298,0.02,0.446c0.017,0.191,0.054,0.378,0.12,0.558
				C245.57,250.371,246.14,250.818,246.767,250.887z"/>
			<path style="fill:#7759BB;" d="M239.352,254.725c0.155,0.733,0.155,1.489,0.154,2.238c-0.001,0.592-0.001,1.185-0.002,1.777
				c-0.001,0.536-0.001,1.074-0.048,1.608c-0.046,0.526-0.138,1.047-0.229,1.568c-0.156,0.89-0.312,1.78-0.468,2.67
				c-3.257,0.226-6.581-0.666-9.289-2.491c0.326-1.392,0.752-2.762,1.273-4.094c0.51-1.304,1.123-2.591,2.05-3.64
				c0.91-1.029,2.337-1.902,3.695-2.202C237.985,251.827,239.088,253.473,239.352,254.725z"/>
			<path style="fill:#E8BF98;" d="M248.726,245.894c-0.292,0.658-0.738,1.35-1.445,1.492c-0.229,0.046-0.839,0-1.487-0.093
				c-0.156-0.021-0.316-0.046-0.47-0.073c-0.653-0.112-1.255-0.259-1.448-0.394c-0.429-0.301-1.192-1.56-1.262-1.735
				c-0.019-0.046-0.043-0.098-0.071-0.153c-0.054-0.11-0.126-0.238-0.202-0.374c-0.235-0.415-0.516-0.904-0.516-1.208
				c0-2.208,0.934-2.788,1.754-3.867c0.822-1.077,2.012-1.836,3.29-2.285c0.691-0.243,1.53-0.434,2.254-0.222
				c0.647,0.188,0.563,0.658,0.596,1.238C249.87,240.853,249.808,243.451,248.726,245.894z"/>
			<path style="fill:#523972;" d="M243.603,246.575c0.426-0.356,0.841-0.732,1.17-1.18c0.791-1.078,1.015-2.471,1.677-3.633
				c0.427-0.748,1.036-1.392,1.76-1.859c0.602-0.388,1.284-0.659,1.82-1.134c0.817-0.724,1.193-1.854,1.189-2.945
				c-0.004-1.091-0.349-2.154-0.783-3.155c-0.414,0.461-1.065,0.617-1.679,0.7c-1.694,0.228-3.419,0.076-5.121,0.235
				c-1.702,0.159-3.475,0.695-4.585,1.995c-1.176,1.378-1.38,3.322-1.414,5.133c-0.017,0.915-0.004,1.836,0.178,2.732
				c0.236,1.166,0.759,2.273,1.51,3.195C240.574,248.197,242.245,247.709,243.603,246.575z"/>
			<path style="fill:#E8BF98;" d="M246.857,241.366c-0.138-0.22-0.313-0.429-0.549-0.538c-0.236-0.109-0.542-0.096-0.727,0.086
				c-0.144,0.142-0.191,0.359-0.171,0.559s0.098,0.39,0.175,0.576c0.27,0.65,0.547,1.31,0.997,1.851
				c0.078,0.094,0.191,0.193,0.308,0.158c0.069-0.021,0.116-0.084,0.154-0.146c0-0.161,0.227-0.457,0.272-0.633
				c0.063-0.244,0.084-0.496,0.068-0.747c-0.016,0.005,0.024,0.048-0.028,0.042C247.106,242.29,247.078,241.72,246.857,241.366z"/>
			<path style="fill:#7759BB;" d="M236.96,328.934c-0.065,0.483-0.128,0.984,0.022,1.447c0.3,0.93,1.396,1.409,2.37,1.324
				c0.974-0.085,1.851-0.599,2.686-1.106c1.366-0.83,2.731-1.685,3.902-2.773c0.441-0.41,0.861-0.863,1.104-1.414
				c0.243-0.551,0.286-1.219-0.013-1.741c-0.464-0.812-1.584-1.014-2.49-0.781c-0.906,0.232-1.689,0.789-2.537,1.183
				c-1.154,0.536-1.834,0.942-3.017,1.399C237.575,327.016,237.151,327.511,236.96,328.934z"/>
			<path style="fill:#CCBAF8;" d="M235.399,283.818c-0.246,3.022,0.292,6.045,0.732,9.045c0.463,3.152,0.82,6.32,1.071,9.496
				c0.077,0.978,0.144,1.963,0.043,2.939c-0.164,1.578-0.761,3.076-1.081,4.63c-0.543,2.637-0.278,5.366-0.01,8.045
				c0.177,1.774,0.354,3.549,0.531,5.323c0.168,1.682,0.339,3.379,0.85,4.99c1.503,0.549,2.345-0.06,2.874-0.573
				c0.277-4.658,1.029-9.287,2.241-13.793c0.38-1.411,0.805-2.814,1.05-4.255c0.277-1.627,0.32-3.283,0.431-4.93
				c0.42-6.289,1.817-12.558,1.254-18.836c-0.218-2.427-0.727-4.818-1.234-7.202c-0.046-0.216-0.099-0.445-0.254-0.602
				c-0.174-0.176-0.437-0.222-0.682-0.259c-1.29-0.196-2.579-0.392-3.869-0.588c-0.782-0.119-1.813-0.496-2.436,0.165
				c-0.612,0.649-0.734,2.104-0.932,2.939C235.708,281.492,235.493,282.648,235.399,283.818z"/>
			<path style="fill:#7759BB;" d="M249.784,331.496c-0.085,0.507-0.17,1.034-0.033,1.529c0.281,1.016,1.438,1.582,2.491,1.539
				c1.053-0.043,2.024-0.548,2.955-1.042c1.454-0.771,2.91-1.543,4.292-2.436c0.806-0.52,1.618-1.119,2.024-1.988
				c0.405-0.869,0.244-2.073-0.586-2.551c-0.901-0.519-2.01,0.011-2.981,0.382c-1.046,0.4-2.153,0.609-3.253,0.816
				c-1.115,0.21-3.026,0.193-3.999,0.756C249.85,328.992,249.941,330.564,249.784,331.496z"/>
			<path style="fill:#CCBAF8;" d="M242.916,289.417c0.636,0.952,1.402,1.815,2.002,2.79c0.82,1.331,1.31,2.835,1.793,4.323
				c1.321,4.073,2.656,8.22,2.725,12.501c0.048,2.998-0.527,5.973-0.604,8.97c-0.051,1.994,0.119,3.986,0.288,5.973
				c0.174,2.039,0.348,4.078,0.522,6.117c1.659,0.157,3.364-0.198,4.822-1.005c-0.28-5.044,0.257-10.105,1.125-15.082
				c0.419-2.404,0.916-4.799,1.133-7.229c0.398-4.46-0.154-8.944-0.706-13.388c-0.684-5.514-1.382-11.084-3.307-16.296
				c0.13,0.353-9.256,1.26-10.065,1.34c-2.994,0.3-2.177,3.91-1.729,6.079C241.274,286.251,241.927,287.936,242.916,289.417z"/>
			<path style="fill:#5E45A5;" d="M236.425,264.49c-0.317-0.244-1.1-0.168-1.498-0.245c-0.221-0.043-0.518-0.113-0.688-0.275
				c-0.262-0.25-0.136-0.546-0.069-0.909c0.276-1.504,0.274-3.132,0.206-4.683c-0.023-0.526-0.119-1.035-0.118-1.567
				c0-0.366,0.101-0.61,0.188-0.939c0.552,0.596,0.413,2.009,0.629,2.779c0.227,0.809,0.48,1.624,0.638,2.446
				c0.115,0.596,0.04,1.226,0.169,1.828C235.953,263.266,236.134,264.114,236.425,264.49z"/>
			<path style="fill:#AFA1E4;" d="M240.77,302.149c0.299,1.01,0.641,2.014,0.784,3.057c0.165,1.203,0.061,2.425-0.044,3.635
				c-0.119,1.374-0.238,2.747-0.357,4.121c-0.308,3.553-0.572,7.115-1.148,10.634c-0.231,1.412,0.252,2.55,0.402,4.135
				c1.382-4.479,2.013-8.686,2.868-13.295c0.963-5.192,1.244-10.483,1.523-15.756c0.081-1.523,0.161-3.045,0.242-4.568
				c0.041-0.772,0.071-1.592-0.311-2.265c-0.38-0.67-1.095-1.063-1.748-1.472c-1.688-1.057-2.772-2.578-4.249-3.805
				c-0.527,0.702-0.041,2.532,0.028,3.375c0.112,1.375,0.242,2.748,0.41,4.117C239.504,296.794,239.99,299.51,240.77,302.149z"/>
			<path style="fill:#7759BB;" d="M253.236,267.843c0.101-0.938,0.246-1.875,0.241-2.818c-0.01-1.705-0.508-3.365-1.001-4.997
				c-0.664-2.194-1.328-4.389-1.992-6.583c-0.243-0.803-0.489-1.614-0.896-2.348c-1.069,0.18-2.179,0.109-3.217-0.205l0.153,0.105
				c-1.435,1.211-3.339,1.845-5.212,1.753c0.001-0.004,0.002-0.007,0.003-0.01c-0.205-0.1-0.552-0.068-0.808-0.182
				c-0.223-0.099-0.467-0.235-0.675-0.366c-0.323-0.203-0.701-0.652-0.531-1.057c-0.601,0.439-1.032,0.585-1.771,0.619
				c-0.523,0.024-1.163,0.069-1.579,0.426c-0.712,0.611-1.102,1.547-1.26,2.475c-0.014,0.043-0.03,0.086-0.043,0.129
				c-0.231,0.799-0.163,1.65-0.085,2.478c0.165,1.733,0.37,3.468,0.794,5.156c0.265,1.058,0.615,2.096,0.811,3.169
				c0.788,4.323-0.985,8.816-0.156,13.132c0.526-0.039,0.96,0.37,1.374,0.697c1.402,1.11,3.252,1.499,5.04,1.542
				c1.788,0.043,3.568-0.224,5.356-0.268c2.036-0.051,4.31,0.111,5.845-1.228C253.149,275.608,252.82,271.705,253.236,267.843z"/>
			<path style="fill:#5E45A5;" d="M249.326,252.591c-0.56-0.331-1.326-0.012-1.691,0.527c-0.364,0.539-0.424,1.223-0.438,1.874
				c-0.081,3.908,1.079,7.733,1.4,11.629c0.068,0.824,0.097,1.664-0.109,2.465c-0.2,0.774-0.611,1.477-0.867,2.235
				c-0.502,1.488-0.383,3.115-0.103,4.661c0.28,1.546,0.714,3.069,0.827,4.636c1.932-0.105,3.849-0.501,5.664-1.17
				c0.113-0.042,0.235-0.092,0.294-0.198c0.061-0.108,0.037-0.242,0.012-0.363c-0.742-3.672-0.697-7.457-0.45-11.194
				c0.063-0.949,0.138-1.902,0.066-2.85c-0.067-0.873-0.258-1.731-0.451-2.585c-0.465-2.065-0.985-4.221-2.382-5.812
				c-0.512-0.583-1.13-1.075-1.564-1.718c-0.434-0.643-0.653-1.516-0.272-2.192c0.175,0.265,0.351,0.53,0.526,0.795"/>
			<path style="fill:#D1A37E;" d="M272.156,251.664c-0.093,0.356-0.115,0.74-0.233,1.093c-0.058,0.068-0.123,0.133-0.189,0.192
				c-0.472,0.42-1.071,0.64-1.659,0.844c-3.476,1.202-7.069,2.094-10.729,2.568c0.003-0.338-0.003-0.726,0.2-0.901
				c0.331-0.285,1.013-0.203,1.416-0.315c0.971-0.27,1.837-0.593,2.839-0.695c0.949-0.096,1.727-0.232,2.64-0.476
				c0.943-0.252,1.997-0.413,2.932-0.798C270.334,252.778,271.279,252.193,272.156,251.664z"/>
			<path style="fill:#7759BB;" d="M249.059,251.441c0.627-0.41,1.331-0.684,2.03-0.955c0.552-0.214,1.105-0.428,1.657-0.643
				c0.5-0.194,1.001-0.388,1.516-0.538c0.507-0.148,1.026-0.251,1.544-0.355c0.886-0.177,1.772-0.354,2.658-0.532
				c1.391,2.954,1.765,6.375,1.046,9.56c-1.416,0.201-2.847,0.3-4.277,0.298c-1.4-0.003-2.822-0.107-4.135-0.591
				c-1.289-0.475-2.62-1.489-3.392-2.645C246.854,253.766,247.989,252.141,249.059,251.441z"/>
			<path style="fill:#B0B0B0;" d="M245.435,249.27c0.092,0.095,0.038,0.06-0.025,0.002
				C245.409,249.272,245.427,249.272,245.435,249.27z"/>
		</g>
		<g style="clip-path:url(#SVGID_00000021810730857479697560000003809978273886419587_);">
			<polygon style="fill:#C4DFF8;" points="79.776,287.19 98.807,298.178 117.839,287.19 98.807,276.202 			"/>
			<polygon style="fill:#C4DFF8;" points="125.418,262.461 106.386,273.448 125.418,284.436 144.449,273.448 			"/>
			<polygon style="fill:#C4DFF8;" points="168.006,258.18 148.975,247.192 129.943,258.18 148.975,269.168 			"/>
			<polygon style="fill:#C4DFF8;" points="195.708,245.093 176.676,234.105 157.645,245.093 176.676,256.081 			"/>
			<polygon style="fill:#C4DFF8;" points="223.191,232.224 204.159,221.236 185.128,232.224 204.159,243.212 			"/>
			<g>
				<g>
					<polygon style="fill:#9078CB;" points="196.692,238.789 179.959,229.128 179.959,164.756 196.692,174.417 					"/>
					<polygon style="fill:#7759BF;" points="213.426,229.128 196.692,238.789 196.692,174.417 213.426,164.756 					"/>
					<polygon style="fill:#E2D7FD;" points="196.692,174.422 179.959,164.761 196.692,155.1 213.426,164.761 					"/>
				</g>
				<g>
					<polygon style="fill:#9078CB;" points="171.592,253.281 154.858,243.62 154.858,199.27 171.592,208.931 					"/>
					<polygon style="fill:#7759BF;" points="188.326,243.62 171.592,253.281 171.592,208.931 188.326,199.27 					"/>
					<polygon style="fill:#E2D7FD;" points="171.592,208.936 154.858,199.275 171.592,189.614 188.326,199.275 					"/>
				</g>
				<g>
					<polygon style="fill:#9078CB;" points="146.492,267.772 129.758,258.111 129.758,238.789 146.492,248.45 					"/>
					<polygon style="fill:#7759BF;" points="163.225,258.111 146.492,267.772 146.492,248.45 163.225,238.789 					"/>
					<polygon style="fill:#E2D7FD;" points="146.492,248.455 129.758,238.794 146.492,229.133 163.225,238.794 					"/>
				</g>
				<g>
					<polygon style="fill:#9078CB;" points="121.391,282.264 104.658,272.603 104.658,236.596 121.391,246.257 					"/>
					<polygon style="fill:#7759BF;" points="138.125,272.603 121.391,282.264 121.391,246.257 138.125,236.596 					"/>
					<polygon style="fill:#E2D7FD;" points="121.391,246.262 104.658,236.601 121.391,226.939 138.125,236.601 					"/>
				</g>
				<g>
					<polygon style="fill:#9078CB;" points="96.291,296.756 79.558,287.095 79.558,267.772 96.291,277.434 					"/>
					<polygon style="fill:#7759BF;" points="113.025,287.095 96.291,296.756 96.291,277.434 113.025,267.772 					"/>
					<polygon style="fill:#E2D7FD;" points="96.291,277.438 79.558,267.777 96.291,258.116 113.025,267.777 					"/>
				</g>
			</g>
		</g>
		<g style="clip-path:url(#SVGID_00000021810730857479697560000003809978273886419587_);">
			<path style="fill:#D1A37E;" d="M197.838,125.809c-0.249,0.136-1.023,0.736-1.842,1.12c-1.306,0.477-2.155-0.204-2.84,1.567
				c-0.18-0.18-0.507-0.211-0.729-0.08c-0.625,0.365-0.107,0.967,0.136,1.662c0.25,0.073,0.384,0.261,0.384,1.351
				c0,1.125,0.039,1.757-0.267,2.833c-0.04,0.686,0.007,0.797,0.07,0.993c0.134,0.416,1.393,1.943,3.785,2.018
				c0.987,0.041,1.992-0.419,2.373-0.845c0.383-0.433,0.558-0.922,0.542-2.799C199.428,130.318,200.112,124.525,197.838,125.809"/>
			<path style="fill:#D1A37E;" d="M177.598,166.257c-0.907,0-1.613,0.186-2.376,0.953c-0.142,0.142-0.368,0.447-0.334,0.403
				c-0.568,0.732-0.84,3.694-0.808,3.445c0,0.068,0.009,0.133,0.027,0.194c-0.002,0.214,0.275,3.613,0.528,5.242
				c0.112,0.876,0.543,7.57,0.527,7.253c0.446,8.989,0.836,5.141-1.463,12.835c-0.29,0.967-0.894,1.697,0.086,2.05
				c0.218,0.077,1.35,0.255,2.039,0.255c0.791,0,1.424-0.133,2.477-1.769c2.092-3.244,3.223-4.34,2.74-5.624
				c-0.588-1.544-1.049-1.037-1.042-2.95c0.013-1.822,1.081-5.505,1.314-7.276h0.001c0.379-2.63-0.041-3.35-0.588-4.845
				c-0.682-1.866-1.112-3.545-0.332-5.431C181.058,169.439,183.778,166.257,177.598,166.257"/>
			<path style="fill:#E8BF98;" d="M188.136,162.859c-1.631,0-3.187,0.782-7.454,1.401c-8.703,1.183-7.728-0.355-14.424,8.3
				l0.004-0.004c-2.422,2.675-3.364,6.201-7.811,8.628c-0.068,0.037-3.744,2.202-3.939,2.348c-0.551,0.41-0.772,0.625-0.903,0.959
				c-0.162,0.413-0.06,0.88,0.453,1.321c1.035,0.894,2.354,0.85,3.237,0.83c1.638-0.034,2.424-0.142,3.925-0.782l-0.04,0.016
				c0.249-0.108,3.353-1.638,3.971-2.418c1.726-2.159-0.507-2.976,2.306-5.183l-0.033,0.02c5.827-4.332,5.7-4.182,6.618-5.802
				c0.961-1.7,1.278-1.986,1.773-2.237c0.584-0.193,2.749-0.644,4.242-0.644c6.881,0,8.253,0.648,9.546-0.78
				c1.265-1.39,1.671-4.645,0.167-5.649C189.412,162.944,188.542,162.859,188.136,162.859"/>
			<g>
				<path style="fill:#F4F4F4;" d="M182.491,172.79c-0.001-0.002-0.002-0.003-0.003-0.005
					C182.498,172.803,182.498,172.803,182.491,172.79z"/>
				<path style="fill:#83D3FC;" d="M201.817,159.26c-0.081-1.522,0.252-2.983-1.263-2.983c-0.496,0.007-1.768,0.331-1.519,0.274
					c-2.397,0.55-1.579,0.43-3.974,0.43c-2.553,0-3.48-0.793-5.826-1.777c-1.315-0.596-1.343-0.799-1.758-1.321
					c-0.045-0.055-0.174-0.204-0.168-0.197c-0.174-0.249-0.388-0.661-0.988-0.661c-0.668,0-0.337,0.345-2.786,1.404
					c-7.594,3.118-4.658,1.623-9.044,6.23c-0.656,0.688-1.384,2.051-1.772,2.874c-0.144,0.193-0.322,0.483-0.578,0.822
					c-0.106,0.14-0.72,0.896-0.72,1.067c0,0.051,0.015,0.098,0.036,0.14c-0.01,0.105,0.01,0.214,0.065,0.308
					c0.329,0.562,0.904,0.046,1.251-0.125c1.106-0.394,2.157-0.123,3.163,0.205c2.659,0.882,3.739,2.467,4.101,2.905
					c0.896,1.085,2.364,3.767,2.454,3.937c0.58,1.023,3.097,0.871,4.219,0.714l0,0.001l0.001,0v-0.001
					c0.114,0,0.812-0.146,0.925-0.164C197.622,171.923,202.32,168.831,201.817,159.26z M171.943,164.637
					C171.897,164.695,171.908,164.679,171.943,164.637L171.943,164.637z"/>
			</g>
			<path style="fill:#1C1C1C;" d="M192.893,130.613C192.885,130.548,192.883,130.537,192.893,130.613"/>
			<path style="fill:#1C1C1C;" d="M192.893,130.622C192.893,130.611,192.892,130.609,192.893,130.622"/>
			<path style="fill:#1C1C1C;" d="M195.369,159.714C195.374,159.714,195.382,159.713,195.369,159.714"/>
			<path style="fill:#1C1C1C;" d="M195.364,159.715C195.373,159.714,195.369,159.713,195.364,159.715"/>
			<path style="fill:#1C1C1C;" d="M193.955,159.898C193.955,159.898,193.961,159.898,193.955,159.898"/>
			<polyline style="fill:#1C1C1C;" points="193.947,159.899 193.947,159.899 193.947,159.899 			"/>
			<path style="fill:#1C1C1C;" d="M195.265,159.728C195.269,159.728,195.27,159.728,195.265,159.728"/>
			<path style="fill:#1C1C1C;" d="M195.26,159.729C195.26,159.729,195.267,159.729,195.26,159.729"/>
			<path style="fill:#523972;" d="M208.858,141.112l0.002,0.067c-0.184-1.509-1.273-4.977-3.287-6.479l0.075,0.065
				c-1.094-0.86-2.456-1.504-2.456-1.504c-0.855-0.383-1.402-0.947-1.989-0.137c-0.179,0.249-0.288,0.614-1.516,1.626l-0.818,0.552
				c-1.079,0.634-1.82,0.875-3.292,0.932c-1.136,0.05-1.074-0.008-1.895-1.323c-0.51-0.833-0.35-1.527-0.35-2.359
				c0.249-0.815,0.291-0.908,0.485-1.203c0.47-0.714,0.346-1.457-0.646-1.616l-0.035-0.005c0.007,0,0.015,0.003,0.022,0.005
				c-0.065-0.008-0.129-0.013-0.196-0.013c-0.962,0-2.72,0.375-2.973,0.42c-1.196,0.209-1.822,0.567-2.757,1.293l0.042-0.027
				c-0.224,0.176-0.358,0.365-0.358,0.365c-1.571,2.014-0.194-0.433-4.045,8.485l0.077-0.169c-0.96,2.168-0.751,2.446-1.405,4.12
				c-0.699,1.36-0.95,1.584-0.154,2.27c0.187,0.162,0.428,0.348,0.733,0.577c1.069,0.838,1.432,0.91,1.959,1.042
				c0.032,0.008,0.065,0.017,0.097,0.025c0.408,0.097,0.813,0.124,1.129-0.129c0.512,2.285,0.691,0.169,1.208,4.204
				c0.092,0.686,0.067,1.034,0.191,1.798c0.072,0.589,0.196,0.654,0.313,1.33c0.025,0.351-0.311,1.574,2.787,2.474
				c3.269,0.945,6.862,1.131,8.871,0.83l-0.07,0.005c0.572-0.075,1.397-0.236,1.922-0.445c0.982-0.408,0.525-0.273,1.83-4.788
				c0,0,0.833-2.7,0.932-3.033c0.015,1.581,0.119,3.965,0.119,3.97c0,2.18-0.114,2.799,0.723,3.085
				c0.251,0.087,0.587,0.142,1.039,0.201l-0.03-0.01c0.803,0.109,2.175-0.092,2.715-0.467c0.122-0.085,0.229-0.162,0.323-0.241
				c0.823-0.676,0.686-1.362,0.669-6.817C208.843,147.067,209.271,143.964,208.858,141.112z"/>
			<path style="fill:#D3C2FC;" d="M190.332,124.005v-0.003C190.245,123.988,190.287,123.993,190.332,124.005"/>
			<path style="fill:#D3C2FC;" d="M191.81,130.775C191.798,130.762,191.8,130.763,191.81,130.775"/>
			<path style="fill:#D3C2FC;" d="M191.813,130.779C191.808,130.774,191.808,130.774,191.813,130.779"/>
			<path style="fill:#523972;" d="M164.804,182.508c-0.66,0.472-1.462,0.69-2.246,0.899c-0.671,0.179-1.353,0.359-2.047,0.332
				c-0.91-0.035-1.764-0.424-2.59-0.809c-0.264-0.123-0.544-0.26-0.693-0.511c-0.149-0.251-0.086-0.647,0.191-0.738
				c-0.528,0.577-1.345,0.784-2.122,0.872c-0.777,0.088-1.578,0.087-2.31,0.362c-0.387,0.145-0.77,0.395-0.912,0.784
				c-0.12,0.329-0.044,0.698,0.081,1.025c0.383,0.997,1.211,1.782,2.162,2.268c0.951,0.486,2.021,0.698,3.085,0.792
				c0.379,0.034,0.78,0.049,1.121-0.12c0.304-0.151,0.521-0.43,0.762-0.669c0.583-0.577,1.348-0.943,2.138-1.167
				c0.79-0.223,1.61-0.312,2.426-0.4c-0.637,0.651-1.188,1.386-1.635,2.179c0.171,0.123,0.415,0.098,0.598-0.006
				c0.183-0.104,0.32-0.272,0.451-0.437c0.57-0.712,1.14-1.424,1.711-2.137c0.548-0.684,1.106-1.388,1.377-2.222
				c0.095-0.292,0.33-2.217-0.27-2.135c-0.239,0.033-0.37,0.748-0.465,0.926C165.423,181.958,165.135,182.27,164.804,182.508z"/>
			<path style="fill:#523972;" d="M181.497,192.905c0.214-0.59,0.377-1.237,0.201-1.839c-0.16-0.546-0.785-1.146-1.385-0.933
				c0.879,2.181-1.192,4.181-2.669,5.578c-0.551,0.521-1.273,1.023-2.009,0.84c-0.638-0.158-1.057-0.807-1.152-1.457
				c-0.095-0.65,0.125-1.281,0.286-1.918c-0.043,0.077-0.086,0.163-0.129,0.258c-0.057,0.052-0.11,0.199-0.154,0.372
				c-0.109,0.283-0.221,0.612-0.338,0.973c-0.42,1.09-0.852,2.199-1.433,3.245c-0.371,0.667-0.857,1.268-1.18,1.959
				c-0.079,0.169-0.142,0.384-0.06,0.54c-0.007,0.077-0.007,0.155,0.011,0.234c0.089,0.381,0.481,0.608,0.855,0.722
				c0.852,0.262,1.784,0.174,2.63-0.11c0.846-0.283,1.616-0.752,2.353-1.255c0.431-0.294,0.862-0.611,1.153-1.044
				c0.254-0.377,0.379-0.8,0.443-1.246c0.573-0.895,1-1.897,1.327-2.91c0.046,0.831,0.092,1.661,0.138,2.491
				c0.437-0.218,0.626-0.75,0.644-1.239c0.019-0.489-0.09-0.976-0.058-1.464C181.013,194.079,181.283,193.495,181.497,192.905z"/>
			<path style="fill:#E8BF98;" d="M194.936,118.327c-0.702,0-1.576,0.368-2.603,0.87c-5.581,2.706-1.497,10.449-0.185,12.076
				c0.953,1.298,1.598,1.82,2.737,0.76c1.484-1.386,2.773-3.119,3.524-4.405c1.283-2.185,1.434-6.486-1.383-8.534
				C196.495,118.713,195.649,118.327,194.936,118.327"/>
			<path style="fill:#7759BB;" d="M193.057,111.858c-3.018,0.947-3.906,2.391-4.875,5.469c-0.279,0.862-0.401,1.005-0.566,1.601
				c-0.421,1.543-0.559,1.706-0.909,2.197c-2.389,3.366,0.613,7.643,0.092,13.372c-0.044,0.249-0.19,0.781-0.175,0.723
				c-0.857,3.268-0.676,4.188,0.103,6.617c0.088,0.274,0.26,0.936,0.913,0.936c0.594,0,0.856-0.394,1.012-0.967
				c0.764-2.658,1.999-3.812,2.39-5.938c0.477-2.549,0.652-1.433,0.947-3.871l-0.011,0.038c0.15-1.14-0.021-1.061-0.176-1.27h0
				c-1.149-1.434-2.207-6.084-2.119-6.405c0.069-0.249,0.424-0.51,0.885-0.277c2.66,0.519,5.607-0.006,5.856-0.073
				c-0.027,1.59,0.364,1.617,1.188,3.072c2.34,4.213-1.502,11.425-1.173,15.803c0.079,1.011-0.161,1.946,0.817,2.265
				c1.519,0.482,2.294-0.489,2.848-1.027c1.274-1.241,2.237-3.05,2.41-4.12c0.274-1.697,0.152-1.558,0.645-2.833l0.002,0.001
				c0.784-1.79,2.141-4.905,2.45-7.242l-0.025,0.147c0.376-2.331-0.032-3.42-0.954-5.54c-2.058-4.708-0.942-6.884-2.846-9.393
				c-0.189-0.249-1.468-1.765-2.965-2.537C197.056,111.699,194.562,111.385,193.057,111.858"/>
			<g>
				<polygon style="fill:#523972;" points="167.527,162.116 180.707,155.256 197.129,163.403 198.666,163.403 198.666,164.174 
					198.652,164.174 185.548,171.331 				"/>
				<polygon style="fill:#9477C9;" points="185.548,170.601 198.666,163.436 180.707,154.527 167.527,161.386 				"/>
				<polygon style="fill:#D0BEFC;" points="160.535,149.129 161.112,148.697 179.06,157.923 186.185,170.982 185.548,171.331 
					184.052,170.242 184.489,170.062 168.104,161.683 161.957,150.267 161.711,150.523 				"/>
				<polygon style="fill:#9477C9;" points="185.548,171.331 178.483,158.356 160.535,149.129 167.527,162.116 				"/>
				<path style="fill:#D0BEFC;" d="M181.77,160.505l3.703,2.138c0.417,0.241,1.047,0.267,1.408,0.058l2.626-1.516
					c0.361-0.208,0.316-0.572-0.101-0.813l-3.703-2.138c-0.417-0.241-1.047-0.267-1.408-0.058l-2.626,1.516
					C181.308,159.901,181.353,160.265,181.77,160.505z"/>
			</g>
			<path style="fill:#E8BF98;" d="M207.913,160l0.042-0.082c-0.234,0.594-0.423,1.096-1.042,1.579l0.045-0.03
				c-1.226,0.985-1.447,1.062-7.125,1.019c-0.793-0.007-2.727-0.04-4.689,0.154h0.02c-0.584,0.079-1.919,0.84-2.471,1.042
				c-0.005,0.003-0.01,0.005-0.01,0.005c-0.027,0.012-0.027,0.01-0.087,0.035c0,0-0.661,0.301-1.492,0.435
				c-1.325,0.169-4.209,0.246-3.59-0.905c0.137-0.251,0.4-1.044,1.268-1.643c1.768-1.206,1.447-1.206,5.146-1.705
				c0.007-0.003,0.02-0.005,0.02-0.005c0.062-0.007,1.313-0.167,1.32-0.169c0.022-0.003,0.072-0.01,0.094-0.012
				c0.84-0.117,1.039-0.117,1.544-0.189c1.512-0.204,4.714-0.913,6.365-1.062c0.758-0.067,0.87,0.02,0.863-1.044
				c0.251,0.087,0.587,0.142,1.039,0.201l-0.03-0.01c0.803,0.109,2.175-0.092,2.715-0.467c0.122-0.085,0.229-0.162,0.323-0.241
				C208.222,158.379,208.299,159.162,207.913,160z"/>
			<path style="fill:#E8BF98;" d="M183.268,159.57c-0.169-0.318-0.326-0.559-0.373-0.659c-0.316-0.671-0.502-2.208-0.5-2.523
				c0.01-0.875-0.465-1.012-1.014-2.755c-0.122-0.378-0.629-3.083-0.656-3.332l0.005,0.067c-0.052-0.365-0.077-0.684-0.077-0.684
				c-0.147-1.452,0.254-2.25,0.736-3.207c0.187,0.162,0.428,0.348,0.733,0.577c1.069,0.838,1.432,0.91,1.959,1.042
				c0.032,0.008,0.065,0.017,0.097,0.025c-0.114,0.43-0.184,0.905-0.184,1.444c-0.017,0.251-0.027,0.51-0.027,0.773
				c0,1.909,0.445,4.092,1.144,6.059l0.127,0.313C186.55,159.816,184.36,161.65,183.268,159.57z"/>
		</g>
	</g>
</g>
<g id="DESIGNED_BY_FREEPIK">
	<g>
		<g id="XMLID_319_">
			<g id="XMLID_338_">
				<path id="XMLID_346_" style="fill:#222221;" d="M260.104,465.465c-0.433,0.443-0.804,0.932-1.108,1.453l-0.465-0.241
					c-0.067-0.297-0.35-0.502-0.659-0.466c-0.331,0.039-0.567,0.339-0.529,0.67c0.039,0.331,0.339,0.567,0.67,0.528
					c0.065-0.007,0.127-0.025,0.184-0.052l0.451,0.234c-0.251,0.554-0.433,1.139-0.539,1.743l0.747,0.132
					c0.23-1.306,0.85-2.507,1.792-3.473L260.104,465.465z"/>
				<path id="XMLID_345_" style="fill:#222221;" d="M265.591,463.164c-0.171,0-0.341,0.006-0.509,0.017l-0.074-0.626
					c0.188-0.149,0.296-0.389,0.266-0.645c-0.046-0.393-0.402-0.674-0.795-0.628c-0.394,0.046-0.675,0.402-0.628,0.796
					c0.03,0.254,0.189,0.461,0.404,0.563l0.073,0.624c-0.714,0.116-1.402,0.332-2.06,0.646l0.327,0.685
					c0.935-0.447,1.941-0.674,2.995-0.674c0.497,0,0.993,0.053,1.476,0.158l0.16-0.741
					C266.692,463.222,266.142,463.164,265.591,463.164z"/>
				<path id="XMLID_344_" style="fill:#222221;" d="M272.194,465.711c0.331-0.04,0.566-0.341,0.525-0.672
					c-0.04-0.331-0.341-0.566-0.672-0.525c-0.31,0.038-0.535,0.304-0.53,0.608l-0.416,0.363c-0.418-0.43-0.89-0.813-1.407-1.14
					l-0.404,0.642c1.135,0.715,2.021,1.727,2.564,2.925l0.69-0.313c-0.251-0.554-0.567-1.071-0.942-1.545l0.402-0.351
					C272.065,465.715,272.128,465.719,272.194,465.711z"/>
				<path id="XMLID_343_" style="fill:#222221;" d="M265.044,473.372c-0.386,0.023-0.775,0.035-1.157,0.035
					c-0.88,0-1.733-0.061-2.479-0.18c-0.391-0.062-0.846-0.154-1.271-0.292c1.047,1.861,3.069,3.125,5.389,3.125
					c2.855,0,5.263-1.916,5.949-4.503c-0.682,0.449-1.505,0.825-2.458,1.122C267.838,473.047,266.463,473.287,265.044,473.372z"/>
				<path id="XMLID_339_" style="fill:#222221;" d="M265.591,464.68c-3.351,0-6.079,2.666-6.079,5.943
					c0,0.425,0.046,0.849,0.137,1.261c0.674,0.483,2.706,0.891,5.348,0.731c2.88-0.174,5.297-0.958,6.672-2.159
					c-0.005-0.194-0.021-0.39-0.045-0.581C271.244,466.914,268.65,464.68,265.591,464.68z M263.432,471.195
					c-1.02,0-1.85-0.83-1.85-1.85c0-1.021,0.83-1.851,1.85-1.851c1.02,0,1.85,0.83,1.85,1.851
					C265.282,470.365,264.452,471.195,263.432,471.195z M268.169,470.287c-0.75,0-1.36-0.61-1.36-1.36s0.61-1.36,1.36-1.36
					s1.36,0.61,1.36,1.36S268.919,470.287,268.169,470.287z"/>
			</g>
			<path id="XMLID_336_" style="fill:#222221;" d="M281.595,466.547c-0.295-0.116-0.806-0.31-1.383-0.238
				c-0.551,0.069-0.844,0.341-0.844,1.007v0.866h2.229v1.717h-2.229v5.455h-1.932v-5.455h-1.339v-1.717h1.339v-0.889
				c0-1.68,0.896-2.782,2.568-2.782c0.643,0,1.157,0.121,1.59,0.308V466.547z"/>
			<path id="XMLID_334_" style="fill:#222221;" d="M286.297,469.878c-0.177-0.029-0.357-0.046-0.525-0.046
				c-0.896,0-1.51,0.548-1.51,1.613v3.908h-1.933v-7.172h1.873v0.784c0.451-0.673,1.14-0.977,2.021-0.977
				c0.414,0,0.848,0.128,1.095,0.337L286.297,469.878z"/>
			<path id="XMLID_331_" style="fill:#222221;" d="M293.965,471.757c0,0.222-0.016,0.488-0.037,0.651h-5.085
				c0.207,1.036,0.933,1.487,1.843,1.487c0.622,0,1.295-0.252,1.813-0.689l1.133,1.243c-0.814,0.748-1.851,1.089-3.057,1.089
				c-2.198,0-3.724-1.496-3.724-3.753c0-2.258,1.48-3.797,3.627-3.797C292.543,467.99,293.958,469.522,293.965,471.757z
				 M288.851,471.091h3.175c-0.178-0.918-0.732-1.437-1.562-1.437C289.554,469.655,289.021,470.203,288.851,471.091z"/>
			<path id="XMLID_328_" style="fill:#222221;" d="M301.619,471.757c0,0.222-0.016,0.488-0.037,0.651h-5.085
				c0.207,1.036,0.933,1.487,1.843,1.487c0.622,0,1.296-0.252,1.814-0.689l1.133,1.243c-0.815,0.748-1.851,1.089-3.058,1.089
				c-2.198,0-3.723-1.496-3.723-3.753c0-2.258,1.48-3.797,3.627-3.797C300.197,467.99,301.611,469.522,301.619,471.757z
				 M296.504,471.091h3.175c-0.178-0.918-0.733-1.437-1.561-1.437C297.208,469.655,296.674,470.203,296.504,471.091z"/>
			<path id="XMLID_325_" style="fill:#222221;" d="M309.964,471.764c0,2.154-1.495,3.775-3.472,3.775
				c-0.962,0-1.644-0.378-2.109-0.933v3.708h-1.925v-10.133h1.888v0.792c0.467-0.585,1.154-0.984,2.139-0.984
				C308.469,467.99,309.964,469.611,309.964,471.764z M304.287,471.764c0,1.133,0.748,1.977,1.844,1.977
				c1.14,0,1.85-0.881,1.85-1.977c0-1.095-0.71-1.976-1.85-1.976C305.035,469.789,304.287,470.632,304.287,471.764z"/>
			<path id="XMLID_322_" style="fill:#222221;" d="M313.068,465.836c0,0.696-0.541,1.229-1.236,1.229
				c-0.696,0-1.229-0.533-1.229-1.229c0-0.695,0.532-1.243,1.229-1.243C312.527,464.592,313.068,465.14,313.068,465.836z
				 M312.808,475.354h-1.932v-7.172h1.932V475.354z"/>
			<path id="XMLID_320_" style="fill:#222221;" d="M316.032,470.736l2.702-2.554h2.368l-3.478,3.375l3.501,3.797h-2.376
				l-2.717-2.901v2.901H314.1v-10.658h1.932V470.736z"/>
		</g>
		<g>
			<path style="fill:#222221;" d="M184.412,475.29v-1.055c-0.527,0.718-1.391,1.23-2.387,1.23c-1.846,0-3.149-1.406-3.149-3.706
				c0-2.256,1.289-3.721,3.149-3.721c0.952,0,1.816,0.469,2.387,1.245v-3.765h1.099v9.771H184.412z M184.412,473.371v-3.208
				c-0.395-0.615-1.245-1.143-2.124-1.143c-1.42,0-2.27,1.172-2.27,2.739c0,1.567,0.85,2.725,2.27,2.725
				C183.167,474.484,184.017,473.986,184.412,473.371z"/>
			<path style="fill:#222221;" d="M186.932,471.745c0-2.051,1.465-3.706,3.486-3.706c2.139,0,3.398,1.67,3.398,3.794v0.278h-5.727
				c0.088,1.333,1.025,2.446,2.549,2.446c0.806,0,1.626-0.322,2.182-0.894l0.527,0.718c-0.703,0.703-1.655,1.084-2.812,1.084
				C188.44,475.465,186.932,473.957,186.932,471.745z M190.403,468.947c-1.509,0-2.256,1.274-2.314,2.358h4.644
				C192.718,470.25,192.015,468.947,190.403,468.947z"/>
			<path style="fill:#222221;" d="M194.607,474.352l0.571-0.791c0.469,0.542,1.362,1.011,2.329,1.011c1.084,0,1.67-0.513,1.67-1.216
				c0-1.714-4.38-0.659-4.38-3.281c0-1.099,0.952-2.036,2.636-2.036c1.202,0,2.051,0.454,2.623,1.025l-0.513,0.762
				c-0.424-0.513-1.201-0.894-2.109-0.894c-0.966,0-1.567,0.483-1.567,1.113c0,1.553,4.379,0.527,4.379,3.281
				c0,1.187-0.952,2.139-2.783,2.139C196.306,475.465,195.325,475.114,194.607,474.352z"/>
			<path style="fill:#222221;" d="M201.477,466.471c0-0.41,0.337-0.747,0.732-0.747c0.41,0,0.747,0.337,0.747,0.747
				c0,0.41-0.337,0.732-0.747,0.732C201.814,467.204,201.477,466.881,201.477,466.471z M201.667,475.29v-7.075h1.099v7.075H201.667z
				"/>
			<path style="fill:#222221;" d="M204.582,477.106l0.556-0.82c0.586,0.703,1.289,0.967,2.3,0.967c1.172,0,2.271-0.571,2.271-2.124
				v-1.011c-0.513,0.718-1.377,1.26-2.373,1.26c-1.846,0-3.149-1.377-3.149-3.662c0-2.271,1.289-3.677,3.149-3.677
				c0.952,0,1.802,0.469,2.373,1.245v-1.069h1.099v6.87c0,2.344-1.641,3.076-3.369,3.076
				C206.237,478.161,205.416,477.925,204.582,477.106z M209.708,473.253v-3.091c-0.381-0.615-1.23-1.143-2.109-1.143
				c-1.421,0-2.27,1.128-2.27,2.695c0,1.553,0.849,2.695,2.27,2.695C208.478,474.411,209.328,473.869,209.708,473.253z"/>
			<path style="fill:#222221;" d="M217.413,475.29v-4.629c0-1.245-0.63-1.641-1.582-1.641c-0.864,0-1.685,0.527-2.094,1.099v5.171
				h-1.099v-7.075h1.099v1.025c0.497-0.586,1.464-1.201,2.519-1.201c1.479,0,2.256,0.747,2.256,2.285v4.966H217.413z"/>
			<path style="fill:#222221;" d="M219.932,471.745c0-2.051,1.465-3.706,3.486-3.706c2.139,0,3.398,1.67,3.398,3.794v0.278h-5.727
				c0.088,1.333,1.025,2.446,2.548,2.446c0.806,0,1.626-0.322,2.183-0.894l0.527,0.718c-0.703,0.703-1.655,1.084-2.813,1.084
				C221.441,475.465,219.932,473.957,219.932,471.745z M223.404,468.947c-1.509,0-2.256,1.274-2.314,2.358h4.643
				C225.718,470.25,225.015,468.947,223.404,468.947z"/>
			<path style="fill:#222221;" d="M233.35,475.29v-1.055c-0.527,0.718-1.392,1.23-2.388,1.23c-1.845,0-3.149-1.406-3.149-3.706
				c0-2.256,1.289-3.721,3.149-3.721c0.952,0,1.817,0.469,2.388,1.245v-3.765h1.098v9.771H233.35z M233.35,473.371v-3.208
				c-0.396-0.615-1.245-1.143-2.124-1.143c-1.421,0-2.27,1.172-2.27,2.739c0,1.567,0.85,2.725,2.27,2.725
				C232.105,474.484,232.954,473.986,233.35,473.371z"/>
			<path style="fill:#222221;" d="M239.692,475.29v-9.771h1.099v3.765c0.571-0.776,1.421-1.245,2.388-1.245
				c1.845,0,3.149,1.465,3.149,3.721c0,2.3-1.304,3.706-3.149,3.706c-0.996,0-1.86-0.513-2.388-1.23v1.055H239.692z M242.9,474.484
				c1.436,0,2.285-1.157,2.285-2.725c0-1.567-0.85-2.739-2.285-2.739c-0.864,0-1.729,0.527-2.109,1.143v3.208
				C241.171,473.986,242.036,474.484,242.9,474.484z"/>
			<path style="fill:#222221;" d="M247.528,477.062c0.161,0.073,0.425,0.117,0.601,0.117c0.483,0,0.806-0.161,1.055-0.747
				l0.469-1.069l-2.959-7.148h1.187l2.358,5.801l2.344-5.801h1.2l-3.544,8.511c-0.425,1.024-1.143,1.421-2.08,1.436
				c-0.234,0-0.6-0.044-0.806-0.104L247.528,477.062z"/>
		</g>
	</g>
</g>
</svg>
