<?xml version="1.0" encoding="utf-8"?>
<!-- Generator: Adobe Illustrator 27.5.0, SVG Export Plug-In . SVG Version: 6.00 Build 0)  -->
<svg version="1.1" xmlns="http://www.w3.org/2000/svg" xmlns:xlink="http://www.w3.org/1999/xlink" x="0px" y="0px"
	 viewBox="0 0 750 500" style="enable-background:new 0 0 750 500;" xml:space="preserve">
<g id="BACKGROUND">
	<rect style="fill:#FFFFFF;" width="750" height="500"/>
</g>
<g id="OBJECTS">
	<g>
		<path style="fill-rule:evenodd;clip-rule:evenodd;fill:#F0EEF6;" d="M590.916,437.939
			c156.555-123.944-26.287-258.627-103.562-176.011c77.901-266.353-407.84-286.692-297.735-3.913c0,0-186.41,6.259-72.494,170.537
			L590.916,437.939L590.916,437.939z M147.698,189.961c8.887,43.778-25.357,65.922-50.191,66.585
			c-15.639,0.417-23.906-8.231-24.87-18.588c-1.84-19.78,14.563-27.37,30.058-31.659c7.981-2.209,15.854-5.294,18.98-14.481
			C128.58,171.538,142.752,165.6,147.698,189.961L147.698,189.961z M607.736,431.977c0,0,57.82-31.784,53.086-104.146
			c0,0-0.168-1.858,1.101-1.943c1.267-0.085,21.387,58.327-21.219,101.607L607.736,431.977z"/>
		<g>
			<rect x="300.081" y="245.75" style="fill-rule:evenodd;clip-rule:evenodd;fill:#6354A1;" width="17.498" height="171.893"/>
			<path style="fill-rule:evenodd;clip-rule:evenodd;fill:#7A72B3;" d="M328.32,424.19h-38.979c-3.6,0-6.546-2.945-6.546-6.547l0,0
				c0-3.601,2.947-6.547,6.546-6.547h38.979c3.6,0,6.546,2.946,6.546,6.547l0,0C334.867,421.244,331.92,424.19,328.32,424.19z"/>
			<path style="fill-rule:evenodd;clip-rule:evenodd;fill:#6354A1;" d="M338.633,433.78h-59.605c-4.436,0-8.068-3.631-8.068-8.068
				l0,0c0-4.439,3.632-8.069,8.068-8.069h59.605c4.437,0,8.068,3.631,8.068,8.069l0,0C346.702,430.149,343.07,433.78,338.633,433.78
				z"/>
			<path style="fill-rule:evenodd;clip-rule:evenodd;fill:#7A72B3;" d="M385.922,169.249v-63.568H231.058l0,0
				c-26.036,0-47.339,21.302-47.339,47.338v27.05v46.663v16.23c0,5.951,4.869,10.819,10.82,10.819h227.9
				c5.951,0,10.82-4.869,10.82-10.819v-62.893c0-5.951-4.869-10.82-10.82-10.82H385.922z"/>
			<path style="fill-rule:evenodd;clip-rule:evenodd;fill:#6354A1;" d="M278.889,105.681h-47.831l0,0
				c-26.036,0-47.339,21.302-47.339,47.338v27.05v8.394h88.272c3.792,0,6.897-3.104,6.897-6.898V105.681z"/>
			<path style="fill-rule:evenodd;clip-rule:evenodd;fill:#242B5C;" d="M312.754,260.628h4.325c0.168,0,0.336,0.006,0.5,0.02v-6.866
				h-17.499v157.314h6.086V267.215C306.167,263.592,309.132,260.628,312.754,260.628z"/>
			<path style="fill-rule:evenodd;clip-rule:evenodd;fill:#6354A1;" d="M309.972,229.858H196.541h-12.822v13.104
				c0,5.951,4.869,10.819,10.82,10.819h9.697h95.844h17.499h14.033h73.036c5.951,0,10.82-4.869,10.82-10.819v-73.713h-29.547
				v-60.075c-5.5-2.25-11.507-3.493-17.792-3.493c-26.035,0-47.338,21.302-47.338,47.338v66.02
				C320.792,224.989,315.924,229.858,309.972,229.858z"/>
			<path style="fill-rule:evenodd;clip-rule:evenodd;fill:#242B5C;" d="M433.26,153.019c0-26.036-21.303-47.338-47.338-47.338l0,0
				c-26.036,0-47.339,21.302-47.339,47.338c0,29.981,0,59.962,0,89.943c0,5.951,4.869,10.819,10.82,10.819h73.036
				c5.951,0,10.82-4.869,10.82-10.819C433.26,212.98,433.26,183,433.26,153.019z"/>
			<path style="fill-rule:evenodd;clip-rule:evenodd;fill:#0C1332;" d="M342.042,135.311c-2.228,5.477-3.459,11.455-3.459,17.708
				c0,29.981,0,59.962,0,89.943c0,5.951,4.869,10.819,10.82,10.819h61.899c5.496,0,9.994-4.497,9.994-9.993
				c0-27.691,0-55.383,0-83.075c0-24.048-19.676-43.724-43.725-43.724l0,0C362.978,116.99,349.995,124.238,342.042,135.311z"/>
		</g>
		<g>
			<path style="fill-rule:evenodd;clip-rule:evenodd;fill:#F3C4D2;" d="M100.169,63.258h166.108c3.793,0,6.897,3.103,6.897,6.897
				v105.955c0,3.794-3.104,6.897-6.897,6.897H100.169c-3.795,0-6.898-3.103-6.898-6.897V70.156
				C93.271,66.361,96.374,63.258,100.169,63.258z"/>
			<path style="fill-rule:evenodd;clip-rule:evenodd;fill:#EF92A3;" d="M126.037,183.008h-25.868c-3.795,0-6.898-3.103-6.898-6.897
				V72.983h32.766V183.008z"/>
			<path style="fill-rule:evenodd;clip-rule:evenodd;fill:#7A72B3;" d="M100.169,63.258h166.108c3.793,0,6.897,3.103,6.897,6.897
				v7.726H93.271v-7.726C93.271,66.361,96.374,63.258,100.169,63.258z"/>
			<circle style="fill-rule:evenodd;clip-rule:evenodd;fill:#FFFFFF;" cx="100.996" cy="70.57" r="2.207"/>
			<path style="fill-rule:evenodd;clip-rule:evenodd;fill:#FFFFFF;" d="M109.067,72.778c1.215,0,2.207-0.992,2.207-2.208
				c0-1.216-0.992-2.207-2.207-2.207c-1.217,0-2.208,0.992-2.208,2.207C106.859,71.786,107.851,72.778,109.067,72.778z"/>
			<circle style="fill-rule:evenodd;clip-rule:evenodd;fill:#FFFFFF;" cx="117.138" cy="70.57" r="2.208"/>
			<path style="fill-rule:evenodd;clip-rule:evenodd;fill:#FFFFFF;" d="M100.066,106.232h19.177c0.569,0,1.035,0.466,1.035,1.034v0
				c0,0.569-0.465,1.034-1.035,1.034h-19.177c-0.569,0-1.035-0.465-1.035-1.034v0C99.031,106.698,99.497,106.232,100.066,106.232z"
				/>
			<path style="fill-rule:evenodd;clip-rule:evenodd;fill:#FFFFFF;" d="M100.066,110.785h10.864c0.568,0,1.034,0.465,1.034,1.034
				v0.001c0,0.569-0.466,1.034-1.034,1.034h-10.864c-0.569,0-1.035-0.465-1.035-1.034v-0.001
				C99.031,111.251,99.497,110.785,100.066,110.785z"/>
			<path style="fill-rule:evenodd;clip-rule:evenodd;fill:#FFFFFF;" d="M100.066,119.959h19.177c0.569,0,1.035,0.466,1.035,1.034
				v0.001c0,0.569-0.465,1.034-1.035,1.034h-19.177c-0.569,0-1.035-0.465-1.035-1.034v-0.001
				C99.031,120.425,99.497,119.959,100.066,119.959z"/>
			<path style="fill-rule:evenodd;clip-rule:evenodd;fill:#FFFFFF;" d="M100.066,124.512h10.864c0.568,0,1.034,0.466,1.034,1.034
				v0.001c0,0.569-0.466,1.035-1.034,1.035h-10.864c-0.569,0-1.035-0.466-1.035-1.035v-0.001
				C99.031,124.978,99.497,124.512,100.066,124.512z"/>
			<path style="fill-rule:evenodd;clip-rule:evenodd;fill:#FFFFFF;" d="M114.621,124.512h1.587c0.568,0,1.034,0.466,1.034,1.034
				v0.001c0,0.569-0.466,1.035-1.034,1.035h-1.587c-0.569,0-1.035-0.466-1.035-1.035v-0.001
				C113.585,124.978,114.052,124.512,114.621,124.512z"/>
			<path style="fill-rule:evenodd;clip-rule:evenodd;fill:#FFFFFF;" d="M100.066,137.067h9.761c0.569,0,1.034-0.466,1.034-1.034
				v-0.001c0-0.569-0.465-1.034-1.034-1.034h-9.761c-0.569,0-1.035,0.465-1.035,1.034v0.001
				C99.031,136.602,99.497,137.067,100.066,137.067z"/>
			<path style="fill-rule:evenodd;clip-rule:evenodd;fill:#FFFFFF;" d="M100.066,132.515h13.485c0.57,0,1.035-0.465,1.035-1.034
				v-0.001c0-0.569-0.464-1.034-1.035-1.034h-13.485c-0.569,0-1.035,0.465-1.035,1.034v0.001
				C99.031,132.049,99.497,132.515,100.066,132.515z"/>
			<path style="fill-rule:evenodd;clip-rule:evenodd;fill:#FFFFFF;" d="M117.57,132.515h2.328c0.569,0,1.034-0.465,1.034-1.034
				v-0.001c0-0.569-0.465-1.034-1.034-1.034h-2.328c-0.569,0-1.035,0.465-1.035,1.034v0.001
				C116.535,132.049,117.001,132.515,117.57,132.515z"/>
			<path style="fill-rule:evenodd;clip-rule:evenodd;fill:#FFFFFF;" d="M100.066,141.827h6.449c0.569,0,1.034-0.466,1.034-1.034v0
				c0-0.569-0.465-1.034-1.034-1.034h-6.449c-0.569,0-1.035,0.465-1.035,1.034v0C99.031,141.361,99.497,141.827,100.066,141.827z"/>
			<path style="fill-rule:evenodd;clip-rule:evenodd;fill:#FFFFFF;" d="M100.066,146.379h14.313c0.568,0,1.034-0.466,1.034-1.034
				v-0.001c0-0.569-0.466-1.034-1.034-1.034h-14.313c-0.569,0-1.035,0.465-1.035,1.034v0.001
				C99.031,145.914,99.497,146.379,100.066,146.379z"/>
			<path style="fill-rule:evenodd;clip-rule:evenodd;fill:#FFFFFF;" d="M146.835,99.748h108.059c0.568,0,1.035,0.466,1.035,1.034v0
				c0,0.569-0.467,1.035-1.035,1.035H146.835c-0.568,0-1.034-0.466-1.034-1.035v0C145.8,100.214,146.267,99.748,146.835,99.748z"/>
			<path style="fill-rule:evenodd;clip-rule:evenodd;fill:#FFFFFF;" d="M137.349,102.507c0.949,0,1.724-0.774,1.724-1.724
				c0-0.949-0.775-1.724-1.724-1.724c-0.95,0-1.726,0.775-1.726,1.724C135.623,101.733,136.399,102.507,137.349,102.507z"/>
			<path style="fill-rule:evenodd;clip-rule:evenodd;fill:#FFFFFF;" d="M146.835,108.578h108.059c0.568,0,1.035,0.465,1.035,1.034v0
				c0,0.569-0.467,1.034-1.035,1.034H146.835c-0.568,0-1.034-0.465-1.034-1.034v0C145.8,109.043,146.267,108.578,146.835,108.578z"
				/>
			<path style="fill-rule:evenodd;clip-rule:evenodd;fill:#FFFFFF;" d="M137.349,111.337c0.949,0,1.724-0.774,1.724-1.725
				c0-0.95-0.775-1.725-1.724-1.725c-0.95,0-1.726,0.775-1.726,1.725C135.623,110.563,136.399,111.337,137.349,111.337z"/>
			<path style="fill-rule:evenodd;clip-rule:evenodd;fill:#FFFFFF;" d="M146.835,117.407h108.059c0.568,0,1.035,0.466,1.035,1.035
				v0.001c0,0.568-0.467,1.034-1.035,1.034H146.835c-0.568,0-1.034-0.466-1.034-1.034v-0.001
				C145.8,117.873,146.267,117.407,146.835,117.407z"/>
			<path style="fill-rule:evenodd;clip-rule:evenodd;fill:#FFFFFF;" d="M137.349,120.166c0.949,0,1.724-0.775,1.724-1.725
				s-0.775-1.725-1.724-1.725c-0.95,0-1.726,0.775-1.726,1.725S136.399,120.166,137.349,120.166z"/>
			<path style="fill-rule:evenodd;clip-rule:evenodd;fill:#FFFFFF;" d="M146.835,126.236h108.059c0.568,0,1.035,0.466,1.035,1.034
				v0.001c0,0.569-0.467,1.035-1.035,1.035H146.835c-0.568,0-1.034-0.465-1.034-1.035v-0.001
				C145.8,126.702,146.267,126.236,146.835,126.236z"/>
			<path style="fill-rule:evenodd;clip-rule:evenodd;fill:#FFFFFF;" d="M137.349,128.996c0.949,0,1.724-0.774,1.724-1.725
				c0-0.949-0.775-1.725-1.724-1.725c-0.95,0-1.726,0.775-1.726,1.725C135.623,128.221,136.399,128.996,137.349,128.996z"/>
			<path style="fill-rule:evenodd;clip-rule:evenodd;fill:#FFFFFF;" d="M146.835,135.066h108.059c0.568,0,1.035,0.465,1.035,1.034
				v0.001c0,0.569-0.467,1.035-1.035,1.035H146.835c-0.568,0-1.034-0.465-1.034-1.035V136.1
				C145.8,135.531,146.267,135.066,146.835,135.066z"/>
			<path style="fill-rule:evenodd;clip-rule:evenodd;fill:#FFFFFF;" d="M137.349,137.825c0.949,0,1.724-0.774,1.724-1.725
				c0-0.95-0.775-1.724-1.724-1.724c-0.95,0-1.726,0.774-1.726,1.724C135.623,137.051,136.399,137.825,137.349,137.825z"/>
			<path style="fill-rule:evenodd;clip-rule:evenodd;fill:#FFFFFF;" d="M146.835,143.895h108.059c0.568,0,1.035,0.466,1.035,1.035
				v0.001c0,0.568-0.467,1.034-1.035,1.034H146.835c-0.568,0-1.034-0.465-1.034-1.034v-0.001
				C145.8,144.361,146.267,143.895,146.835,143.895z"/>
			<path style="fill-rule:evenodd;clip-rule:evenodd;fill:#FFFFFF;" d="M137.349,146.655c0.949,0,1.724-0.775,1.724-1.725
				c0-0.95-0.775-1.724-1.724-1.724c-0.95,0-1.726,0.774-1.726,1.724C135.623,145.879,136.399,146.655,137.349,146.655z"/>
			<path style="fill-rule:evenodd;clip-rule:evenodd;fill:#FFFFFF;" d="M146.835,152.725h108.059c0.568,0,1.035,0.466,1.035,1.034
				v0.001c0,0.569-0.467,1.034-1.035,1.034H146.835c-0.568,0-1.034-0.465-1.034-1.034v-0.001
				C145.8,153.19,146.267,152.725,146.835,152.725z"/>
			<path style="fill-rule:evenodd;clip-rule:evenodd;fill:#FFFFFF;" d="M137.349,155.484c0.949,0,1.724-0.774,1.724-1.724
				c0-0.95-0.775-1.725-1.724-1.725c-0.95,0-1.726,0.775-1.726,1.725C135.623,154.71,136.399,155.484,137.349,155.484z"/>
			<path style="fill-rule:evenodd;clip-rule:evenodd;fill:#FFFFFF;" d="M146.835,161.554h108.059c0.568,0,1.035,0.465,1.035,1.034
				v0.001c0,0.569-0.467,1.034-1.035,1.034H146.835c-0.568,0-1.034-0.465-1.034-1.034v-0.001
				C145.8,162.02,146.267,161.554,146.835,161.554z"/>
			<path style="fill-rule:evenodd;clip-rule:evenodd;fill:#FFFFFF;" d="M137.349,164.314c0.949,0,1.724-0.774,1.724-1.725
				c0-0.95-0.775-1.724-1.724-1.724c-0.95,0-1.726,0.775-1.726,1.724C135.623,163.539,136.399,164.314,137.349,164.314z"/>
			<path style="fill-rule:evenodd;clip-rule:evenodd;fill:#FFFFFF;" d="M137.692,84.57h80.16c1.138,0,2.068,0.931,2.068,2.068v0.001
				c0,1.138-0.93,2.069-2.068,2.069h-80.16c-1.138,0-2.068-0.932-2.068-2.069v-0.001C135.624,85.501,136.554,84.57,137.692,84.57z"
				/>
			<path style="fill-rule:evenodd;clip-rule:evenodd;fill:#FFFFFF;" d="M226.955,84.57h26.904c1.138,0,2.07,0.931,2.07,2.068v0.001
				c0,1.138-0.932,2.069-2.07,2.069h-26.904c-1.137,0-2.068-0.932-2.068-2.069v-0.001C224.886,85.501,225.817,84.57,226.955,84.57z"
				/>
			
				<ellipse transform="matrix(1 -0.0067 0.0067 1 -0.6086 0.7331)" style="fill-rule:evenodd;clip-rule:evenodd;fill:#FFFFFF;" cx="109.654" cy="91.662" rx="8.452" ry="8.453"/>
			<path style="fill-rule:evenodd;clip-rule:evenodd;fill:#7A72B3;" d="M114.026,97.203c-1.203,0.95-2.721,1.517-4.372,1.517
				c-1.652,0-3.17-0.566-4.373-1.517c0.077-2.34,2.014-4.231,4.373-4.231l0,0C112.013,92.971,113.951,94.862,114.026,97.203
				L114.026,97.203z M109.654,85.646c1.735,0,3.14,1.406,3.14,3.141c0,1.734-1.405,3.141-3.14,3.141
				c-1.735,0-3.141-1.406-3.141-3.141C106.513,87.052,107.919,85.646,109.654,85.646z"/>
		</g>
		<path style="fill-rule:evenodd;clip-rule:evenodd;fill:#DCD7EB;" d="M587.727,196.584L587.727,196.584L587.727,196.584z
			 M584.124,182.864c-1.255-1.254-2.988-2.03-4.901-2.03c-1.914,0-3.647,0.776-4.9,2.03c-1.256,1.254-2.03,2.987-2.03,4.901
			c0,1.915,0.774,3.647,2.03,4.901c1.254,1.254,2.986,2.03,4.9,2.03c1.913,0,3.646-0.776,4.901-2.03
			c1.254-1.254,2.03-2.987,2.03-4.901C586.154,185.852,585.378,184.119,584.124,182.864L584.124,182.864z M582.626,175.994
			c0.961,0.277,1.872,0.668,2.717,1.157c0.867,0.501,1.668,1.106,2.384,1.797c0.14,0.134,0.349,0.154,0.508,0.061l3.221-1.86
			l0.018-0.01c0.184-0.1,0.394-0.118,0.587-0.067c0.198,0.053,0.376,0.181,0.485,0.371l0.015,0.021l2.265,3.925
			c0.109,0.189,0.131,0.408,0.078,0.606c-0.054,0.198-0.181,0.376-0.371,0.485l-0.022,0.013l-3.194,1.845
			c-0.168,0.097-0.245,0.291-0.201,0.469v0.001c0.118,0.475,0.208,0.963,0.269,1.464c0.059,0.488,0.09,0.985,0.09,1.493
			c0,0.507-0.031,1.006-0.09,1.494c-0.061,0.5-0.15,0.989-0.269,1.464c-0.049,0.197,0.049,0.396,0.225,0.483l3.193,1.844l-0.001,0
			c0.19,0.109,0.317,0.287,0.371,0.485c0.053,0.2,0.031,0.417-0.078,0.607l-2.278,3.947l-0.001-0.001
			c-0.109,0.19-0.287,0.317-0.484,0.371c-0.199,0.053-0.417,0.031-0.605-0.078l-0.024-0.013l-3.197-1.847
			c-0.168-0.096-0.374-0.066-0.507,0.061c-0.716,0.691-1.517,1.295-2.384,1.796c-0.851,0.492-1.768,0.884-2.734,1.162
			c-0.188,0.053-0.309,0.224-0.309,0.409v3.715c0,0.219-0.09,0.419-0.235,0.563c-0.144,0.145-0.345,0.234-0.563,0.234h-4.56
			c-0.219,0-0.417-0.09-0.562-0.234c-0.145-0.144-0.235-0.344-0.235-0.563v-3.715c0-0.201-0.139-0.37-0.327-0.415
			c-0.961-0.277-1.871-0.668-2.717-1.156c-0.867-0.501-1.667-1.106-2.383-1.797c-0.147-0.141-0.367-0.156-0.529-0.048l-3.198,1.847
			c-0.189,0.109-0.408,0.13-0.606,0.078c-0.198-0.054-0.376-0.181-0.486-0.371l-0.013-0.022l-2.268-3.925l0.001-0.001
			c-0.109-0.189-0.13-0.407-0.077-0.605c0.054-0.198,0.181-0.376,0.368-0.485l3.219-1.858c0.167-0.096,0.245-0.29,0.2-0.469h0.001
			c-0.117-0.475-0.208-0.964-0.269-1.464c-0.06-0.488-0.09-0.986-0.09-1.494c0-0.507,0.029-1.005,0.09-1.494
			c0.06-0.5,0.151-0.989,0.269-1.463c0.05-0.198-0.05-0.397-0.224-0.483l-3.196-1.845c-0.188-0.108-0.314-0.286-0.368-0.485
			c-0.053-0.198-0.032-0.415,0.077-0.605l0.014-0.024l2.266-3.925v0.001c0.11-0.189,0.288-0.318,0.486-0.371
			c0.197-0.053,0.416-0.032,0.604,0.077l-0.001,0l3.222,1.86c0.172,0.1,0.385,0.065,0.517-0.07c0.713-0.688,1.511-1.289,2.375-1.788
			c0.851-0.492,1.767-0.884,2.733-1.162c0.188-0.053,0.31-0.224,0.31-0.41v-3.715c0-0.219,0.091-0.418,0.235-0.563
			c0.145-0.145,0.343-0.234,0.562-0.234h4.56c0.218,0,0.419,0.09,0.563,0.234c0.146,0.145,0.235,0.344,0.235,0.563v3.715
			C582.3,175.781,582.44,175.95,582.626,175.994z"/>
		<path style="fill-rule:evenodd;clip-rule:evenodd;fill:#DCD7EB;" d="M662.313,178.321c-1.38-1.38-3.033-2.494-4.873-3.257
			c-1.771-0.733-3.708-1.138-5.735-1.138c-2.028,0-3.965,0.405-5.735,1.138c-1.841,0.763-3.494,1.877-4.873,3.257
			c-1.381,1.38-2.495,3.034-3.258,4.874c-0.732,1.77-1.137,3.707-1.137,5.735c0,2.027,0.405,3.965,1.137,5.734
			c0.763,1.841,1.877,3.494,3.258,4.874c1.379,1.379,3.031,2.494,4.871,3.256c1.769,0.734,3.708,1.139,5.737,1.139
			c2.027,0,3.965-0.405,5.735-1.138c1.839-0.763,3.494-1.877,4.873-3.257c1.38-1.38,2.494-3.033,3.257-4.874
			c0.732-1.77,1.138-3.707,1.138-5.735c0-2.028-0.405-3.965-1.138-5.735C664.807,181.355,663.692,179.701,662.313,178.321
			L662.313,178.321z M656.912,176.346c1.661,0.688,3.16,1.7,4.418,2.958c1.258,1.258,2.27,2.757,2.958,4.417
			c0.662,1.601,1.029,3.36,1.029,5.209c0,1.848-0.367,3.607-1.029,5.208c-0.688,1.661-1.701,3.16-2.958,4.417
			c-1.258,1.257-2.758,2.27-4.418,2.958c-1.601,0.663-3.36,1.029-5.208,1.029c-1.847,0-3.604-0.366-5.206-1.029
			c-1.663-0.688-3.162-1.701-4.42-2.958c-1.258-1.258-2.27-2.757-2.959-4.417c-0.662-1.602-1.028-3.361-1.028-5.208
			c0-1.848,0.366-3.607,1.028-5.209c0.689-1.661,1.701-3.16,2.959-4.417c1.258-1.258,2.757-2.271,4.417-2.958
			c1.602-0.664,3.36-1.029,5.209-1.029C653.552,175.316,655.311,175.682,656.912,176.346L656.912,176.346z M658.57,165.306
			c0.94,0.271,1.863,0.602,2.766,0.985c0.916,0.391,1.803,0.834,2.654,1.327c0.867,0.501,1.703,1.056,2.503,1.659
			c0.803,0.605,1.567,1.257,2.285,1.95c0.255,0.245,0.571,0.388,0.898,0.428c0.333,0.04,0.679-0.028,0.979-0.201
			c2.203-1.273,4.519-2.532,6.678-3.856c0.106-0.055,0.216-0.088,0.324-0.101c0.124-0.013,0.249-0.003,0.368,0.028
			c0.123,0.033,0.238,0.089,0.337,0.164c0.096,0.073,0.18,0.167,0.244,0.277c1.605,2.43,3.218,5.57,4.706,8.147
			c0.064,0.11,0.102,0.228,0.117,0.346c0.016,0.123,0.005,0.254-0.028,0.38c-0.033,0.122-0.088,0.237-0.165,0.337
			c-0.071,0.096-0.166,0.18-0.275,0.243c-1.983,1.311-4.536,2.623-6.637,3.835c-0.309,0.177-0.534,0.442-0.663,0.743
			c-0.045,0.105-0.078,0.215-0.099,0.327l-0.137,0.046l0.153,0.619c0.12,0.487,0.227,0.974,0.315,1.458
			c0.086,0.471,0.162,0.965,0.224,1.48c0.061,0.502,0.107,1.001,0.137,1.493c0.029,0.48,0.044,0.984,0.044,1.509
			c0,0.524-0.015,1.027-0.044,1.506c-0.029,0.493-0.075,0.992-0.137,1.495c-0.062,0.514-0.138,1.007-0.224,1.479
			c-0.089,0.485-0.194,0.972-0.315,1.459c-0.09,0.361-0.046,0.724,0.1,1.036c0.143,0.312,0.39,0.573,0.709,0.737l5.877,3.393
			l-0.002,0.003l0.698,0.402c0.11,0.064,0.204,0.148,0.276,0.243c0.075,0.099,0.131,0.215,0.164,0.337
			c0.033,0.126,0.044,0.256,0.028,0.38c-0.016,0.117-0.054,0.235-0.117,0.346l-4.351,7.54l-0.004-0.001l-0.352,0.609
			c-0.062,0.11-0.147,0.204-0.244,0.277c-0.099,0.076-0.214,0.131-0.337,0.164c-0.124,0.034-0.254,0.043-0.377,0.028
			c-0.117-0.015-0.234-0.054-0.345-0.117c-2.104-1.323-4.48-2.585-6.651-3.838c-0.312-0.177-0.65-0.238-0.971-0.2
			c-0.335,0.041-0.651,0.188-0.899,0.425l-0.003,0.002c-0.718,0.693-1.483,1.345-2.287,1.951c-0.798,0.602-1.634,1.157-2.5,1.657
			c-0.857,0.496-1.751,0.942-2.674,1.335c-0.905,0.385-1.847,0.719-2.815,0.996c-0.341,0.097-0.624,0.301-0.823,0.564
			c-0.201,0.268-0.316,0.601-0.316,0.949l-0.003,7.67c0,0.128-0.026,0.251-0.072,0.36c-0.047,0.114-0.118,0.219-0.208,0.309
			c-0.088,0.089-0.194,0.161-0.311,0.209c-0.109,0.045-0.23,0.071-0.36,0.071h-9.411c-0.129,0-0.251-0.026-0.359-0.071
			c-0.118-0.049-0.223-0.12-0.312-0.208c-0.089-0.091-0.16-0.196-0.208-0.31c-0.046-0.109-0.071-0.232-0.071-0.36v-7.67
			c0-0.364-0.128-0.703-0.342-0.973c-0.216-0.275-0.522-0.477-0.869-0.559c-0.939-0.27-1.862-0.601-2.765-0.984
			c-0.916-0.39-1.803-0.833-2.656-1.327c-0.865-0.5-1.701-1.054-2.5-1.657c-0.804-0.606-1.567-1.258-2.287-1.951
			c-0.266-0.256-0.601-0.399-0.945-0.431c-0.35-0.032-0.707,0.053-1.009,0.253l-6.566,3.79c-0.108,0.063-0.228,0.102-0.347,0.117
			c-0.124,0.016-0.253,0.005-0.378-0.028c-0.124-0.033-0.239-0.088-0.338-0.164c-0.096-0.074-0.18-0.166-0.244-0.277
			c-1.56-2.72-3.144-5.428-4.705-8.148c-0.063-0.109-0.102-0.228-0.118-0.347c-0.015-0.123-0.005-0.252,0.028-0.378
			c0.034-0.124,0.089-0.239,0.165-0.338c0.071-0.097,0.163-0.18,0.271-0.242l6.642-3.835c0.309-0.176,0.533-0.441,0.663-0.742
			c0.034-0.082,0.062-0.166,0.082-0.253l0.174-0.035l-0.174-0.705c-0.12-0.487-0.227-0.974-0.315-1.458
			c-0.086-0.472-0.162-0.966-0.224-1.481c-0.062-0.503-0.107-1.001-0.137-1.494c-0.029-0.48-0.044-0.983-0.044-1.507
			c0-0.524,0.015-1.027,0.044-1.507c0.029-0.492,0.075-0.99,0.137-1.492c0.063-0.521,0.139-1.017,0.224-1.485
			c0.089-0.483,0.194-0.97,0.315-1.456c0.089-0.363,0.045-0.727-0.1-1.038c-0.145-0.31-0.393-0.572-0.707-0.734l-6.578-3.798
			c-0.109-0.06-0.2-0.144-0.273-0.242c-0.076-0.097-0.131-0.213-0.165-0.338c-0.033-0.125-0.043-0.254-0.028-0.377
			c0.017-0.119,0.055-0.238,0.118-0.347c1.606-2.389,3.214-5.58,4.705-8.148c0.064-0.11,0.148-0.204,0.244-0.277
			c0.099-0.076,0.214-0.132,0.338-0.164c0.124-0.033,0.254-0.044,0.378-0.028c0.115,0.015,0.233,0.054,0.346,0.119l6.648,3.836
			c0.313,0.183,0.663,0.244,0.995,0.198c0.335-0.045,0.652-0.198,0.898-0.443c0.723-0.695,1.482-1.344,2.276-1.94
			c0.789-0.595,1.623-1.146,2.492-1.649c0.857-0.496,1.75-0.942,2.673-1.334c0.906-0.385,1.847-0.719,2.813-0.996
			c0.343-0.098,0.625-0.302,0.824-0.565c0.201-0.267,0.317-0.6,0.317-0.948l0.003-7.67c0-0.129,0.025-0.251,0.071-0.36
			c0.048-0.114,0.119-0.219,0.209-0.309c0.088-0.089,0.192-0.161,0.311-0.21c0.108-0.045,0.23-0.07,0.359-0.07h9.411
			c0.13,0,0.251,0.025,0.36,0.07c0.116,0.049,0.223,0.121,0.311,0.208c0.173,0.174,0.28,0.411,0.28,0.671v7.67
			c0,0.367,0.126,0.705,0.337,0.973C657.918,165.023,658.223,165.224,658.57,165.306L658.57,165.306z M661.879,165.016
			c0.968,0.412,1.904,0.881,2.807,1.402c0.92,0.532,1.804,1.118,2.644,1.751c0.842,0.635,1.648,1.323,2.41,2.058
			c0.029,0.028,0.065,0.044,0.105,0.049c0.041,0.005,0.083-0.002,0.116-0.022c2.233-1.29,4.473-2.575,6.703-3.872
			c0.265-0.143,0.55-0.23,0.84-0.264c0.296-0.034,0.596-0.01,0.88,0.066c0.294,0.079,0.574,0.215,0.821,0.403
			c0.237,0.182,0.443,0.412,0.601,0.685c1.62,2.622,3.157,5.464,4.707,8.147c0.157,0.272,0.252,0.567,0.29,0.867
			c0.039,0.309,0.019,0.62-0.06,0.912c-0.079,0.294-0.216,0.573-0.405,0.82c-0.181,0.238-0.41,0.444-0.683,0.601
			c-2.138,1.32-4.456,2.573-6.644,3.835c-0.033,0.02-0.06,0.051-0.074,0.086c-0.017,0.037-0.019,0.079-0.011,0.117l0.152,0.62
			l-0.008,0.003c0.065,0.301,0.128,0.607,0.186,0.918c0.097,0.531,0.178,1.054,0.239,1.567c0.063,0.509,0.11,1.034,0.143,1.574
			c0.031,0.542,0.049,1.073,0.049,1.59c0,0.517-0.018,1.047-0.049,1.588c-0.032,0.54-0.08,1.067-0.143,1.576
			c-0.061,0.512-0.143,1.035-0.239,1.566c-0.098,0.529-0.208,1.043-0.332,1.542c-0.01,0.041-0.006,0.083,0.014,0.121
			c0.018,0.04,0.047,0.072,0.081,0.089c2.441,1.304,4.919,2.837,7.332,4.232l-0.086,0.107l0.072,0.092
			c0.189,0.247,0.326,0.527,0.405,0.82c0.078,0.292,0.099,0.603,0.06,0.912c-0.038,0.299-0.133,0.595-0.292,0.866l-5.057,8.757
			l-0.094-0.056c-0.051,0.046-0.101,0.09-0.155,0.131c-0.247,0.188-0.527,0.325-0.821,0.403c-0.291,0.078-0.602,0.1-0.91,0.061
			c-0.29-0.037-0.576-0.129-0.843-0.278c-2.213-1.174-4.489-2.591-6.674-3.853c-0.031-0.018-0.071-0.024-0.111-0.02
			c-0.04,0.005-0.079,0.023-0.108,0.05c-0.763,0.735-1.567,1.422-2.408,2.057c-0.84,0.632-1.723,1.218-2.642,1.749
			c-0.908,0.524-1.853,0.997-2.825,1.411c-0.968,0.41-1.962,0.764-2.977,1.055c-0.04,0.011-0.073,0.036-0.096,0.065
			c-0.026,0.034-0.041,0.074-0.038,0.112v7.67c0,0.313-0.065,0.615-0.18,0.893c-0.119,0.288-0.294,0.546-0.511,0.759
			c-0.215,0.215-0.474,0.39-0.758,0.508c-0.277,0.116-0.579,0.179-0.893,0.179h-9.411c-0.313,0-0.616-0.063-0.893-0.179
			c-0.284-0.118-0.541-0.293-0.76-0.508c-0.213-0.213-0.388-0.472-0.507-0.759c-0.116-0.277-0.18-0.579-0.18-0.893v-7.67
			c0-0.046-0.015-0.086-0.038-0.115c-0.023-0.03-0.06-0.054-0.104-0.064l-0.029-0.011c-1.023-0.294-2.01-0.646-2.958-1.05
			c-0.967-0.411-1.904-0.88-2.808-1.402c-0.919-0.532-1.803-1.117-2.642-1.75c-0.843-0.635-1.649-1.324-2.412-2.059
			c-0.031-0.031-0.07-0.048-0.109-0.051c-0.039-0.003-0.082,0.007-0.118,0.03l-6.642,3.833c-0.273,0.158-0.567,0.253-0.863,0.291
			c-0.308,0.039-0.619,0.017-0.911-0.061c-0.294-0.079-0.573-0.215-0.82-0.403c-0.232-0.177-0.435-0.401-0.591-0.665
			c-1.744-2.806-3.393-5.88-5.059-8.761l0.09-0.053c-0.016-0.074-0.029-0.148-0.038-0.222c-0.04-0.308-0.018-0.618,0.061-0.91
			c0.078-0.293,0.215-0.574,0.404-0.82c0.18-0.239,0.409-0.445,0.682-0.602l6.644-3.834c0.034-0.02,0.06-0.051,0.074-0.087
			c0.018-0.038,0.021-0.08,0.012-0.12l-0.173-0.703l0.01-0.002c-0.059-0.273-0.115-0.551-0.167-0.833
			c-0.098-0.531-0.179-1.054-0.24-1.568c-0.063-0.509-0.109-1.035-0.143-1.576c-0.031-0.541-0.048-1.071-0.048-1.588
			c0-0.517,0.017-1.047,0.048-1.589c0.034-0.54,0.081-1.066,0.143-1.579c0.061-0.508,0.142-1.031,0.24-1.566
			c0.098-0.527,0.207-1.04,0.331-1.538c0.01-0.04,0.005-0.083-0.014-0.123c-0.017-0.036-0.047-0.068-0.084-0.086l-6.635-3.83
			c-0.273-0.159-0.503-0.364-0.682-0.602c-0.189-0.249-0.325-0.528-0.402-0.819c-0.079-0.291-0.101-0.602-0.061-0.91
			c0.036-0.291,0.129-0.578,0.279-0.847c1.582-2.929,3.394-5.882,5.067-8.779l0.094,0.057c0.051-0.046,0.103-0.089,0.157-0.131
			c0.247-0.188,0.526-0.325,0.82-0.403c0.292-0.078,0.603-0.1,0.91-0.061c0.3,0.038,0.594,0.133,0.863,0.287l0.49,0.283
			l-0.001,0.005l6.162,3.556c0.036,0.021,0.077,0.028,0.117,0.023c0.039-0.005,0.077-0.023,0.105-0.052l0.016-0.016
			c0.755-0.727,1.558-1.411,2.406-2.049c0.842-0.635,1.72-1.217,2.628-1.742c0.909-0.524,1.852-0.996,2.825-1.41
			c0.968-0.411,1.962-0.764,2.977-1.056c0.04-0.011,0.073-0.035,0.097-0.065c0.026-0.034,0.04-0.074,0.038-0.112v-7.67
			c0-0.313,0.063-0.616,0.18-0.893c0.119-0.288,0.294-0.546,0.511-0.76c0.215-0.215,0.472-0.39,0.756-0.508
			c0.277-0.115,0.581-0.179,0.893-0.179h9.411c0.313,0,0.615,0.064,0.893,0.179c0.284,0.119,0.543,0.293,0.761,0.508
			c0.424,0.424,0.688,1.009,0.688,1.652v7.67c0,0.044,0.016,0.085,0.038,0.117c0.024,0.03,0.06,0.053,0.102,0.063l0.03,0.011
			C659.943,164.26,660.931,164.612,661.879,165.016z"/>
		<g>
			<path style="fill-rule:evenodd;clip-rule:evenodd;fill:#DCD7EB;" d="M594.275,280.234c15.646,0,28.328,12.681,28.328,28.326
				c0,15.645-12.683,28.326-28.328,28.326h-57.633c-10.091,0-18.27-8.18-18.27-18.271c0-10.091,8.179-18.271,18.27-18.271
				c2.021,0,3.964,0.329,5.781,0.935c2.608-6.581,9.027-11.234,16.536-11.234c4.185,0,8.031,1.445,11.069,3.864
				C574.992,285.713,583.995,280.234,594.275,280.234z"/>
			<path style="fill-rule:evenodd;clip-rule:evenodd;fill:#DCD7EB;" d="M539.563,343.816h4.483c0.819,0,1.491,0.672,1.491,1.494
				v4.483c0,0.821-0.672,1.493-1.491,1.493h-4.483c-0.822,0-1.493-0.672-1.493-1.493v-4.483
				C538.069,344.488,538.74,343.816,539.563,343.816z"/>
			<path style="fill-rule:evenodd;clip-rule:evenodd;fill:#DCD7EB;" d="M554.874,343.816h4.482c0.821,0,1.494,0.672,1.494,1.494
				v4.483c0,0.821-0.673,1.493-1.494,1.493h-4.482c-0.821,0-1.492-0.672-1.492-1.493v-4.483
				C553.382,344.488,554.053,343.816,554.874,343.816z"/>
			<path style="fill-rule:evenodd;clip-rule:evenodd;fill:#DCD7EB;" d="M570.186,343.816h4.483c0.821,0,1.493,0.672,1.493,1.494
				v4.483c0,0.821-0.672,1.493-1.493,1.493h-4.483c-0.821,0-1.493-0.672-1.493-1.493v-4.483
				C568.693,344.488,569.365,343.816,570.186,343.816z"/>
			<path style="fill-rule:evenodd;clip-rule:evenodd;fill:#DCD7EB;" d="M585.498,343.816h4.484c0.821,0,1.493,0.672,1.493,1.494
				v4.483c0,0.821-0.672,1.493-1.493,1.493h-4.484c-0.82,0-1.493-0.672-1.493-1.493v-4.483
				C584.005,344.488,584.678,343.816,585.498,343.816z"/>
		</g>
		<g>
			<path style="fill-rule:evenodd;clip-rule:evenodd;fill:#DCD7EB;" d="M225.989,269.448h4.484c0.82,0,1.493,0.671,1.493,1.493
				v4.482c0,0.821-0.673,1.494-1.493,1.494h-4.484c-0.821,0-1.493-0.673-1.493-1.494v-4.482
				C224.496,270.119,225.168,269.448,225.989,269.448z"/>
			<path style="fill-rule:evenodd;clip-rule:evenodd;fill:#DCD7EB;" d="M241.303,269.448h4.483c0.82,0,1.493,0.671,1.493,1.493
				v4.482c0,0.821-0.673,1.494-1.493,1.494h-4.483c-0.824,0-1.494-0.673-1.494-1.494v-4.482
				C239.809,270.119,240.479,269.448,241.303,269.448z"/>
			<path style="fill-rule:evenodd;clip-rule:evenodd;fill:#DCD7EB;" d="M256.614,269.448h4.482c0.822,0,1.494,0.671,1.494,1.493
				v4.482c0,0.821-0.672,1.494-1.494,1.494h-4.482c-0.822,0-1.494-0.673-1.494-1.494v-4.482
				C255.12,270.119,255.792,269.448,256.614,269.448z"/>
			<path style="fill-rule:evenodd;clip-rule:evenodd;fill:#DCD7EB;" d="M271.926,269.448h4.485c0.82,0,1.492,0.671,1.492,1.493
				v4.482c0,0.821-0.672,1.494-1.492,1.494h-4.485c-0.822,0-1.493-0.673-1.493-1.494v-4.482
				C270.434,270.119,271.104,269.448,271.926,269.448z"/>
		</g>
		<g>
			<g>
				<path style="fill-rule:evenodd;clip-rule:evenodd;fill:#E85D96;" d="M165.501,254.364c-20.51-20.883-35.768,5.644-33.637,32.272
					c2.02,25.246,23.782,111.871,19.748,148.315h8.332C180.328,388.22,191.759,281.099,165.501,254.364z"/>
				<path style="fill-rule:evenodd;clip-rule:evenodd;fill:#DD4586;" d="M156.881,434.951c19.84-73.657-5.276-175.472-5.361-175.817
					c-0.153-0.633-0.791-1.021-1.422-0.868c-0.633,0.154-1.022,0.791-0.869,1.423c0.085,0.347,25.233,102.277,5.24,175.263H156.881z
					"/>
			</g>
			<g>
				<path style="fill-rule:evenodd;clip-rule:evenodd;fill:#EF92A3;" d="M114.901,300.388
					c-21.612-11.451-27.063,13.534-18.637,34.204c6.982,17.132,37.832,67.804,49.497,100.359h10.986
					C157.681,389.959,140.415,313.903,114.901,300.388z"/>
				<path style="fill-rule:evenodd;clip-rule:evenodd;fill:#F3C4D2;" d="M152.733,434.951
					c-7.149-60.851-47.617-126.992-47.763-127.232c-0.282-0.466-0.888-0.613-1.353-0.332c-0.465,0.282-0.613,0.888-0.331,1.353
					c0.144,0.239,40.353,65.953,47.493,126.211H152.733z"/>
			</g>
			<g>
				<path style="fill-rule:evenodd;clip-rule:evenodd;fill:#F3C4D2;" d="M206.251,329.268c20.948-9.15,24.269,14.518,14.962,33.188
					c-6.297,12.633-28.989,44.98-44.272,72.496h-17.44C165.465,393.323,184.597,338.727,206.251,329.268z"/>
				<path style="fill-rule:evenodd;clip-rule:evenodd;fill:#EF92A3;" d="M165.729,434.951c14.873-50.433,49.124-97.96,49.262-98.152
					c0.295-0.413,0.87-0.509,1.283-0.213c0.414,0.295,0.509,0.871,0.214,1.283c-0.136,0.19-34.027,47.223-48.865,97.082H165.729z"/>
			</g>
		</g>
		<g>
			<g>
				<path style="fill-rule:evenodd;clip-rule:evenodd;fill:#E85D96;" d="M394.033,307.881c17.931-14.208,30.089,4.805,27.54,23.482
					c-2.416,17.709-23.25,78.124-20.861,103.849l-7.047-0.194C377.739,401.676,371.08,326.071,394.033,307.881z"/>
				<path style="fill-rule:evenodd;clip-rule:evenodd;fill:#DD4586;" d="M396.256,435.09c-14.71-52.267,9.387-123.287,9.468-123.528
					c0.147-0.44,0.697-0.699,1.228-0.576c0.53,0.122,0.841,0.579,0.692,1.02c-0.08,0.241-24.207,71.343-9.349,123.14L396.256,435.09
					z"/>
			</g>
			<g>
				<path style="fill-rule:evenodd;clip-rule:evenodd;fill:#EF92A3;" d="M435.531,341.43c18.599-7.549,22.506,10.15,14.801,24.492
					c-6.386,11.885-33.896,46.803-44.673,69.427l-9.29-0.257C396.843,403.428,413.576,350.341,435.531,341.43z"/>
				<path style="fill-rule:evenodd;clip-rule:evenodd;fill:#F3C4D2;" d="M399.763,435.185c7.754-42.629,43.832-88.202,43.961-88.367
					c0.252-0.32,0.768-0.411,1.153-0.201c0.386,0.209,0.494,0.639,0.242,0.959c-0.129,0.164-35.975,45.442-43.704,87.654
					L399.763,435.185z"/>
			</g>
			<g>
				<path style="fill-rule:evenodd;clip-rule:evenodd;fill:#F3C4D2;" d="M357.473,359.609c-17.458-6.924-20.93,9.643-13.585,22.992
					c4.97,9.031,23.252,32.311,35.404,52.02l14.749,0.406C390.166,405.612,375.518,366.768,357.473,359.609z"/>
				<path style="fill-rule:evenodd;clip-rule:evenodd;fill:#EF92A3;" d="M388.773,434.883c-11.16-35.816-38.792-70.042-38.903-70.18
					c-0.238-0.298-0.722-0.379-1.079-0.181c-0.358,0.198-0.455,0.6-0.217,0.898c0.111,0.137,27.45,34.005,38.598,69.418
					L388.773,434.883z"/>
			</g>
		</g>
		<path style="fill-rule:evenodd;clip-rule:evenodd;fill:#0C1332;" d="M78.363,425.712h593.527c3.892,0,7.078,3.186,7.078,7.078
			v0.001c0,3.892-3.185,7.078-7.078,7.078h-23.884c-2.163,0-3.933,1.77-3.933,3.932v0.001c0,2.162,1.77,3.933,3.933,3.933h8.738
			c2.702,0,4.916,2.213,4.916,4.916l0,0c0,2.703-2.213,4.916-4.916,4.916H94.29c-2.704,0-4.916-2.212-4.916-4.916l0,0
			c0-2.703,2.213-4.916,4.916-4.916h6.882c2.164,0,3.933-1.77,3.933-3.933v-0.001c0-2.162-1.769-3.932-3.933-3.932H78.363
			c-3.893,0-7.078-3.186-7.078-7.078v-0.001C71.285,428.897,74.473,425.712,78.363,425.712L78.363,425.712z M82.049,457.566
			c2.597,0,4.719-2.124,4.719-4.72v-0.394c0-2.596-2.124-4.719-4.719-4.719l0,0c-2.595,0-4.718,2.123-4.718,4.719v0.394
			C77.331,455.443,79.455,457.566,82.049,457.566L82.049,457.566z"/>
		<g>
			<path style="fill-rule:evenodd;clip-rule:evenodd;fill:#DCD7EB;" d="M616.485,59.469h-58.179c-4.225,0-7.683,3.458-7.683,7.684
				v36.701v2.343v20.17c0,0.354,0.202,0.657,0.528,0.793c0.328,0.135,0.685,0.064,0.936-0.187l13.092-13.093h51.306
				c4.225,0,7.683-3.458,7.683-7.684V67.153C624.169,62.927,620.711,59.469,616.485,59.469z"/>
			<path style="fill-rule:evenodd;clip-rule:evenodd;fill:#EF92A3;" d="M613.188,57.003h-58.181c-4.225,0-7.683,3.459-7.683,7.684
				v36.701v2.344v20.169c0,0.354,0.201,0.657,0.529,0.793c0.327,0.135,0.684,0.064,0.936-0.187l13.092-13.093h51.307
				c4.225,0,7.683-3.458,7.683-7.683V64.687C620.87,60.461,617.411,57.003,613.188,57.003z"/>
			<g>
				<path style="fill-rule:evenodd;clip-rule:evenodd;fill:#FFFFFF;" d="M577.806,72.754c0.367,0,0.665-0.298,0.665-0.665
					s-0.298-0.665-0.665-0.665h-16.771c-0.367,0-0.664,0.298-0.664,0.665s0.297,0.665,0.664,0.665H577.806z"/>
				<path style="fill-rule:evenodd;clip-rule:evenodd;fill:#FFFFFF;" d="M577.806,80.143c0.367,0,0.665-0.298,0.665-0.665
					c0-0.367-0.298-0.665-0.665-0.665h-8.914c-0.367,0-0.665,0.298-0.665,0.665c0,0.367,0.298,0.665,0.665,0.665H577.806z"/>
				<path style="fill-rule:evenodd;clip-rule:evenodd;fill:#FFFFFF;" d="M577.806,85.89c0.367,0,0.665-0.298,0.665-0.665
					c0-0.367-0.298-0.665-0.665-0.665h-19.352c-0.367,0-0.665,0.298-0.665,0.665c0,0.367,0.298,0.665,0.665,0.665H577.806z"/>
				<path style="fill-rule:evenodd;clip-rule:evenodd;fill:#FFFFFF;" d="M577.806,93.513c0.367,0,0.665-0.298,0.665-0.665
					c0-0.367-0.298-0.665-0.665-0.665h-17.827c-0.367,0-0.665,0.298-0.665,0.665c0,0.367,0.298,0.665,0.665,0.665H577.806z"/>
				<path style="fill-rule:evenodd;clip-rule:evenodd;fill:#FFFFFF;" d="M555.346,92.183c-0.366,0-0.664,0.298-0.664,0.665
					c0,0.367,0.298,0.665,0.664,0.665h2.229c0.366,0,0.664-0.298,0.664-0.665c0-0.367-0.298-0.665-0.664-0.665H555.346z"/>
				<g>
					<path style="fill-rule:evenodd;clip-rule:evenodd;fill:#FFFFFF;" d="M598.856,97.829c8.072,0,14.656-6.584,14.656-14.655
						c0-8.072-6.584-14.656-14.656-14.656c-8.072,0-14.655,6.584-14.655,14.656C584.201,91.246,590.784,97.829,598.856,97.829z"/>
					<path style="fill-rule:evenodd;clip-rule:evenodd;fill:#7A72B3;" d="M606.438,92.781c-2.085,1.647-4.718,2.63-7.581,2.63
						c-2.862,0-5.494-0.983-7.579-2.63c0.133-4.058,3.492-7.336,7.579-7.336l0,0C602.945,85.445,606.306,88.723,606.438,92.781
						L606.438,92.781z M598.856,72.745c3.009,0,5.446,2.438,5.446,5.445c0,3.007-2.438,5.445-5.446,5.445
						c-3.007,0-5.444-2.438-5.444-5.445C593.412,75.183,595.85,72.745,598.856,72.745z"/>
				</g>
			</g>
		</g>
		<path style="fill-rule:evenodd;clip-rule:evenodd;fill:#7A72B3;" d="M319.679,75.045c0-0.341,0.276-0.618,0.618-0.618
			s0.619,0.277,0.619,0.618v2.784c0,0.341-0.277,0.619-0.619,0.619s-0.618-0.277-0.618-0.619V75.045L319.679,75.045z M315.46,77.305
			c-0.241-0.241-0.241-0.634,0-0.875c0.242-0.242,0.634-0.242,0.876,0l1.967,1.968c0.242,0.241,0.242,0.633,0,0.875
			c-0.241,0.242-0.633,0.242-0.875,0L315.46,77.305L315.46,77.305z M314.076,81.885c-0.342,0-0.619-0.277-0.619-0.619
			c0-0.341,0.277-0.619,0.619-0.619h2.784c0.341,0,0.618,0.277,0.618,0.619c0,0.342-0.277,0.619-0.618,0.619H314.076L314.076,81.885
			z M316.336,86.103c-0.242,0.242-0.634,0.242-0.876,0c-0.241-0.241-0.241-0.634,0-0.875l1.968-1.968
			c0.242-0.242,0.634-0.242,0.875,0c0.242,0.242,0.242,0.634,0,0.875L316.336,86.103L316.336,86.103z M320.915,87.487
			c0,0.342-0.277,0.619-0.619,0.619s-0.618-0.277-0.618-0.619v-2.783c0-0.342,0.276-0.619,0.618-0.619s0.619,0.277,0.619,0.619
			V87.487L320.915,87.487z M325.133,85.228c0.242,0.241,0.242,0.634,0,0.875c-0.242,0.242-0.634,0.242-0.875,0l-1.969-1.968
			c-0.24-0.241-0.24-0.633,0-0.875c0.243-0.242,0.634-0.242,0.876,0L325.133,85.228L325.133,85.228z M326.518,80.647
			c0.343,0,0.619,0.277,0.619,0.619c0,0.342-0.276,0.619-0.619,0.619h-2.783c-0.342,0-0.619-0.277-0.619-0.619
			c0-0.341,0.277-0.619,0.619-0.619H326.518L326.518,80.647z M324.258,76.43c0.241-0.242,0.633-0.242,0.875,0
			c0.242,0.241,0.242,0.634,0,0.875l-1.967,1.968c-0.243,0.242-0.634,0.242-0.876,0c-0.24-0.242-0.24-0.634,0-0.875L324.258,76.43z"
			/>
		<path style="fill-rule:evenodd;clip-rule:evenodd;fill:#7A72B3;" d="M586.485,138.437c-0.566,0-1.025-0.655-1.025-1.463
			c0-0.807,0.459-1.463,1.025-1.463h47.981c0.565,0,1.023,0.656,1.023,1.463c0,0.808-0.458,1.463-1.023,1.463H586.485
			L586.485,138.437z M579.981,135.511c0.565,0,1.023,0.656,1.023,1.463c0,0.808-0.458,1.463-1.023,1.463h-3.997
			c-0.565,0-1.024-0.655-1.024-1.463c0-0.807,0.459-1.463,1.024-1.463H579.981z"/>
		<path style="fill-rule:evenodd;clip-rule:evenodd;fill:#7A72B3;" d="M109.556,52.917c-0.565,0-1.025-0.656-1.025-1.463
			c0-0.808,0.46-1.463,1.025-1.463h47.98c0.565,0,1.025,0.655,1.025,1.463c0,0.808-0.459,1.463-1.025,1.463H109.556L109.556,52.917z
			 M103.052,49.99c0.565,0,1.024,0.655,1.024,1.463c0,0.808-0.458,1.463-1.024,1.463h-3.997c-0.565,0-1.024-0.656-1.024-1.463
			c0-0.808,0.459-1.463,1.024-1.463H103.052z"/>
		<path style="fill-rule:evenodd;clip-rule:evenodd;fill:#7A72B3;" d="M395.512,279.382c0-0.342,0.276-0.619,0.619-0.619
			c0.341,0,0.618,0.277,0.618,0.619v2.783c0,0.342-0.277,0.619-0.618,0.619c-0.343,0-0.619-0.277-0.619-0.619V279.382
			L395.512,279.382z M391.294,281.642c-0.242-0.242-0.242-0.634,0-0.875c0.241-0.242,0.634-0.242,0.876,0l1.968,1.968
			c0.241,0.241,0.241,0.634,0,0.875c-0.242,0.241-0.635,0.241-0.876,0L391.294,281.642L391.294,281.642z M389.909,286.222
			c-0.342,0-0.618-0.276-0.618-0.619c0-0.341,0.276-0.619,0.618-0.619h2.784c0.341,0,0.618,0.278,0.618,0.619
			c0,0.343-0.277,0.619-0.618,0.619H389.909L389.909,286.222z M392.17,290.44c-0.242,0.241-0.635,0.241-0.876,0
			c-0.242-0.241-0.242-0.634,0-0.875l1.968-1.969c0.241-0.241,0.634-0.241,0.876,0c0.241,0.242,0.241,0.634,0,0.875L392.17,290.44
			L392.17,290.44z M396.749,291.824c0,0.342-0.277,0.618-0.618,0.618c-0.343,0-0.619-0.276-0.619-0.618v-2.784
			c0-0.342,0.276-0.618,0.619-0.618c0.341,0,0.618,0.276,0.618,0.618V291.824L396.749,291.824z M400.967,289.565
			c0.241,0.241,0.241,0.634,0,0.875c-0.242,0.241-0.633,0.241-0.876,0l-1.968-1.969c-0.242-0.241-0.242-0.633,0-0.875
			c0.242-0.241,0.635-0.241,0.876,0L400.967,289.565L400.967,289.565z M402.352,284.983c0.341,0,0.619,0.278,0.619,0.619
			c0,0.343-0.278,0.619-0.619,0.619h-2.783c-0.342,0-0.62-0.276-0.62-0.619c0-0.341,0.278-0.619,0.62-0.619H402.352L402.352,284.983
			z M400.091,280.767c0.243-0.242,0.634-0.242,0.876,0c0.241,0.241,0.241,0.633,0,0.875l-1.968,1.968
			c-0.241,0.241-0.634,0.241-0.876,0c-0.242-0.241-0.242-0.634,0-0.875L400.091,280.767z"/>
		<path style="fill-rule:evenodd;clip-rule:evenodd;fill:#7A72B3;" d="M116.893,214.46c0-0.341,0.276-0.618,0.619-0.618
			c0.342,0,0.618,0.277,0.618,0.618v2.784c0,0.342-0.276,0.619-0.618,0.619c-0.343,0-0.619-0.277-0.619-0.619V214.46L116.893,214.46
			z M112.674,216.721c-0.241-0.242-0.241-0.634,0-0.876c0.243-0.241,0.635-0.241,0.876,0l1.968,1.968
			c0.242,0.241,0.242,0.634,0,0.875c-0.242,0.242-0.634,0.242-0.875,0L112.674,216.721L112.674,216.721z M111.29,221.301
			c-0.343,0-0.62-0.277-0.62-0.619c0-0.341,0.277-0.619,0.62-0.619h2.783c0.342,0,0.619,0.277,0.619,0.619
			c0,0.342-0.277,0.619-0.619,0.619H111.29L111.29,221.301z M113.55,225.519c-0.241,0.241-0.633,0.241-0.876,0
			c-0.241-0.242-0.241-0.634,0-0.875l1.968-1.969c0.242-0.241,0.634-0.241,0.875,0c0.242,0.242,0.242,0.634,0,0.875L113.55,225.519
			L113.55,225.519z M118.129,226.903c0,0.342-0.276,0.619-0.618,0.619c-0.343,0-0.619-0.277-0.619-0.619v-2.783
			c0-0.342,0.276-0.619,0.619-0.619c0.342,0,0.618,0.277,0.618,0.619V226.903L118.129,226.903z M122.349,224.644
			c0.24,0.241,0.24,0.633,0,0.875c-0.243,0.241-0.635,0.241-0.876,0l-1.969-1.968c-0.241-0.242-0.241-0.634,0-0.875
			c0.243-0.241,0.634-0.241,0.875,0L122.349,224.644L122.349,224.644z M123.732,220.063c0.342,0,0.62,0.277,0.62,0.619
			c0,0.342-0.278,0.619-0.62,0.619h-2.784c-0.341,0-0.619-0.277-0.619-0.619c0-0.341,0.278-0.619,0.619-0.619H123.732
			L123.732,220.063z M121.473,215.845c0.241-0.241,0.633-0.241,0.876,0c0.24,0.242,0.24,0.634,0,0.876l-1.97,1.968
			c-0.241,0.242-0.632,0.242-0.875,0c-0.241-0.241-0.241-0.634,0-0.875L121.473,215.845z"/>
		<path style="fill-rule:evenodd;clip-rule:evenodd;fill:#7A72B3;" d="M267.223,325.818c0-0.342,0.278-0.619,0.62-0.619
			c0.341,0,0.619,0.277,0.619,0.619v2.783c0,0.342-0.278,0.619-0.619,0.619c-0.342,0-0.62-0.277-0.62-0.619V325.818L267.223,325.818
			z M263.006,328.078c-0.243-0.242-0.243-0.634,0-0.876c0.24-0.241,0.634-0.241,0.875,0l1.968,1.969
			c0.241,0.241,0.241,0.634,0,0.875c-0.242,0.241-0.633,0.241-0.874,0L263.006,328.078L263.006,328.078z M261.621,332.658
			c-0.342,0-0.619-0.277-0.619-0.618c0-0.343,0.277-0.62,0.619-0.62h2.784c0.341,0,0.619,0.277,0.619,0.62
			c0,0.341-0.277,0.618-0.619,0.618H261.621L261.621,332.658z M263.881,336.875c-0.241,0.242-0.635,0.242-0.875,0
			c-0.243-0.241-0.243-0.633,0-0.874l1.968-1.969c0.242-0.241,0.633-0.241,0.874,0c0.241,0.242,0.241,0.634,0,0.876L263.881,336.875
			L263.881,336.875z M268.461,338.261c0,0.342-0.278,0.618-0.619,0.618c-0.342,0-0.62-0.276-0.62-0.618v-2.784
			c0-0.342,0.278-0.618,0.62-0.618c0.341,0,0.619,0.276,0.619,0.618V338.261L268.461,338.261z M272.679,336.001
			c0.24,0.241,0.24,0.633,0,0.874c-0.242,0.242-0.634,0.242-0.875,0l-1.968-1.967c-0.242-0.242-0.242-0.634,0-0.876
			c0.242-0.241,0.634-0.241,0.875,0L272.679,336.001L272.679,336.001z M274.064,331.42c0.342,0,0.619,0.277,0.619,0.62
			c0,0.341-0.277,0.618-0.619,0.618h-2.784c-0.342,0-0.619-0.277-0.619-0.618c0-0.343,0.277-0.62,0.619-0.62H274.064L274.064,331.42
			z M271.804,327.202c0.242-0.241,0.634-0.241,0.875,0c0.24,0.242,0.24,0.634,0,0.876l-1.969,1.968
			c-0.241,0.241-0.633,0.241-0.875,0c-0.242-0.241-0.242-0.634,0-0.875L271.804,327.202z"/>
		<g>
			<path style="fill-rule:evenodd;clip-rule:evenodd;fill:#DD4586;" d="M523.287,250.546l0.621,1.15c0,0-0.024,0.959-2.71,1.492
				c-2.685,0.533-53.405,3.539-57.583,2.686c-4.176-0.854-6.548-3.033-7.326-4.569c-0.776-1.537,1.359-4.083,1.359-4.083
				S504.363,236.098,523.287,250.546z"/>
			<path style="fill-rule:evenodd;clip-rule:evenodd;fill:#0C1332;" d="M462.339,235.154l-2.766,5.715c0,0,7.625,61.714,9.67,74.25
				c2.046,12.537,19.435,28.515,49.953,71.229l6.095,7.075c0,0,0.938,0.522,1.747-0.048c0.81-0.569,5.839-6.363,5.839-6.363
				s1.003-1.306-0.127-2.92c-1.13-1.615-35.1-65.056-40.214-76.072c0,0,7.77-68.817,5.248-76.766
				C495.264,223.307,462.339,235.154,462.339,235.154z"/>
			<path style="fill-rule:evenodd;clip-rule:evenodd;fill:#242B5C;" d="M518.941,236.104l3.579,7.806c0,0-1.362,19.165-10.227,36.64
				c-8.865,17.475-16.708,35.139-18.412,38.368c-1.705,3.229,0,10.827-3.069,29.631c-3.069,18.805-8.268,53.089-8.524,55.273
				c-0.256,2.186-1.193,1.899-2.6,1.899c-1.406,0-4.944,0-6.692,0c-1.747,0-2.94-1.187-2.94-2.517c0-1.329,2.854-82.768,3.28-89.415
				c0.427-6.648,5.882-27.826,7.929-39.982c2.046-12.157,5.284-30.202-1.705-40.268
				C472.567,223.472,518.941,236.104,518.941,236.104z"/>
			<path style="fill-rule:evenodd;clip-rule:evenodd;fill:#DD4586;" d="M478.347,119.401c0,0,1.792-2.92,5.137-3.412
				c3.347-0.492,15.746-0.394,19.336,1.869c3.593,2.264,1.624,6.692,1.624,6.692L478.347,119.401z"/>
			<path style="fill-rule:evenodd;clip-rule:evenodd;fill:#DD4586;" d="M474.015,120.787c0,0-10.525,4.351-14.52,7.619
				c-3.993,3.267-22.492,49.113-25.767,57.609c0,0-1.289,3.353,1.466,5.541c2.756,2.188,7.376,2.107,10.05,0.324
				c2.675-1.782,11.508-16.046,11.508-16.046L474.015,120.787z"/>
			<path style="fill-rule:evenodd;clip-rule:evenodd;fill:#EF92A3;" d="M498.9,97.918l-0.246,5.762c0,0,0,12.266,0,13.595
				c0,1.33,1.123,3.428,3.12,3.46c5.05,6.359-0.525,12.691-4.27,13.27c-3.744,0.579-21.82-3.778-23.031-4.816
				c-0.846-0.726,4.568-7.285,4.071-9.389c0.392-0.107-0.056,0.006,0.34-0.123c1.027-0.338,1.998-0.824,2.628-1.511
				c1.97-2.151,1.881-11.74-0.09-14.249C479.451,101.409,498.9,97.918,498.9,97.918z"/>
			<path style="fill-rule:evenodd;clip-rule:evenodd;fill:#E85D96;" d="M476.088,119.934c1.199-0.301,3.546-0.945,4.544-1.05
				c1.395,7.299,8.965,14.608,20.131,1.146c6.346,1.092,25.827,6.62,26.974,13.782c0,23.243-8.471,38.836-8.471,66.992
				c0,12.874,4.774,33.083,4.643,50.893c-11.033-1.342-59.573-10.164-67.619-0.391c-0.608-0.556-1.601-2.968-0.76-6.646
				C465.563,200.843,444.706,131.211,476.088,119.934z"/>
			<path style="fill-rule:evenodd;clip-rule:evenodd;fill:#DD4586;" d="M521.375,222.444c1.26,9.438,2.604,19.691,2.533,29.252
				c-2.662-0.323-7.51-1.083-13.443-1.912c0.457-5.852-2.403-18.827-5.204-18.827c-3.302,0-40.037,0-43.672,0
				c-1.783,0-3.14,0.713-4.06,1.44c0.363-3.33,0.612-6.747,0.774-10.226c8.671-1.233,36.603-3.423,47.865-3.644
				C515.057,218.355,518.952,220.26,521.375,222.444z"/>
			<path style="fill-rule:evenodd;clip-rule:evenodd;fill:#DD4586;" d="M478.32,119.407c0.902-0.243,1.79-0.464,2.312-0.524
				c0.969,6.993,8.886,13.249,20.131,1.146c1.246,0.234,2.642,0.363,4.145,0.909c-8.853,14.811-27.491,16-26.636-1.263
				C478.272,119.649,478.292,119.545,478.32,119.407z"/>
			<path style="fill-rule:evenodd;clip-rule:evenodd;fill:#FFFFFF;" d="M490.468,129.749c0.145-0.21,0.434-0.263,0.645-0.118
				c0.211,0.145,0.264,0.434,0.118,0.645c-4.042,5.871-1.85,9.582,0.495,13.55c1.844,3.12,3.776,6.392,3.125,10.951
				c-0.035,0.254-0.271,0.43-0.524,0.394c-0.254-0.037-0.43-0.271-0.394-0.525c0.605-4.237-1.244-7.366-3.006-10.348
				C488.426,140.066,486.089,136.109,490.468,129.749z"/>
			<path style="fill-rule:evenodd;clip-rule:evenodd;fill:#FFFFFF;" d="M484.678,129.771c-0.002-0.255,0.202-0.465,0.458-0.468
				c0.256-0.003,0.465,0.202,0.469,0.457c0.001,0.049,0.408,17.282-10.925,16.509c-0.255-0.017-0.448-0.239-0.433-0.494
				c0.017-0.256,0.239-0.449,0.494-0.432C485.058,146.046,484.679,129.818,484.678,129.771z"/>
			<path style="fill-rule:evenodd;clip-rule:evenodd;fill:#FFFFFF;" d="M474.247,146.914c0.627,0,1.138-0.512,1.138-1.138
				c0-0.628-0.511-1.138-1.138-1.138c-0.626,0-1.138,0.51-1.138,1.138C473.109,146.402,473.621,146.914,474.247,146.914z"/>
			<path style="fill-rule:evenodd;clip-rule:evenodd;fill:#FFFFFF;" d="M494.326,156.309c0.627,0,1.139-0.511,1.139-1.138
				c0-0.627-0.512-1.138-1.139-1.138c-0.627,0-1.138,0.511-1.138,1.138C493.188,155.798,493.699,156.309,494.326,156.309z"/>
			<path style="fill-rule:evenodd;clip-rule:evenodd;fill:#ED859C;" d="M510.782,86.769c0.148,0.02,0.295,0.045,0.439,0.074
				l0.005,0.001l-0.001-0.001c2.673,0.56,4.702,2.905,4.757,5.752c0.063,3.308-2.569,6.042-5.878,6.104
				c-3.309,0.063-6.042-2.569-6.105-5.877c-0.036-1.923,0.837-3.651,2.224-4.774c-0.151,1.769,0.13,3.958,2.388,4.178l-0.065-3.455
				C508.519,87.373,509.823,86.73,510.782,86.769z"/>
			<path style="fill-rule:evenodd;clip-rule:evenodd;fill:#ED859C;" d="M467.533,86.769c-0.148,0.02-0.295,0.045-0.439,0.074
				l-0.005,0.001l0.001-0.001c-2.673,0.56-4.702,2.905-4.757,5.752c-0.063,3.308,2.569,6.042,5.878,6.104
				c3.309,0.063,6.042-2.569,6.106-5.877c0.036-1.923-0.837-3.651-2.225-4.774c0.152,1.769-0.129,3.958-2.387,4.178l0.065-3.455
				C469.797,87.373,468.492,86.73,467.533,86.769z"/>
			<path style="fill-rule:evenodd;clip-rule:evenodd;fill:#F3C4D2;" d="M489.156,56.836L489.156,56.836
				c11.284,0,20.517,9.232,20.517,20.516v18.66c0,11.284-9.232,20.515-20.517,20.515l0,0c-11.281,0-20.514-9.231-20.514-20.515
				v-18.66C468.643,66.068,477.875,56.836,489.156,56.836z"/>
			<path style="fill-rule:evenodd;clip-rule:evenodd;fill:#EBA1BD;" d="M505.297,64.723c2.738,3.488,4.376,7.877,4.376,12.629v18.66
				c0,11.002-8.779,20.053-19.68,20.497c12.939-3.47,15.48-13.533,15.48-16.914c0-3.381,0-10.822,0-10.822
				c-2.884-0.773-3.519-5.112-3.519-8.958c0-3.846-4.142-3.658-7.904-3.658c-3.762,0-19.166,0-19.166,0
				c-5.655-8.776,10.122-15.531,10.122-15.531S495.768,62.4,505.297,64.723z"/>
			<path style="fill-rule:evenodd;clip-rule:evenodd;fill:#FFFFFF;" d="M494.441,101.591c0.115,2.93-2.167,5.399-5.097,5.514
				c-2.93,0.115-5.398-2.166-5.513-5.096h0.008c-0.02-0.504,0.376-0.933,0.881-0.952l8.76-0.345
				c0.503-0.021,0.932,0.375,0.951,0.879H494.441z"/>
			<path style="fill-rule:evenodd;clip-rule:evenodd;fill:#FFFFFF;" d="M492.628,105.798c-0.881,0.771-2.022,1.256-3.283,1.306
				c-1.029,0.041-2.002-0.215-2.835-0.69c0.365-1.105,1.522-1.967,2.957-2.076C490.832,104.232,492.059,104.842,492.628,105.798z"/>
			<path style="fill-rule:evenodd;clip-rule:evenodd;fill:#FFFFFF;" d="M484.603,101.069l8.232-0.324
				c0.167,0.905-0.218,1.841-0.822,2.066c-0.736,0.273-6.7,0.352-7.141-0.101C484.661,102.493,484.604,101.764,484.603,101.069z"/>
			<path style="fill-rule:evenodd;clip-rule:evenodd;fill:#ED859C;" d="M477.525,97.027c1.49-0.028,2.722,1.157,2.75,2.646
				c0.027,1.49-1.157,2.72-2.646,2.749c-1.489,0.028-2.721-1.157-2.749-2.646C474.852,98.286,476.037,97.055,477.525,97.027z"/>
			<path style="fill-rule:evenodd;clip-rule:evenodd;fill:#ED859C;" d="M500.732,96.586c1.488-0.028,2.72,1.157,2.748,2.646
				c0.028,1.49-1.157,2.721-2.646,2.749c-1.489,0.029-2.721-1.156-2.749-2.646C498.058,97.845,499.242,96.614,500.732,96.586z"/>
			<path style="fill-rule:evenodd;clip-rule:evenodd;fill:#0C1332;" d="M501.865,87.024c0.358,0.179,0.795,0.034,0.975-0.325
				c0.181-0.359,0.035-0.797-0.323-0.977c-1.931-0.995-4.512-1.111-6.406,0.026c-0.343,0.206-0.456,0.655-0.251,0.999
				c0.206,0.343,0.656,0.457,1,0.25C498.393,86.079,500.313,86.283,501.865,87.024z"/>
			<path style="fill-rule:evenodd;clip-rule:evenodd;fill:#0C1332;" d="M475.671,87.026c1.556-0.743,3.476-0.947,5.009-0.028
				c0.342,0.206,0.793,0.093,0.999-0.25c0.204-0.344,0.092-0.793-0.251-0.999c-1.895-1.137-4.476-1.021-6.405-0.026
				c-0.359,0.18-0.505,0.618-0.325,0.977C474.877,87.058,475.315,87.204,475.671,87.026z"/>
			<path style="fill-rule:evenodd;clip-rule:evenodd;fill:#0C1332;" d="M477.901,89.479L477.901,89.479
				c-0.974,0-1.772,0.797-1.772,1.771v2.31c0,0.974,0.798,1.771,1.772,1.771l0,0c0.975,0,1.771-0.797,1.771-1.771v-2.31
				C479.673,90.276,478.876,89.479,477.901,89.479z"/>
			<path style="fill-rule:evenodd;clip-rule:evenodd;fill:#0C1332;" d="M499.638,89.479L499.638,89.479
				c0.973,0,1.771,0.797,1.771,1.771v2.31c0,0.974-0.798,1.771-1.771,1.771l0,0c-0.975,0-1.772-0.797-1.772-1.771v-2.31
				C497.866,90.276,498.663,89.479,499.638,89.479z"/>
			<path style="fill-rule:evenodd;clip-rule:evenodd;fill:#242B5C;" d="M497.528,73.738c3.895,0,6.479,1.046,6.479,5.458
				s0.837,6.017,3.651,6.017c0,0,0,1.526,0,3.461c0,1.935,0.188,3.892,2.014,3.892c0-4.162,1.27-5.798,1.27-5.798s0-5.568,0-10.436
				c0-4.868-1.369-11.409-7.759-15.896c-8.268-5.807-19.787-5.807-28.055,0c-6.39,4.487-7.758,11.028-7.758,15.896
				c0,4.868,0,10.436,0,10.436s1.268,1.636,1.268,5.798c1.826,0,2.014-1.957,2.014-3.892c0-1.935,0-3.461,0-3.461
				c2.815,0,3.651-1.605,3.651-6.017s4.271-5.458,6.479-5.458C486.365,73.738,493.634,73.738,497.528,73.738z"/>
			<path style="fill-rule:evenodd;clip-rule:evenodd;fill:#0C1332;" d="M503.467,76.311c0,0,5.939-4.412,7.095-7.984
				c1.156-3.571-2.153-8.141-3.361-9.086c-1.208-0.946-2.363,0.945-2.363,0.945s-5.83-5.515-6.513-8.824
				c-0.683-3.309-3.518-1.576-3.518-1.576s0.734-6.408-3.047-7.247c-3.782-0.84-14.969,3.256-19.171,15.44
				c0,0-0.577-1.996-1.785-2.258c-1.208-0.263-10.138,10.925,2.993,19.748c0.439,0.295,0.884,0.571,1.329,0.829
				c1.35-2.005,4.051-2.56,5.659-2.56c5.581,0,12.85,0,16.744,0c2.842,0,4.986,0.558,5.938,2.573H503.467z"/>
			<path style="fill-rule:evenodd;clip-rule:evenodd;fill:#1A274C;" d="M510.493,64.665c-0.147-0.518-0.341-1.025-0.559-1.511
				c-7.066,3.386-32.191,2.845-28.383-17.254c-2.314,1.627-4.602,3.871-6.455,6.819C477.009,67.899,500.301,70.866,510.493,64.665z"
				/>
			<path style="fill-rule:evenodd;clip-rule:evenodd;fill:#DD4586;" d="M525.113,129.745c0,0,5.331,3.55,10.446,9.006
				c5.114,5.455,10.74,31.881,11.082,34.268c0.34,2.387-10.571,7.331-14.321,7.331C525.616,180.35,502.717,134.939,525.113,129.745z
				"/>
			<path style="fill-rule:evenodd;clip-rule:evenodd;fill:#6154A1;" d="M549.044,142.414h-128.89c-1.968,0-3.58,1.611-3.58,3.58
				v79.448c0,1.969,1.612,3.58,3.58,3.58h128.89c1.97,0,3.58-1.611,3.58-3.58v-79.448
				C552.624,144.025,551.014,142.414,549.044,142.414z"/>
			<path style="fill-rule:evenodd;clip-rule:evenodd;fill:#746AAE;" d="M544.51,142.414H420.154c-1.968,0-3.58,1.611-3.58,3.58
				v71.87h124.355c1.97,0,3.581-1.611,3.581-3.58V142.414z"/>
			<path style="fill-rule:evenodd;clip-rule:evenodd;fill:#3C2C86;" d="M549.044,142.414H420.155c-1.969,0-3.581,1.611-3.581,3.58
				v3.052l59.421,54.884c9.601,8.867,6.762,9.649,16.123,1.003l60.506-55.887v-3.052
				C552.624,144.025,551.014,142.414,549.044,142.414z"/>
			<path style="fill-rule:evenodd;clip-rule:evenodd;fill:#3C2C86;" d="M416.574,222.009v3.433c0,1.969,1.612,3.58,3.581,3.58
				h128.889c1.97,0,3.58-1.611,3.58-3.58v-3.433l-60.973-51.632c-8.78-7.434-6.119-6.762-15.122,0.863L416.574,222.009z"/>
			<path style="fill-rule:evenodd;clip-rule:evenodd;fill:#6154A1;" d="M416.659,226.214c0.356,1.601,1.792,2.808,3.496,2.808
				h128.889c1.704,0,3.14-1.207,3.496-2.808l-61.568-52.136c-7.934-6.718-5.529-6.111-13.665,0.779L416.659,226.214z"/>
			<path style="fill-rule:evenodd;clip-rule:evenodd;fill:#746AAE;" d="M542.336,217.574l-51.364-43.496
				c-7.934-6.718-5.529-6.111-13.665,0.779l-50.786,43.006h114.408C541.428,217.864,541.904,217.76,542.336,217.574z"/>
			<path style="fill-rule:evenodd;clip-rule:evenodd;fill:#3C2C86;" d="M508.997,189.342l-18.025-15.264
				c-7.934-6.718-5.529-6.111-13.665,0.779l-17.105,14.484l15.794,14.588c9.601,8.867,6.762,9.649,16.123,1.003L508.997,189.342z"/>
			<path style="fill-rule:evenodd;clip-rule:evenodd;fill:#7A72B3;" d="M549.044,142.414H420.155c-1.184,0-2.238,0.583-2.892,1.476
				l60.043,55.46c8.136,7.515,5.732,8.178,13.665,0.85l60.965-56.311C551.283,142.997,550.229,142.414,549.044,142.414z"/>
			<path style="fill-rule:evenodd;clip-rule:evenodd;fill:#0C1332;" d="M471.989,60.606c0.013,0.199,0.186,0.35,0.385,0.337
				c0.199-0.014,0.35-0.186,0.337-0.385c-0.002-0.029-0.834-10.257,9.615-16.025c0.177-0.097,0.24-0.316,0.145-0.492
				c-0.098-0.175-0.316-0.239-0.492-0.143C471.119,49.893,471.987,60.575,471.989,60.606z"/>
			<path style="fill-rule:evenodd;clip-rule:evenodd;fill:#0C1332;" d="M505.922,61.675c0.133,0.149,0.361,0.163,0.511,0.03
				c0.149-0.133,0.163-0.362,0.03-0.511c-0.016-0.019-5.636-6.309-6.092-10.286c-0.022-0.199-0.202-0.342-0.399-0.319
				c-0.199,0.022-0.342,0.202-0.319,0.401C500.135,55.197,505.905,61.657,505.922,61.675z"/>
			<path style="fill-rule:evenodd;clip-rule:evenodd;fill:#E85D96;" d="M536.69,402.353c0,0-12.209,17.337-14.108,16.944
				c0,0-1.127-0.841-1.878-1.401c-0.751-0.561-1.251-2.142-0.379-4.778c0.872-2.638,2.873-8.158,3.414-9.91
				c0.541-1.752-1.52-9.465-1.71-10.483c-0.19-1.018,3.743-2.176,4.492-2.493s1.266,0.652,1.994,1.635
				C529.243,392.847,536.69,402.353,536.69,402.353z"/>
			<path style="fill-rule:evenodd;clip-rule:evenodd;fill:#DDB1CD;" d="M525.443,421.434l20.283-27.173
				c0.239-0.322,0.174-0.782-0.147-1.022l-1.692-1.263c-0.322-0.24-0.782-0.174-1.022,0.147l-20.283,27.174
				c-0.24,0.322-0.174,0.781,0.148,1.022l1.691,1.263C524.743,421.822,525.203,421.756,525.443,421.434z"/>
			<path style="fill-rule:evenodd;clip-rule:evenodd;fill:#DDB1CD;" d="M525.444,421.434l6.892-9.234
				c0.241-0.322,0.174-0.781-0.147-1.022l-1.691-1.263c-0.323-0.24-0.782-0.174-1.023,0.149l-6.892,9.233
				c-0.24,0.322-0.173,0.782,0.148,1.023l1.691,1.262C524.743,421.822,525.203,421.756,525.444,421.434z"/>
			<path style="fill-rule:evenodd;clip-rule:evenodd;fill:#E14F8C;" d="M525.19,402.537c0.398,0.15,2.672,0.532,2.633,1.416
				c-0.039,0.885-0.009,3.83-0.797,4.886c-0.788,1.056-2.452,3.284-4.536,6.076c-2.085,2.793-2.577,1.42-2.577,1.42
				c0.116,0.768,0.423,1.286,0.791,1.561c0.751,0.561,1.878,1.401,1.878,1.401l20.281-27.173c0,0-0.479-2.147-3.623-4.494
				c-3.143-2.347-4.838-3.849-5.684-3.767c-0.845,0.08-0.824,0.591-0.824,0.591c0.254,3.477-2.969,5.054-4.694,5.849
				c-0.184,0.084-0.362,0.161-0.536,0.232c-1.458,0.602-2.533,0.834-2.708,2.205c-0.196,1.535-0.335,7.35-0.368,8.275
				C524.393,401.94,524.792,402.385,525.19,402.537z"/>
			<path style="fill-rule:evenodd;clip-rule:evenodd;fill:#DD4586;" d="M521.168,418.242l1.414,1.055l20.282-27.173
				c0,0-0.481-2.147-3.624-4.494c-3.143-2.347-4.838-3.849-5.684-3.767c1.054,0.689,1.783,2.066,1.082,3.006
				c-0.701,0.938-2.56,3.428-4.042,5.414c-1.482,1.986-0.719,3.181-0.719,3.181s1.237,2.487,2.104,4.257
				c0.864,1.771,0.926,3.691,0.267,4.575c-0.659,0.882-8.675,11.62-9.753,13.065C522.034,417.978,521.56,418.195,521.168,418.242z"
				/>
			<path style="fill-rule:evenodd;clip-rule:evenodd;fill:#FFFFFF;" d="M525.313,393.587c0.165-0.049,0.251-0.203,0.193-0.343
				c-0.059-0.141-0.24-0.215-0.406-0.165l-2.55,0.755l-0.288-0.092l0.166,0.699l0.117-0.036l2.534,0.805
				c0.165,0.052,0.349-0.02,0.41-0.157c0.06-0.14-0.023-0.294-0.188-0.347l-1.82-0.577L525.313,393.587L525.313,393.587z
				 M523.586,399.979c-0.031-0.198-0.066-0.401-0.102-0.607l1.769,0.562c0.165,0.052,0.248,0.207,0.188,0.346
				c-0.062,0.14-0.244,0.209-0.409,0.157L523.586,399.979L523.586,399.979z M523.479,399.343c-0.033-0.179-0.065-0.359-0.1-0.541
				l1.672-0.495c0.166-0.049,0.348,0.025,0.405,0.166c0.059,0.14-0.027,0.293-0.192,0.343L523.479,399.343L523.479,399.343z
				 M523.053,397.19c-0.06-0.286-0.122-0.567-0.185-0.844l2.208-0.653c0.165-0.049,0.348,0.025,0.405,0.166
				c0.06,0.14-0.029,0.293-0.193,0.343l-1.831,0.542l1.819,0.577c0.165,0.052,0.249,0.207,0.188,0.347
				c-0.061,0.138-0.243,0.208-0.408,0.157L523.053,397.19z"/>
			<path style="fill-rule:evenodd;clip-rule:evenodd;fill:#DD4586;" d="M473.946,421.624h6.885c0.741,0,1.349-0.607,1.349-1.35
				V407.05c0-0.742-0.607-1.349-1.349-1.349h-6.885c-0.742,0-1.349,0.606-1.349,1.349v13.225
				C472.598,421.017,473.204,421.624,473.946,421.624z"/>
			<path style="fill-rule:evenodd;clip-rule:evenodd;fill:#E85D96;" d="M479.184,405.511c0,0,0.663-2.026,0.777-2.379
				c0.115-0.352,0.475-1.658-1.301-1.658c-1.775,0-3.15,0-4.306,0c-1.156,0-2.992,0.405-3.709,2.598
				c-0.718,2.193-1.998,6.113-2.435,7.454c-0.439,1.34-6.705,4.657-7.637,5.663c-0.932,1.005-1.237,2.143-1.18,2.379
				c0.058,0.235,12.532,1.642,14.27,0.838c1.736-0.805,3.652-8.411,3.652-8.411L479.184,405.511z"/>
			<path style="fill-rule:evenodd;clip-rule:evenodd;fill:#E14F8C;" d="M473.553,422.092l1.26-0.468c0,0,0.61-0.438,0.889-1.292
				c0.28-0.854,0.696-2.127,0.919-2.807c0.222-0.682,0.985-0.796,1.379-2.002c0.395-1.206,2.229-6.819,2.734-8.369
				c0.508-1.55-1.088-2.487-2.04-3.403c-0.951-0.917-2.972-0.066-3.562,1.742c-0.593,1.81-1.257,3.842-1.753,5.361
				c-0.497,1.518-0.448,2.189,0.361,2.926c0.809,0.737,1.379,1.318,1.626,1.518c0.247,0.201-0.223,1.162-0.852,1.922
				c-0.627,0.76-2.501,2.39-5.673,2.39c-3.173,0-4.58,0-6.166,0c-1.585,0-1.883-1.005-1.415-2.435
				c0.467-1.429,6.893-2.496,7.954-5.742c1.062-3.246,1.779-5.446,2.02-6.178c0.24-0.734-0.263-0.968-0.476-1.136
				c-0.213-0.167-0.709,0.018-2.003,1.307c-1.292,1.29-1.353,2.296-2.086,4.54c-0.733,2.245-2.73,4.256-5.044,5.798
				c-2.315,1.541-4.405,2.773-5.414,5.859C455.203,424.711,471.371,425.214,473.553,422.092z"/>
			<path style="fill-rule:evenodd;clip-rule:evenodd;fill:#DD4586;" d="M478.313,414.565l2.42-7.41
				c0.508-1.55-1.088-2.487-2.04-3.403c-0.071-0.068-0.15-0.128-0.233-0.177c0.027,0.025,0.614,0.625,0.175,1.97
				c-0.45,1.375-0.908,2.779-1.433,4.384C476.709,411.44,476.604,412.85,478.313,414.565L478.313,414.565z M469.68,404.576
				c-0.251,0.206-0.555,0.483-0.924,0.851c-1.292,1.29-1.353,2.296-2.086,4.54c-0.375,1.149-1.082,2.236-1.993,3.231l0,0
				c0,0,2.724-2.502,3.24-3.426C468.219,409.231,469.046,406.637,469.68,404.576L469.68,404.576z M459.4,417.296
				c-1.372,1.047-2.519,2.279-3.189,4.328c-0.888,2.715,11.517,3.431,15.999,1.439l-3.515,0.62l2.252-1.72
				c0,0-0.091-1.519-1.179-1.519c-1.09,0-7.753,0-8.939,0C459.645,420.444,458.543,419.92,459.4,417.296z"/>
			<path style="fill-rule:evenodd;clip-rule:evenodd;fill:#DDB1CD;" d="M473.477,425.712h-18.602c-0.458,0-0.712-0.377-0.562-0.836
				l0.789-2.417c0.15-0.46,0.65-0.836,1.109-0.836h18.601c0.46,0,0.713,0.376,0.563,0.836l-0.79,2.417
				C474.435,425.335,473.936,425.712,473.477,425.712z"/>
			<path style="fill-rule:evenodd;clip-rule:evenodd;fill:#DDB1CD;" d="M480.637,425.713H467.77c-0.459,0-0.713-0.378-0.562-0.837
				l0.789-2.416c0.15-0.46,0.65-0.836,1.109-0.836h12.866c0.461,0,0.714,0.376,0.563,0.836l-0.79,2.416
				C481.597,425.335,481.097,425.713,480.637,425.713z"/>
			<path style="fill-rule:evenodd;clip-rule:evenodd;fill:#FFFFFF;" d="M470.253,405.368c-0.154-0.053-0.19-0.213-0.081-0.357
				c0.109-0.146,0.323-0.22,0.476-0.168l2.374,0.809l2.901-0.809c0.189-0.052,0.354,0.022,0.368,0.168
				c0.015,0.145-0.126,0.305-0.315,0.357l-2.084,0.58l1.705,0.581c0.153,0.053,0.19,0.213,0.08,0.358
				c-0.109,0.144-0.323,0.219-0.477,0.166l-2.374-0.808l-2.901,0.808c-0.189,0.053-0.354-0.022-0.368-0.166
				c-0.014-0.146,0.126-0.306,0.314-0.358l2.084-0.581L470.253,405.368L470.253,405.368z M474.151,410.269
				c0.189-0.053,0.353,0.021,0.369,0.166c0.014,0.146-0.128,0.306-0.314,0.357l-2.085,0.582l1.705,0.58
				c0.153,0.052,0.189,0.212,0.08,0.357c-0.109,0.146-0.323,0.22-0.478,0.167l-2.373-0.809l-2.902,0.809
				c-0.186,0.053-0.353-0.021-0.367-0.167c-0.016-0.146,0.126-0.306,0.315-0.357l2.083-0.58l-1.705-0.582
				c-0.153-0.052-0.19-0.212-0.081-0.357c0.11-0.145,0.323-0.219,0.478-0.166l2.374,0.809L474.151,410.269L474.151,410.269z
				 M475.038,407.556c0.188-0.053,0.353,0.022,0.368,0.167c0.015,0.145-0.126,0.306-0.315,0.358l-2.083,0.58l1.703,0.58
				c0.154,0.053,0.191,0.214,0.082,0.357c-0.109,0.146-0.323,0.22-0.477,0.168l-2.374-0.809l-2.901,0.809
				c-0.189,0.052-0.353-0.022-0.369-0.168c-0.014-0.143,0.127-0.305,0.314-0.357l2.084-0.58l-1.705-0.58
				c-0.153-0.053-0.188-0.214-0.08-0.358c0.109-0.145,0.324-0.22,0.478-0.167l2.374,0.809L475.038,407.556z"/>
			<path style="fill-rule:evenodd;clip-rule:evenodd;fill:#F7DDE5;" d="M487.346,95.842c0,0-1.196,1.407-1.436,2.214
				c-0.24,0.808,0.419,1.526,1.256,1.287c0.839-0.239,1.137-2.753,1.047-3.531C488.123,95.034,487.346,95.842,487.346,95.842z"/>
			<path style="fill-rule:evenodd;clip-rule:evenodd;fill:#695FA7;" d="M525.26,156.742l-5.676,5.243l-18.1,16.718l-2.415,2.23
				l-15.367,14.194c-2.958,2.732-4.479,4.354-5.645,4.923c7.242,6.849,5.235,7.242,12.914,0.149l14.755-13.628l2.414-2.23
				l14.208-13.124l1.11-1.024l18.344-16.944l2.707-2.5l7.427-6.859c-0.653-0.893-1.708-1.476-2.893-1.476h-8.272l-2.067,1.911
				L525.26,156.742z"/>
			<g>
				<path style="fill-rule:evenodd;clip-rule:evenodd;fill:#F1ABBB;" d="M448.996,228.979c-0.205-3.335-0.411-6.62-1.077-7.338
					c-0.668-0.718-2.309-0.718-2.925,0.256c-0.616,0.976-0.616,0.924-0.616,0.924s-0.466-1.639-2.055-1.794
					c-1.591-0.153-2.029,2.102-2.029,2.102s-1.022-2.515-2.407-1.847c-1.386,0.667-1.539,2.155-1.539,2.155
					s-1.437-2.438-2.386-0.462c-0.95,1.975-1.488,5.49,0.358,8.569c0.368,0.613,0.852,0.902,1.414,0.785
					c0.243-0.052,0.778-0.397,1.102-0.499c0.487,0.646,1.011,1.402,1.922,1.253c0.912-0.148,1.206-0.667,1.206-0.667
					c1.497,1.729,2.937,2.029,4.079,0.564c3.826,2.128,6.397-0.073,7.928-3.952L448.996,228.979z"/>
				<path style="fill-rule:evenodd;clip-rule:evenodd;fill:#ED859C;" d="M448.996,228.979c0.134,1.201,0.153,2.889,0.101,4.07
					c2.155-1.252,2.901-4.07,2.901-4.07H448.996z"/>
			</g>
			<g>
				<path style="fill-rule:evenodd;clip-rule:evenodd;fill:#F1ABBB;" d="M527.713,228.979c-0.205-3.335-0.411-6.62-1.077-7.338
					c-0.667-0.718-2.31-0.718-2.926,0.256c-0.615,0.976-0.615,0.924-0.615,0.924s-0.465-1.639-2.057-1.794
					c-1.589-0.153-2.027,2.102-2.027,2.102s-1.021-2.515-2.407-1.847c-1.386,0.667-1.539,2.155-1.539,2.155
					s-1.437-2.438-2.387-0.462c-0.949,1.975-1.487,5.49,0.359,8.569c0.368,0.613,0.852,0.902,1.414,0.785
					c0.243-0.052,0.777-0.397,1.104-0.499c0.486,0.646,1.009,1.402,1.921,1.253c0.912-0.148,1.206-0.667,1.206-0.667
					c1.495,1.729,2.937,2.029,4.079,0.564c3.824,2.128,6.396-0.073,7.928-3.952L527.713,228.979z"/>
				<path style="fill-rule:evenodd;clip-rule:evenodd;fill:#ED859C;" d="M527.713,228.979c0.134,1.201,0.153,2.889,0.101,4.07
					c2.155-1.252,2.901-4.07,2.901-4.07H527.713z"/>
			</g>
		</g>
	</g>
</g>
<g id="DESIGNED_BY_FREEPIK">
	<path style="fill:#1C262D;" d="M385.646,475.844c-0.941,0.966-1.562,2.167-1.791,3.473l-0.748-0.132
		c0.107-0.604,0.289-1.19,0.539-1.743l-0.451-0.234c-0.057,0.026-0.117,0.045-0.184,0.052c-0.33,0.039-0.631-0.197-0.67-0.528
		c-0.037-0.331,0.199-0.631,0.529-0.67c0.31-0.036,0.592,0.169,0.66,0.466l0.465,0.241c0.305-0.522,0.676-1.01,1.107-1.453
		L385.646,475.844z M387.596,474.444c0.936-0.447,1.941-0.674,2.996-0.674c0.496,0,0.992,0.053,1.475,0.158l0.16-0.741
		c-0.535-0.116-1.084-0.175-1.635-0.175c-0.172,0-0.342,0.006-0.51,0.017l-0.074-0.626c0.188-0.149,0.297-0.389,0.266-0.645
		c-0.045-0.393-0.402-0.674-0.795-0.628c-0.393,0.046-0.674,0.402-0.627,0.796c0.029,0.254,0.189,0.461,0.404,0.563l0.072,0.624
		c-0.713,0.116-1.402,0.332-2.059,0.646L387.596,474.444z M397.047,474.362c-0.309,0.038-0.535,0.304-0.529,0.608l-0.416,0.363
		c-0.418-0.43-0.891-0.813-1.408-1.14l-0.404,0.642c1.135,0.715,2.021,1.727,2.564,2.925l0.69-0.313
		c-0.25-0.554-0.566-1.071-0.941-1.545l0.402-0.351c0.061,0.012,0.125,0.016,0.189,0.007c0.332-0.04,0.566-0.341,0.525-0.672
		C397.68,474.557,397.379,474.321,397.047,474.362z M390.045,483.221c-0.387,0.023-0.775,0.035-1.158,0.035
		c-0.879,0-1.732-0.061-2.478-0.18c-0.391-0.062-0.846-0.154-1.27-0.292c1.047,1.861,3.068,3.125,5.389,3.125
		c2.855,0,5.262-1.916,5.949-4.503c-0.682,0.449-1.506,0.825-2.459,1.122C392.838,482.897,391.463,483.136,390.045,483.221z
		 M396.623,479.725c0.025,0.191,0.041,0.387,0.045,0.581c-1.375,1.201-3.791,1.985-6.672,2.159
		c-2.641,0.159-4.674-0.248-5.348-0.731c-0.09-0.412-0.137-0.836-0.137-1.261c0-3.277,2.729-5.943,6.08-5.943
		C393.65,474.529,396.244,476.763,396.623,479.725z M390.281,479.194c0-1.021-0.83-1.85-1.85-1.85c-1.02,0-1.85,0.83-1.85,1.85
		c0,1.02,0.83,1.85,1.85,1.85C389.451,481.044,390.281,480.214,390.281,479.194z M394.529,478.775c0-0.75-0.609-1.36-1.359-1.36
		s-1.361,0.61-1.361,1.36s0.611,1.36,1.361,1.36S394.529,479.525,394.529,478.775z M404.369,477.165
		c0-0.666,0.293-0.938,0.844-1.007c0.576-0.071,1.088,0.122,1.383,0.238v-1.729c-0.434-0.187-0.947-0.308-1.59-0.308
		c-1.674,0-2.568,1.102-2.568,2.782v0.889h-1.34v1.717h1.34v5.455h1.932v-5.455h2.229v-1.717h-2.229V477.165z M411.223,477.839
		c-0.881,0-1.568,0.304-2.02,0.977v-0.784h-1.873v7.172h1.932v-3.908c0-1.065,0.615-1.613,1.51-1.613
		c0.168,0,0.35,0.017,0.525,0.046l1.021-1.552C412.07,477.967,411.637,477.839,411.223,477.839z M418.965,481.606
		c0,0.222-0.016,0.488-0.037,0.651h-5.084c0.207,1.036,0.932,1.487,1.842,1.487c0.623,0,1.295-0.252,1.815-0.688l1.133,1.243
		c-0.814,0.748-1.852,1.089-3.057,1.089c-2.199,0-3.725-1.496-3.725-3.753c0-2.258,1.48-3.797,3.627-3.797
		C417.543,477.839,418.957,479.371,418.965,481.606z M417.025,480.94c-0.178-0.918-0.732-1.436-1.561-1.436
		c-0.91,0-1.443,0.548-1.613,1.436H417.025z M426.619,481.606c0,0.222-0.016,0.488-0.037,0.651h-5.086
		c0.207,1.036,0.934,1.487,1.844,1.487c0.621,0,1.295-0.252,1.813-0.688l1.133,1.243c-0.814,0.748-1.85,1.089-3.057,1.089
		c-2.199,0-3.723-1.496-3.723-3.753c0-2.258,1.48-3.797,3.627-3.797C425.197,477.839,426.611,479.371,426.619,481.606z
		 M424.68,480.94c-0.178-0.918-0.734-1.436-1.563-1.436c-0.91,0-1.443,0.548-1.613,1.436H424.68z M434.965,481.613
		c0,2.154-1.496,3.775-3.473,3.775c-0.961,0-1.643-0.378-2.109-0.933v3.708h-1.924v-10.133h1.887v0.792
		c0.467-0.585,1.154-0.984,2.139-0.984C433.469,477.839,434.965,479.46,434.965,481.613z M432.98,481.613
		c0-1.095-0.711-1.976-1.85-1.976c-1.096,0-1.844,0.844-1.844,1.976c0,1.133,0.748,1.977,1.844,1.977
		C432.27,483.59,432.98,482.709,432.98,481.613z M436.832,474.441c-0.697,0-1.229,0.548-1.229,1.243
		c0,0.696,0.531,1.229,1.229,1.229c0.695,0,1.236-0.533,1.236-1.229C438.068,474.989,437.527,474.441,436.832,474.441z
		 M435.877,485.203h1.932v-7.172h-1.932V485.203z M442.623,481.406l3.479-3.375h-2.367l-2.703,2.554v-6.04H439.1v10.658h1.932
		v-2.901l2.717,2.901h2.377L442.623,481.406z M309.412,475.368h1.099v9.771h-1.099v-1.055c-0.527,0.718-1.392,1.23-2.388,1.23
		c-1.846,0-3.149-1.406-3.149-3.706c0-2.256,1.289-3.721,3.149-3.721c0.952,0,1.816,0.469,2.388,1.245V475.368z M309.412,480.012
		c-0.396-0.615-1.245-1.143-2.124-1.143c-1.421,0-2.27,1.172-2.27,2.739s0.85,2.725,2.27,2.725c0.879,0,1.729-0.498,2.124-1.113
		V480.012z M318.815,481.682v0.278h-5.727c0.088,1.333,1.025,2.446,2.549,2.446c0.806,0,1.626-0.322,2.182-0.894l0.527,0.718
		c-0.703,0.703-1.654,1.084-2.812,1.084c-2.095,0-3.604-1.509-3.604-3.721c0-2.051,1.465-3.706,3.486-3.706
		C317.557,477.888,318.815,479.558,318.815,481.682z M317.732,481.154c-0.015-1.055-0.718-2.358-2.329-2.358
		c-1.509,0-2.256,1.274-2.314,2.358H317.732z M320.866,479.895c0-0.63,0.601-1.113,1.567-1.113c0.908,0,1.685,0.381,2.109,0.893
		l0.513-0.762c-0.571-0.571-1.421-1.025-2.622-1.025c-1.685,0-2.637,0.938-2.637,2.036c0,2.622,4.38,1.567,4.38,3.281
		c0,0.703-0.586,1.216-1.67,1.216c-0.967,0-1.86-0.469-2.329-1.011l-0.571,0.791c0.718,0.762,1.699,1.113,2.857,1.113
		c1.831,0,2.783-0.952,2.783-2.139C325.246,480.422,320.866,481.447,320.866,479.895z M327.209,475.573
		c-0.396,0-0.732,0.337-0.732,0.747c0,0.41,0.337,0.732,0.732,0.732c0.41,0,0.747-0.322,0.747-0.732
		C327.956,475.91,327.619,475.573,327.209,475.573z M326.667,485.139h1.099v-7.075h-1.099V485.139z M334.708,478.064h1.099v6.87
		c0,2.344-1.641,3.076-3.369,3.076c-1.201,0-2.022-0.235-2.855-1.055l0.556-0.82c0.586,0.703,1.289,0.967,2.3,0.967
		c1.172,0,2.271-0.571,2.271-2.124v-1.011c-0.513,0.718-1.377,1.26-2.373,1.26c-1.846,0-3.15-1.377-3.15-3.662
		c0-2.271,1.289-3.677,3.15-3.677c0.952,0,1.802,0.469,2.373,1.245V478.064z M334.708,480.012c-0.381-0.615-1.23-1.143-2.109-1.143
		c-1.421,0-2.27,1.128-2.27,2.695c0,1.553,0.849,2.695,2.27,2.695c0.879,0,1.728-0.542,2.109-1.157V480.012z M341.256,477.888
		c-1.055,0-2.021,0.615-2.52,1.201v-1.025h-1.099v7.075h1.099v-5.171c0.41-0.571,1.23-1.099,2.095-1.099
		c0.952,0,1.582,0.395,1.582,1.641v4.629h1.099v-4.966C343.512,478.635,342.735,477.888,341.256,477.888z M351.816,481.682v0.278
		h-5.727c0.088,1.333,1.025,2.446,2.548,2.446c0.806,0,1.626-0.322,2.183-0.894l0.527,0.718c-0.703,0.703-1.655,1.084-2.813,1.084
		c-2.094,0-3.604-1.509-3.604-3.721c0-2.051,1.465-3.706,3.486-3.706C350.557,477.888,351.816,479.558,351.816,481.682z
		 M350.732,481.154c-0.015-1.055-0.718-2.358-2.329-2.358c-1.509,0-2.256,1.274-2.314,2.358H350.732z M358.35,475.368h1.099v9.771
		h-1.099v-1.055c-0.527,0.718-1.392,1.23-2.388,1.23c-1.846,0-3.149-1.406-3.149-3.706c0-2.256,1.289-3.721,3.149-3.721
		c0.952,0,1.816,0.469,2.388,1.245V475.368z M358.35,480.012c-0.395-0.615-1.245-1.143-2.124-1.143c-1.421,0-2.27,1.172-2.27,2.739
		s0.85,2.725,2.27,2.725c0.879,0,1.729-0.498,2.124-1.113V480.012z M371.327,481.608c0,2.3-1.304,3.706-3.149,3.706
		c-0.996,0-1.86-0.513-2.388-1.23v1.055h-1.099v-9.771h1.099v3.765c0.571-0.776,1.421-1.245,2.388-1.245
		C370.023,477.888,371.327,479.353,371.327,481.608z M370.185,481.608c0-1.567-0.85-2.739-2.285-2.739
		c-0.864,0-1.728,0.527-2.109,1.143v3.208c0.381,0.615,1.245,1.113,2.109,1.113C369.335,484.333,370.185,483.176,370.185,481.608z
		 M375.238,483.864l-2.358-5.801h-1.186l2.959,7.148l-0.469,1.069c-0.249,0.586-0.571,0.747-1.055,0.747
		c-0.176,0-0.439-0.044-0.601-0.117l-0.176,0.995c0.205,0.059,0.571,0.103,0.806,0.103c0.938-0.015,1.655-0.411,2.08-1.436
		l3.545-8.511h-1.201L375.238,483.864z"/>
</g>
</svg>
