<?xml version="1.0" standalone="no"?>
<!DOCTYPE svg PUBLIC "-//W3C//DTD SVG 20010904//EN"
 "http://www.w3.org/TR/2001/REC-SVG-20010904/DTD/svg10.dtd">
<svg version="1.0" xmlns="http://www.w3.org/2000/svg"
 width="410.000000pt" height="169.000000pt" viewBox="0 0 410.000000 169.000000"
 preserveAspectRatio="xMidYMid meet">
<metadata>
Created by potrace 1.16, written by Peter Selinger 2001-2019
</metadata>
<g transform="translate(0.000000,169.000000) scale(0.100000,-0.100000)"
fill="#000000" stroke="none">
<path d="M2769 1596 c-9 -9 -1085 -27 -1814 -31 -424 -2 -778 -6 -787 -10 -32
-13 -19 -23 37 -30 30 -4 55 -11 55 -15 0 -12 92 -19 395 -29 149 -6 410 -15
580 -22 171 -6 571 -13 890 -14 319 -1 695 -6 836 -10 245 -7 257 -7 267 11
10 18 29 19 269 23 383 6 488 13 488 31 0 11 -16 16 -65 21 -36 3 -81 14 -100
25 -32 17 -61 19 -355 22 -257 3 -324 6 -342 18 -17 11 -61 14 -186 14 -90 0
-166 -2 -168 -4z m116 -26 c-88 -4 -161 -8 -162 -9 -2 0 -3 -6 -3 -11 0 -24
27 -27 390 -45 237 -12 325 -17 329 -21 3 -2 -137 -3 -310 -2 -356 3 -429 1
-408 -14 9 -6 -89 -7 -276 -4 -314 6 -599 8 -875 7 -96 -1 -294 4 -440 9 -146
6 -364 13 -485 15 -121 2 -253 7 -293 10 -68 7 -72 8 -50 21 59 34 71 36 177
24 58 -7 130 -9 160 -6 31 4 286 7 566 7 281 0 708 6 950 13 242 6 541 12 665
12 l225 1 -160 -7z"/>
<path d="M415 1241 c-173 -45 -228 -199 -111 -315 44 -45 90 -64 292 -125 109
-33 130 -47 120 -85 -11 -43 -56 -54 -241 -60 -180 -6 -238 -14 -264 -41 -15
-15 -14 -18 8 -36 13 -10 30 -19 39 -19 8 0 21 -8 28 -18 11 -15 32 -17 181
-17 127 1 181 5 224 18 111 33 163 91 163 182 0 120 -76 177 -344 260 -118 37
-143 63 -99 104 38 35 100 37 195 6 66 -22 87 -25 98 -15 11 8 12 18 6 34 -6
17 -4 28 7 39 23 23 5 41 -65 68 -61 23 -187 34 -237 20z m242 -40 c64 -25 71
-46 12 -37 l-44 6 29 -19 c32 -21 51 -49 42 -59 -4 -3 -37 4 -74 16 -111 36
-214 24 -242 -28 -27 -51 13 -80 175 -126 200 -58 275 -117 283 -222 5 -76
-21 -116 -103 -157 -59 -30 -62 -30 -246 -33 -180 -4 -186 -3 -191 16 -4 14
-16 22 -39 24 -18 2 -34 9 -37 15 -8 25 55 36 233 40 99 2 190 6 202 8 34 8
83 54 83 79 0 54 -66 90 -246 136 -133 33 -184 62 -214 120 -92 181 136 316
377 221z"/>
<path d="M984 1239 c-3 -6 -15 -9 -25 -6 -41 11 -44 -10 -44 -341 0 -281 2
-318 17 -343 19 -30 51 -38 65 -16 4 8 15 16 24 19 13 5 17 31 23 139 4 73 8
134 9 135 1 1 62 4 136 6 l134 5 -7 -140 c-6 -130 -5 -141 15 -173 26 -42 57
-45 86 -6 22 30 26 74 39 477 8 222 7 225 -74 222 l-47 -2 -7 -45 c-3 -25 -7
-77 -7 -116 l-1 -71 -47 -6 c-27 -3 -67 -9 -90 -13 -23 -3 -62 -3 -87 0 l-46
7 0 124 c0 99 -3 127 -16 139 -18 19 -40 21 -50 5z m50 -46 c3 -21 6 -84 6
-140 l0 -101 67 -8 c46 -5 83 -3 113 6 25 7 59 15 76 17 31 5 31 5 38 80 3 42
6 93 6 115 0 27 4 38 15 38 8 0 15 -5 15 -12 0 -6 8 -4 19 6 26 23 49 10 57
-31 4 -20 4 -97 0 -172 -3 -75 -9 -203 -13 -286 -3 -82 -10 -154 -15 -160 -5
-5 -15 -19 -22 -29 -20 -29 -46 -14 -47 26 0 26 -2 29 -8 13 -15 -38 -20 53
-10 172 6 63 8 117 6 119 -2 2 -69 1 -149 -3 l-146 -6 -6 -51 c-3 -28 -6 -88
-6 -133 0 -64 -3 -83 -14 -83 -7 0 -21 -10 -29 -23 l-16 -22 -21 25 c-19 24
-20 34 -14 175 4 98 1 175 -7 225 -15 92 -4 270 16 270 7 0 16 -8 19 -17 6
-14 8 -14 22 5 23 33 41 27 48 -15z"/>
<path d="M3395 1230 c-13 -14 -22 -17 -30 -10 -9 7 -17 5 -26 -6 -17 -21 -24
-285 -14 -514 l7 -154 34 -34 34 -34 172 4 c143 4 179 8 210 23 21 10 40 25
42 32 3 7 -11 29 -31 49 l-36 37 -148 -2 -148 -2 -3 299 c-2 235 -6 302 -17
315 -17 22 -24 21 -46 -3z m47 -61 c3 -30 6 -170 7 -312 l1 -259 153 4 c112 2
151 0 150 -9 -1 -6 11 -16 27 -22 59 -20 28 -50 -55 -52 -56 -2 -58 -2 -20 -9
27 -5 -3 -8 -95 -10 -191 -3 -201 -2 -232 27 -25 24 -27 32 -32 137 -3 61 -8
167 -12 235 -8 160 2 311 22 311 8 0 14 -9 14 -19 0 -11 5 -23 10 -26 6 -3 10
-2 10 4 0 24 21 62 33 59 6 -3 15 -29 19 -59z"/>
<path d="M1827 1188 c-39 -14 -34 -50 11 -63 17 -5 32 -15 32 -22 0 -7 22 -24
49 -37 92 -47 127 -117 119 -236 -12 -156 -106 -260 -215 -236 -54 12 -90 43
-119 103 -25 49 -29 70 -29 138 0 100 20 145 78 177 50 28 56 44 24 59 -16 7
-23 17 -20 28 8 30 -21 45 -60 32 -92 -31 -155 -129 -164 -255 -12 -170 68
-335 192 -392 39 -19 67 -24 128 -24 157 0 237 69 291 249 23 79 22 236 -3
301 -53 141 -196 221 -314 178z m193 -42 c81 -53 121 -133 127 -254 7 -142
-28 -253 -107 -332 -53 -53 -101 -72 -180 -74 -80 -1 -162 26 -208 68 -75 70
-120 227 -102 355 13 95 53 156 122 192 69 35 98 16 31 -21 l-38 -20 45 5 c25
3 52 1 60 -5 17 -12 9 -20 -48 -51 -68 -38 -83 -210 -28 -322 37 -77 85 -110
162 -110 46 0 61 5 92 30 58 46 95 129 100 228 3 50 0 97 -8 120 -16 49 -60
98 -110 120 -24 11 -40 25 -40 35 0 11 -14 21 -40 29 -76 23 -45 41 64 35 53
-2 77 -9 106 -28z"/>
<path d="M2913 1193 c-52 -10 -55 -57 -4 -68 16 -3 37 -17 45 -31 9 -13 22
-24 29 -24 23 0 87 -50 102 -80 57 -109 21 -309 -66 -373 -71 -52 -180 -21
-233 66 -25 41 -30 61 -34 131 -6 108 17 165 77 196 43 21 56 55 26 66 -8 4
-15 14 -15 24 0 77 -140 20 -194 -80 -39 -71 -48 -207 -21 -306 31 -114 109
-210 198 -243 43 -17 182 -14 225 5 76 31 140 121 177 248 25 84 16 236 -18
308 -58 126 -167 186 -294 161z m85 -22 c20 -6 30 -6 27 0 -21 34 77 -25 119
-72 67 -73 79 -113 74 -253 -3 -107 -7 -128 -32 -183 -32 -69 -95 -135 -154
-160 -94 -41 -265 -5 -323 68 -90 114 -115 311 -54 435 36 73 138 140 160 104
3 -5 -10 -16 -30 -24 -48 -20 -45 -36 4 -23 31 8 43 8 56 -3 14 -12 12 -15
-22 -34 -60 -34 -87 -93 -86 -191 1 -158 76 -257 194 -257 110 0 180 91 195
251 11 116 -26 197 -109 241 -27 14 -47 32 -47 41 0 11 -12 19 -35 23 -39 8
-54 24 -34 37 18 11 56 11 97 0z"/>
<path d="M2295 903 c-27 -3 -55 -9 -63 -15 -17 -15 -6 -98 16 -116 11 -9 56
-12 150 -11 128 1 134 2 148 25 13 19 14 28 3 58 -7 20 -20 38 -28 40 -35 10
-136 26 -155 24 -12 -1 -43 -3 -71 -5z m175 -25 c40 -9 54 -18 61 -36 13 -34
11 -52 -7 -52 -8 0 -12 -5 -9 -10 4 -7 -7 -8 -34 -4 -52 8 -117 9 -159 1 -49
-9 -86 8 -78 36 3 12 1 29 -4 37 -5 9 -5 19 2 27 14 17 158 17 228 1z"/>
<path d="M920 226 c-13 -13 -59 -16 -345 -18 -295 -3 -333 -5 -355 -20 -16
-12 -43 -18 -82 -18 -54 0 -72 -10 -47 -26 13 -8 146 -13 478 -20 202 -5 247
-8 259 -21 13 -13 35 -14 131 -9 64 3 393 8 731 11 562 5 1305 18 1655 30 233
8 337 17 364 31 14 8 41 14 59 14 39 0 42 16 5 24 -51 10 -448 13 -963 8 -173
-2 -511 1 -750 7 -978 24 -1124 25 -1140 7z m820 -16 c184 -5 682 -10 1105
-12 784 -2 902 -8 747 -38 -28 -5 -149 -10 -269 -11 -120 -1 -312 -5 -428 -10
-260 -9 -1657 -17 -1595 -8 54 7 -94 13 -295 10 -191 -2 -136 15 74 23 165 7
251 19 236 34 -4 4 -73 10 -153 13 l-147 5 195 2 c107 1 346 -3 530 -8z"/>
</g>
</svg>
